<svg xmlns="http://www.w3.org/2000/svg" width="658.21" height="194.12" viewBox="0 0 658.21 194.12">
  <defs>
    <style>
      .a {
        fill: #1677ff;
      }

      .b {
        fill: #fff;
      }

      .c {
        fill: #3e3a39;
      }
    </style>
  </defs>
  <title>alipay</title>
  <g>
    <g>
      <path class="a" d="M163.29,0H31A31.13,31.13,0,0,0-.21,31.1V163A31.13,31.13,0,0,0,31,194.12H163.29A31.13,31.13,0,0,0,194.47,163V31.1A31.13,31.13,0,0,0,163.29,0Z" transform="translate(0.21)"/>
      <path class="b" d="M160.07,121.89c-7.78-2.6-18.24-6.58-29.88-10.78a156.79,156.79,0,0,0,16.25-40.92H108.06V56.41h47v-7.7h-47v-23H88.88a3.26,3.26,0,0,0-3.37,3.31V48.71H38v7.7H85.51V70.19H46.26v7.69h76.13a135.22,135.22,0,0,1-11,26.72C86.72,96.47,60.36,89.88,43.8,93.94c-10.59,2.6-17.41,7.25-21.42,12.11C4,128.36,17.18,162.26,56,162.26c23,0,45.09-12.77,62.24-33.81,25.57,12.26,76.21,33.3,76.21,33.3v-30S188.11,131.25,160.07,121.89ZM52.39,149.28c-30.28,0-39.24-23.79-24.27-36.8,5-4.4,14.12-6.55,19-7,18-1.77,34.64,5.07,54.3,14.64C87.59,138.06,70,149.28,52.39,149.28Z" transform="translate(0.21)"/>
    </g>
    <g>
      <path class="c" d="M554.33,48.46h74.15V63.14H655V45.65a7.06,7.06,0,0,0-6.86-7.14H605.24V24.83H577.52V38.51H527.86V63.14h26.47Z" transform="translate(0.21)"/>
      <polygon class="c" points="394.13 26.09 366.98 90.3 387.81 90.3 387.81 166.7 410.59 166.7 410.59 65.36 402.34 65.36 419.49 26.09 394.13 26.09"/>
      <path class="c" d="M658,163.2l-8.32-28.1a4.34,4.34,0,0,0-4.11-3.1h-22l6.39,21.59H604V111.78h50.9v-10H604V82.15h50.9v-10h-127v10h50.9v19.68h-50.9v10h50.9v41.81h-50.9v9.95H658l-.11-.34Z" transform="translate(0.21)"/>
      <path class="c" d="M452.16,78.72a5.26,5.26,0,0,0-4.68-3H427.76l15.36,48.36h23.33Z" transform="translate(0.21)"/>
      <path class="c" d="M502.07,27.26H478.41V52H420.07v9.95h58.34v88.91a4.1,4.1,0,0,1-3.82,3.73h-12v10.31h30.67a9.33,9.33,0,0,0,8.84-9.24V61.94h9.62V52h-9.62Z" transform="translate(0.21)"/>
      <path class="c" d="M354.39,72.31H308.92V56h52.72V45.87H308.92V25.23h-23.5a4.73,4.73,0,0,0-4.66,4.82h0V45.87H228.41V56h52.35V72.31H236.58V82.45h88s-4.87,19-29,39.51c-21.63-16.37-28.86-29.42-28.86-29.42H243.1c9.55,16.56,23.13,29.82,37.74,40.33C267.41,141.6,250,150,227.49,156.74v12.15s34.73-6.55,68.3-26.33a244.56,244.56,0,0,0,67.39,26.33v-11.5A280.7,280.7,0,0,1,311,132.52C330.48,118.1,347.55,98.51,354.39,72.31Z" transform="translate(0.21)"/>
    </g>
  </g>
</svg>
