<svg xmlns="http://www.w3.org/2000/svg" width="151" height="65.38" viewBox="0 0 151 65.38">
  <defs>
    <style>
      .a {
        fill: #007fff;
      }
    </style>
  </defs>
  <title>dingtalk</title>
  <g>
    <path class="a" d="M39.43,30.43C29,22.39,17.27,11.74,4.4.32,3.39-.58,2.49-.23,2,1A16.14,16.14,0,0,0,6.49,19.35c4.56,3.94,11.34,7.56,15.5,9.49.16.07,0,.31-.15.24C14.21,25.71,8.9,23.29,1.7,17.73c-.77-.59-1.56-.36-1.65.81a14.79,14.79,0,0,0,9.33,15,44.28,44.28,0,0,0,10.06,2.27c.17,0,.13.27,0,.27a40,40,0,0,1-13.77-2.7c-.94-.36-1.26.39-1.11,1,.75,3.09,4.58,7.82,10.67,8.82a19.07,19.07,0,0,0,3.43.18c.26,0,.32.13.24.33l-4.32,7.39c-.14.24,0,.43.24.43h5.46c.25,0,.41.16.28.37L12.89,64.55c-.3.49,0,.87.61.47L37.59,47.38c.3-.22.23-.52-.19-.52H32.5c-.32,0-.39-.22-.17-.43s5.56-5.54,7.45-7.54S42.77,33,39.43,30.43Z" transform="translate(0 0.19)"/>
    <g>
      <path class="a" d="M117.43,13.29h-5.54l-3.64,7.07a.55.55,0,0,0,.48.83h16.51l.58-4.72h-10Z" transform="translate(0 0.19)"/>
      <path class="a" d="M106.85,31.45h4.37c-.2,1.61-.44,3.53-.69,5.56h-4.37l-.58,4.72H110c-.68,5.56-1.32,10.76-1.43,11.67-.31,2.55,2.28,3.86,4.84,3.41a26.2,26.2,0,0,0,7.8-2.42l.63-5.13A43.21,43.21,0,0,1,115,51.45c-.57.13-1.08-.21-1-.77l1.1-9h7.64L123.3,37h-7.64l.68-5.56H124l.58-4.72H107.43Z" transform="translate(0 0.19)"/>
      <path class="a" d="M151,16.47H130.09l-.58,4.72h11.27L137.24,50a1,1,0,0,1-.92.82h-8.93L126.76,56h10.78a4.77,4.77,0,0,0,4.6-4.1l3.77-30.66h4.51Z" transform="translate(0 0.19)"/>
      <path class="a" d="M65.82,13.29H60.29l-3.64,7.07a.55.55,0,0,0,.48.83H73.64l.58-4.72h-10Z" transform="translate(0 0.19)"/>
      <path class="a" d="M55.24,31.45h4.37c-.2,1.61-.43,3.53-.68,5.56H54.56L54,41.73h4.37C57.67,47.29,57,52.49,56.93,53.4c-.32,2.55,2.28,3.86,4.84,3.41a26,26,0,0,0,7.79-2.42l.63-5.13a42.55,42.55,0,0,1-6.81,2.19c-.57.13-1.07-.21-1-.77l1.1-9h7.64L71.7,37H64.06l.68-5.56h7.64L73,26.73H55.82Z" transform="translate(0 0.19)"/>
      <path class="a" d="M77.9,21.19H89.18L85.64,50a1,1,0,0,1-.92.82H75.79L75.16,56H85.93a4.78,4.78,0,0,0,4.61-4.1L94.3,21.19h4.52l.58-4.72H78.48Z" transform="translate(0 0.19)"/>
    </g>
  </g>
</svg>
