<svg xml:space="preserve" style="enable-background:new 0 0 250.979 244.246;" viewBox="0 0 250.979 244.246" height="244.246px" width="250.979px" y="0px" x="0px" xmlns:xlink="http://www.w3.org/1999/xlink" xmlns="http://www.w3.org/2000/svg" id="Layer_1" version="1.1">
<g id="Layer_1_5_">
	<g id="Layer_4_1_">
		<path d="M250.979,109.715c0-40.701-33.074-73.693-73.871-73.693c-0.635,0-1.262,0.029-1.893,0.046
			C162.334,14.476,138.717,0,111.701,0C70.903,0,37.83,32.995,37.83,73.696c0,0.529,0.025,1.049,0.04,1.576
			C15.556,87.952,0.5,111.88,0.5,139.332c0,40.699,33.073,73.691,73.872,73.691c2.316,0,4.608-0.123,6.878-0.33
			c13.551,16.377,34.051,26.812,56.998,26.812c37.711,0,68.793-28.191,73.289-64.596
			C234.988,162.562,250.979,138.007,250.979,109.715z" style="fill:#D6F0FF;"></path>
	</g>
	<g id="Layer_2_1_">
		<rect height="148.542" width="117.769" style="fill:#FFFFFF;" y="52.671" x="46.401"></rect>
		<g style="opacity:0.33;">
			<g>
				<rect height="141.454" width="145.377" style="fill:#FFFFFF;" y="52.671" x="47.401"></rect>
				<path d="M192.778,195.625H47.401c-0.829,0-1.5-0.672-1.5-1.5V52.671c0-0.829,0.671-1.5,1.5-1.5h145.377
					c0.828,0,1.5,0.671,1.5,1.5v141.454C194.278,194.953,193.606,195.625,192.778,195.625z M48.901,192.625h142.377V54.171H48.901
					V192.625z" style="fill:#6E6E96;"></path>
			</g>
			<g>
				<rect height="24.311" width="15.658" style="fill:#BDDFFF;" y="101.244" x="144.564"></rect>
				<path d="M160.222,127.055h-15.658c-0.828,0-1.5-0.672-1.5-1.5v-24.311c0-0.829,0.672-1.5,1.5-1.5h15.658
					c0.828,0,1.5,0.671,1.5,1.5v24.311C161.722,126.383,161.05,127.055,160.222,127.055z M146.064,124.055h12.658v-21.311h-12.658
					V124.055z" style="fill:#6E6E96;"></path>
			</g>
			<g>
				<rect height="24.16" width="15.658" style="fill:#BDDFFF;" y="131.445" x="144.564"></rect>
				<path d="M160.222,157.105h-15.658c-0.828,0-1.5-0.672-1.5-1.5v-24.16c0-0.828,0.672-1.5,1.5-1.5h15.658
					c0.828,0,1.5,0.672,1.5,1.5v24.16C161.722,156.434,161.05,157.105,160.222,157.105z M146.064,154.105h12.658v-21.16h-12.658
					V154.105z" style="fill:#6E6E96;"></path>
			</g>
			<g>
				<rect height="24.677" width="15.66" style="fill:#BDDFFF;" y="70.671" x="122.5"></rect>
				<path d="M138.16,96.848H122.5c-0.829,0-1.5-0.671-1.5-1.5V70.671c0-0.829,0.671-1.5,1.5-1.5h15.66
					c0.828,0,1.5,0.671,1.5,1.5v24.677C139.66,96.177,138.989,96.848,138.16,96.848z M124,93.848h12.66V72.171H124V93.848z" style="fill:#6E6E96;"></path>
			</g>
			<g>
				<rect height="24.311" width="15.66" style="fill:#BDDFFF;" y="101.244" x="122.5"></rect>
				<path d="M138.16,127.055H122.5c-0.829,0-1.5-0.672-1.5-1.5v-24.311c0-0.829,0.671-1.5,1.5-1.5h15.66
					c0.828,0,1.5,0.671,1.5,1.5v24.311C139.66,126.383,138.989,127.055,138.16,127.055z M124,124.055h12.66v-21.311H124V124.055z" style="fill:#6E6E96;"></path>
			</g>
			<g>
				<rect height="24.311" width="18.425" style="fill:#BDDFFF;" y="101.244" x="166.629"></rect>
				<path d="M185.054,127.055h-18.425c-0.828,0-1.5-0.672-1.5-1.5v-24.311c0-0.829,0.672-1.5,1.5-1.5h18.425
					c0.828,0,1.5,0.671,1.5,1.5v24.311C186.554,126.383,185.882,127.055,185.054,127.055z M168.129,124.055h15.425v-21.311h-15.425
					V124.055z" style="fill:#6E6E96;"></path>
			</g>
			<g>
				<rect height="24.677" width="15.658" style="fill:#BDDFFF;" y="70.671" x="144.564"></rect>
				<path d="M160.222,96.848h-15.658c-0.828,0-1.5-0.671-1.5-1.5V70.671c0-0.829,0.672-1.5,1.5-1.5h15.658
					c0.828,0,1.5,0.671,1.5,1.5v24.677C161.722,96.177,161.05,96.848,160.222,96.848z M146.064,93.848h12.658V72.171h-12.658V93.848
					z" style="fill:#6E6E96;"></path>
			</g>
			<g>
				<rect height="24.16" width="15.66" style="fill:#BDDFFF;" y="131.445" x="122.5"></rect>
				<path d="M138.16,157.105H122.5c-0.829,0-1.5-0.672-1.5-1.5v-24.16c0-0.828,0.671-1.5,1.5-1.5h15.66
					c0.828,0,1.5,0.672,1.5,1.5v24.16C139.66,156.434,138.989,157.105,138.16,157.105z M124,154.105h12.66v-21.16H124V154.105z" style="fill:#6E6E96;"></path>
			</g>
			<g>
				<rect height="24.677" width="18.425" style="fill:#BDDFFF;" y="70.671" x="166.629"></rect>
				<path d="M185.054,96.848h-18.425c-0.828,0-1.5-0.671-1.5-1.5V70.671c0-0.829,0.672-1.5,1.5-1.5h18.425
					c0.828,0,1.5,0.671,1.5,1.5v24.677C186.554,96.177,185.882,96.848,185.054,96.848z M168.129,93.848h15.425V72.171h-15.425
					V93.848z" style="fill:#6E6E96;"></path>
			</g>
			<g>
				<rect height="24.16" width="18.425" style="fill:#BDDFFF;" y="131.445" x="166.629"></rect>
				<path d="M185.054,157.105h-18.425c-0.828,0-1.5-0.672-1.5-1.5v-24.16c0-0.828,0.672-1.5,1.5-1.5h18.425
					c0.828,0,1.5,0.672,1.5,1.5v24.16C186.554,156.434,185.882,157.105,185.054,157.105z M168.129,154.105h15.425v-21.16h-15.425
					V154.105z" style="fill:#6E6E96;"></path>
			</g>
			<g>
				<rect height="24.311" width="16.942" style="fill:#BDDFFF;" y="101.244" x="55.025"></rect>
				<path d="M71.967,127.055H55.025c-0.829,0-1.5-0.672-1.5-1.5v-24.311c0-0.829,0.671-1.5,1.5-1.5h16.942
					c0.829,0,1.5,0.671,1.5,1.5v24.311C73.467,126.383,72.796,127.055,71.967,127.055z M56.525,124.055h13.942v-21.311H56.525
					V124.055z" style="fill:#6E6E96;"></path>
			</g>
			<g>
				<rect height="24.677" width="16.942" style="fill:#BDDFFF;" y="70.671" x="55.025"></rect>
				<path d="M71.967,96.848H55.025c-0.829,0-1.5-0.671-1.5-1.5V70.671c0-0.829,0.671-1.5,1.5-1.5h16.942
					c0.829,0,1.5,0.671,1.5,1.5v24.677C73.467,96.177,72.796,96.848,71.967,96.848z M56.525,93.848h13.942V72.171H56.525V93.848z" style="fill:#6E6E96;"></path>
			</g>
			<g>
				<rect height="24.16" width="16.942" style="fill:#BDDFFF;" y="131.445" x="55.025"></rect>
				<path d="M71.967,157.105H55.025c-0.829,0-1.5-0.672-1.5-1.5v-24.16c0-0.828,0.671-1.5,1.5-1.5h16.942
					c0.829,0,1.5,0.672,1.5,1.5v24.16C73.467,156.434,72.796,157.105,71.967,157.105z M56.525,154.105h13.942v-21.16H56.525V154.105
					z" style="fill:#6E6E96;"></path>
			</g>
			<g>
				<rect height="24.16" width="15.654" style="fill:#BDDFFF;" y="131.445" x="78.373"></rect>
				<path d="M94.028,157.105H78.373c-0.829,0-1.5-0.672-1.5-1.5v-24.16c0-0.828,0.671-1.5,1.5-1.5h15.654
					c0.829,0,1.5,0.672,1.5,1.5v24.16C95.528,156.434,94.856,157.105,94.028,157.105z M79.873,154.105h12.654v-21.16H79.873V154.105
					z" style="fill:#6E6E96;"></path>
			</g>
			<g>
				<rect height="24.311" width="15.654" style="fill:#BDDFFF;" y="101.244" x="78.373"></rect>
				<path d="M94.028,127.055H78.373c-0.829,0-1.5-0.672-1.5-1.5v-24.311c0-0.829,0.671-1.5,1.5-1.5h15.654
					c0.829,0,1.5,0.671,1.5,1.5v24.311C95.528,126.383,94.856,127.055,94.028,127.055z M79.873,124.055h12.654v-21.311H79.873
					V124.055z" style="fill:#6E6E96;"></path>
			</g>
			<g>
				<rect height="24.16" width="15.659" style="fill:#BDDFFF;" y="131.445" x="100.437"></rect>
				<path d="M116.096,157.105h-15.659c-0.829,0-1.5-0.672-1.5-1.5v-24.16c0-0.828,0.671-1.5,1.5-1.5h15.659
					c0.829,0,1.5,0.672,1.5,1.5v24.16C117.596,156.434,116.925,157.105,116.096,157.105z M101.937,154.105h12.659v-21.16h-12.659
					V154.105z" style="fill:#6E6E96;"></path>
			</g>
			<g>
				<rect height="24.677" width="15.659" style="fill:#BDDFFF;" y="70.671" x="100.437"></rect>
				<path d="M116.096,96.848h-15.659c-0.829,0-1.5-0.671-1.5-1.5V70.671c0-0.829,0.671-1.5,1.5-1.5h15.659
					c0.829,0,1.5,0.671,1.5,1.5v24.677C117.596,96.177,116.925,96.848,116.096,96.848z M101.937,93.848h12.659V72.171h-12.659
					V93.848z" style="fill:#6E6E96;"></path>
			</g>
			<g>
				<rect height="24.311" width="15.659" style="fill:#BDDFFF;" y="101.244" x="100.437"></rect>
				<path d="M116.096,127.055h-15.659c-0.829,0-1.5-0.672-1.5-1.5v-24.311c0-0.829,0.671-1.5,1.5-1.5h15.659
					c0.829,0,1.5,0.671,1.5,1.5v24.311C117.596,126.383,116.925,127.055,116.096,127.055z M101.937,124.055h12.659v-21.311h-12.659
					V124.055z" style="fill:#6E6E96;"></path>
			</g>
			<g>
				<rect height="24.677" width="15.654" style="fill:#BDDFFF;" y="70.671" x="78.373"></rect>
				<path d="M94.028,96.848H78.373c-0.829,0-1.5-0.671-1.5-1.5V70.671c0-0.829,0.671-1.5,1.5-1.5h15.654
					c0.829,0,1.5,0.671,1.5,1.5v24.677C95.528,96.177,94.856,96.848,94.028,96.848z M79.873,93.848h12.654V72.171H79.873V93.848z" style="fill:#6E6E96;"></path>
			</g>
			<g>
				<rect height="7.074" width="153.228" style="fill:#D5B697;" y="52.671" x="43.483"></rect>
				<path d="M196.71,61.245H43.483c-0.829,0-1.5-0.671-1.5-1.5v-7.074c0-0.829,0.671-1.5,1.5-1.5H196.71
					c0.828,0,1.5,0.671,1.5,1.5v7.074C198.21,60.574,197.538,61.245,196.71,61.245z M44.983,58.245H195.21v-4.074H44.983V58.245z" style="fill:#6E6E96;"></path>
			</g>
			<g>
				<rect height="24.16" width="15.658" style="fill:#BDDFFF;" y="161.895" x="144.564"></rect>
				<path d="M160.222,187.555h-15.658c-0.828,0-1.5-0.672-1.5-1.5v-24.16c0-0.828,0.672-1.5,1.5-1.5h15.658
					c0.828,0,1.5,0.672,1.5,1.5v24.16C161.722,186.883,161.05,187.555,160.222,187.555z M146.064,184.555h12.658v-21.16h-12.658
					V184.555z" style="fill:#6E6E96;"></path>
			</g>
			<g>
				<rect height="24.16" width="18.425" style="fill:#BDDFFF;" y="161.895" x="166.629"></rect>
				<path d="M185.054,187.555h-18.425c-0.828,0-1.5-0.672-1.5-1.5v-24.16c0-0.828,0.672-1.5,1.5-1.5h18.425
					c0.828,0,1.5,0.672,1.5,1.5v24.16C186.554,186.883,185.882,187.555,185.054,187.555z M168.129,184.555h15.425v-21.16h-15.425
					V184.555z" style="fill:#6E6E96;"></path>
			</g>
			<g>
				<rect height="24.16" width="16.942" style="fill:#BDDFFF;" y="161.895" x="55.025"></rect>
				<path d="M71.967,187.555H55.025c-0.829,0-1.5-0.672-1.5-1.5v-24.16c0-0.828,0.671-1.5,1.5-1.5h16.942
					c0.829,0,1.5,0.672,1.5,1.5v24.16C73.467,186.883,72.796,187.555,71.967,187.555z M56.525,184.555h13.942v-21.16H56.525V184.555
					z" style="fill:#6E6E96;"></path>
			</g>
			<g>
				<rect height="24.16" width="15.654" style="fill:#BDDFFF;" y="161.895" x="78.373"></rect>
				<path d="M94.028,187.555H78.373c-0.829,0-1.5-0.672-1.5-1.5v-24.16c0-0.828,0.671-1.5,1.5-1.5h15.654
					c0.829,0,1.5,0.672,1.5,1.5v24.16C95.528,186.883,94.856,187.555,94.028,187.555z M79.873,184.555h12.654v-21.16H79.873V184.555
					z" style="fill:#6E6E96;"></path>
			</g>
			<g>
				<rect height="32.229" width="37.784" style="fill:#E4BC96;" y="161.895" x="100.437"></rect>
				<path d="M138.221,195.624h-37.784c-0.829,0-1.5-0.672-1.5-1.5v-32.229c0-0.828,0.671-1.5,1.5-1.5h37.784
					c0.828,0,1.5,0.672,1.5,1.5v32.229C139.721,194.952,139.049,195.624,138.221,195.624z M101.937,192.624h34.784v-29.229h-34.784
					V192.624z" style="fill:#6E6E96;"></path>
			</g>
			<path d="M119.113,195.625c-0.829,0-1.5-0.672-1.5-1.5v-32.23c0-0.828,0.671-1.5,1.5-1.5s1.5,0.672,1.5,1.5
				v32.23C120.613,194.953,119.941,195.625,119.113,195.625z" style="fill:#6E6E96;"></path>
		</g>
		<rect height="18" width="38" style="fill:#D6F0FF;" y="191.557" x="85.833"></rect>
		<path d="M101.625,21.598H80.5c-1.381,0-2.5-1.119-2.5-2.5s1.119-2.5,2.5-2.5h21.125
			c1.381,0,2.5,1.119,2.5,2.5S103.006,21.598,101.625,21.598z" style="fill:#FFFFFF;"></path>
		<path d="M115.465,32.525H90.698c-1.381,0-2.5-1.119-2.5-2.5s1.119-2.5,2.5-2.5h24.767
			c1.381,0,2.5,1.119,2.5,2.5S116.846,32.525,115.465,32.525z" style="fill:#FFFFFF;"></path>
	</g>
	<g id="Layer_3_1_">
		<g>
			<rect height="9.561" width="67.122" style="fill:#EBEBF7;" y="21.587" x="156.502"></rect>
			<path d="M223.624,32.648h-67.122c-0.828,0-1.5-0.671-1.5-1.5v-9.561c0-0.829,0.672-1.5,1.5-1.5h67.122
				c0.828,0,1.5,0.671,1.5,1.5v9.561C225.124,31.977,224.452,32.648,223.624,32.648z M158.002,29.648h64.122v-6.561h-64.122V29.648z" style="fill:#CCCCDE;"></path>
		</g>
		<g>
			<rect height="169.355" width="105.589" style="fill:#FFFFFF;" y="30.982" x="137.1"></rect>
			<path d="M242.689,201.837H137.1c-0.828,0-1.5-0.672-1.5-1.5V30.982c0-0.829,0.672-1.5,1.5-1.5h105.589
				c0.828,0,1.5,0.671,1.5,1.5v169.355C244.189,201.165,243.517,201.837,242.689,201.837z M138.6,198.837h102.589V32.482H138.6
				V198.837z" style="fill:#CCCCDE;"></path>
		</g>
		<g>
			<rect height="160.893" width="88.036" style="fill:#CFE7FF;" y="39.445" x="146.174"></rect>
			<path d="M234.21,201.838h-88.036c-0.828,0-1.5-0.672-1.5-1.5V39.445c0-0.829,0.672-1.5,1.5-1.5h88.036
				c0.828,0,1.5,0.671,1.5,1.5v160.893C235.71,201.166,235.038,201.838,234.21,201.838z M147.674,198.838h85.036V40.945h-85.036
				V198.838z" style="fill:#CCCCDE;"></path>
		</g>
		<polygon points="147.297,123.091 229.938,40.452 169.996,40.619 
			147.297,63.995" style="opacity:0.49;fill:#FFFFFF;enable-background:new    ;"></polygon>
		<polygon points="233.478,62.664 146.653,149.486 170.497,150.176 
			233.478,87.196" style="opacity:0.27;fill:#FFFFFF;enable-background:new    ;"></polygon>
		<g>
			<rect height="50.793" width="88.036" style="fill:#CFE7FF;" y="149.544" x="146.174"></rect>
			<path d="M234.21,201.837h-88.036c-0.828,0-1.5-0.672-1.5-1.5v-50.793c0-0.828,0.672-1.5,1.5-1.5h88.036
				c0.828,0,1.5,0.672,1.5,1.5v50.793C235.71,201.165,235.038,201.837,234.21,201.837z M147.674,198.837h85.036v-47.793h-85.036
				V198.837z" style="fill:#CCCCDE;"></path>
		</g>
		<g style="opacity:0.37;">
			<polygon points="169.293,162.003 147.475,183.188 
				147.475,196.125 169.293,174.939" style="opacity:0.49;fill:#FFFFFF;enable-background:new    ;"></polygon>
			<polyline points="147.349,173.376 159.062,162.003 
				147.349,162.003" style="opacity:0.49;fill:#FFFFFF;enable-background:new    ;"></polyline>
		</g>
		<g style="opacity:0.37;">
			<polygon points="200.758,162.003 179.573,183.188 
				179.573,196.125 200.758,174.939" style="opacity:0.49;fill:#FFFFFF;enable-background:new    ;"></polygon>
			<polyline points="180.294,173.376 191.667,162.003 
				180.294,162.003" style="opacity:0.49;fill:#FFFFFF;enable-background:new    ;"></polyline>
		</g>
		<g style="opacity:0.37;">
			<polygon points="233.018,162.003 209.48,183.188 209.48,196.125 
				233.018,174.939" style="opacity:0.49;fill:#FFFFFF;enable-background:new    ;"></polygon>
			<polyline points="210.28,173.376 222.918,162.003 210.28,162.003" style="opacity:0.49;fill:#FFFFFF;enable-background:new    ;"></polyline>
		</g>
		<rect height="110.099" width="3" style="fill:#CCCCDE;" y="39.445" x="155.893"></rect>
		<rect height="110.099" width="3" style="fill:#CCCCDE;" y="39.445" x="167.127"></rect>
		<rect height="110.099" width="3" style="fill:#CCCCDE;" y="39.445" x="178.079"></rect>
		<rect height="110.099" width="3" style="fill:#CCCCDE;" y="39.445" x="189.593"></rect>
		<rect height="110.099" width="3" style="fill:#CCCCDE;" y="39.445" x="200.545"></rect>
		<rect height="110.099" width="3" style="fill:#CCCCDE;" y="39.445" x="211.216"></rect>
		<rect height="110.099" width="3" style="fill:#CCCCDE;" y="39.445" x="221.888"></rect>
		<path d="M234.21,64.16h-88.036c-0.828,0-1.5-0.671-1.5-1.5s0.672-1.5,1.5-1.5h88.036
			c0.828,0,1.5,0.671,1.5,1.5S235.038,64.16,234.21,64.16z" style="fill:#CCCCDE;"></path>
		<path d="M234.21,86.625h-88.036c-0.828,0-1.5-0.671-1.5-1.5s0.672-1.5,1.5-1.5h88.036
			c0.828,0,1.5,0.671,1.5,1.5S235.038,86.625,234.21,86.625z" style="fill:#CCCCDE;"></path>
		<path d="M234.21,107.969h-88.036c-0.828,0-1.5-0.671-1.5-1.5s0.672-1.5,1.5-1.5h88.036
			c0.828,0,1.5,0.671,1.5,1.5S235.038,107.969,234.21,107.969z" style="fill:#CCCCDE;"></path>
		<rect height="3" width="88.036" style="fill:#CCCCDE;" y="126.311" x="146.174"></rect>
		<g>
			<rect height="42.618" width="8.981" style="fill:#F0F0FF;" y="157.719" x="170.592"></rect>
			<path d="M179.573,201.837h-8.981c-0.828,0-1.5-0.672-1.5-1.5v-42.618c0-0.828,0.672-1.5,1.5-1.5h8.981
				c0.828,0,1.5,0.672,1.5,1.5v42.618C181.073,201.165,180.402,201.837,179.573,201.837z M172.092,198.837h5.981v-39.618h-5.981
				V198.837z" style="fill:#CCCCDE;"></path>
		</g>
		<g>
			<rect height="44.562" width="8.425" style="fill:#F0F0FF;" y="155.773" x="200.5"></rect>
			<path d="M208.925,201.836H200.5c-0.828,0-1.5-0.672-1.5-1.5v-44.562c0-0.828,0.672-1.5,1.5-1.5h8.425
				c0.828,0,1.5,0.672,1.5,1.5v44.562C210.425,201.164,209.753,201.836,208.925,201.836z M202,198.836h5.425v-41.562H202V198.836z" style="fill:#CCCCDE;"></path>
		</g>
		<g>
			<rect height="12.459" width="88.036" style="fill:#F0F0FF;" y="149.544" x="146.174"></rect>
			<path d="M234.21,163.503h-88.036c-0.828,0-1.5-0.672-1.5-1.5v-12.459c0-0.828,0.672-1.5,1.5-1.5h88.036
				c0.828,0,1.5,0.672,1.5,1.5v12.459C235.71,162.831,235.038,163.503,234.21,163.503z M147.674,160.503h85.036v-9.459h-85.036
				V160.503z" style="fill:#CCCCDE;"></path>
		</g>
		<g>
			<rect height="7.509" width="29.486" style="fill:#EBEBF7;" y="14.078" x="175.319"></rect>
			<path d="M204.805,23.087h-29.486c-0.828,0-1.5-0.671-1.5-1.5v-7.509c0-0.829,0.672-1.5,1.5-1.5h29.486
				c0.828,0,1.5,0.671,1.5,1.5v7.509C206.305,22.416,205.633,23.087,204.805,23.087z M176.819,20.087h26.486v-4.509h-26.486V20.087z" style="fill:#CCCCDE;"></path>
		</g>
		<path d="M190.063,15.578c-0.828,0-1.5-0.671-1.5-1.5V1.826c0-0.829,0.672-1.5,1.5-1.5s1.5,0.671,1.5,1.5
			v12.252C191.563,14.907,190.891,15.578,190.063,15.578z" style="fill:#CCCCDE;"></path>
		<g>
			<rect height="8.706" width="114.727" style="fill:#F0F0FF;" y="196.051" x="133.373"></rect>
			<path d="M248.1,206.257H133.373c-0.828,0-1.5-0.672-1.5-1.5v-8.706c0-0.828,0.672-1.5,1.5-1.5H248.1
				c0.828,0,1.5,0.672,1.5,1.5v8.706C249.6,205.585,248.928,206.257,248.1,206.257z M134.873,203.257H246.6v-5.706H134.873V203.257z" style="fill:#CCCCDE;"></path>
		</g>
	</g>
	<g id="Layer_6_1_">
		<g>
			<polygon points="98.442,204.757 9.331,204.757 9.331,128.594 53.887,100.072 98.442,128.594" style="fill:#FFFFFF;"></polygon>
			<path d="M99.942,206.257H7.831v-78.484l46.056-29.481l46.055,29.481V206.257z M10.831,203.257h86.11
				v-73.842l-43.055-27.562l-43.056,27.562V203.257z" style="fill:#CCCCDE;"></path>
		</g>
		<g>
			<polygon points="53.887,95.235 1.5,127.083 1.5,132.32 9.331,132.32 53.887,104.815 98.321,132.684 
				105.193,132.791 105.193,127.083" style="fill:#E0E6FC;"></polygon>
			<path d="M105.193,134.291c-0.008,0-0.016,0-0.023,0l-6.872-0.107c-0.274-0.005-0.542-0.084-0.773-0.229
				l-43.643-27.373l-43.761,27.015c-0.237,0.146-0.51,0.224-0.788,0.224H1.5c-0.829,0-1.5-0.672-1.5-1.5v-5.237
				c0-0.523,0.273-1.01,0.721-1.281l52.387-31.849c0.482-0.293,1.09-0.291,1.57,0.007l51.306,31.848
				c0.441,0.273,0.709,0.756,0.709,1.274v5.708c0,0.402-0.161,0.787-0.448,1.069C105.964,134.137,105.586,134.291,105.193,134.291z
				 M98.763,131.19l4.93,0.077v-3.351L53.879,96.995L3,127.927v2.894h5.905l44.193-27.282c0.487-0.3,1.102-0.297,1.585,0.006
				L98.763,131.19z" style="fill:#CCCCDE;"></path>
		</g>
		<g>
			<rect height="19.961" width="30.25" style="fill:#D4EAFF;" y="166.613" x="17.744"></rect>
			<path d="M47.994,188.074h-30.25c-0.829,0-1.5-0.672-1.5-1.5v-19.961c0-0.828,0.671-1.5,1.5-1.5h30.25
				c0.829,0,1.5,0.672,1.5,1.5v19.961C49.494,187.402,48.823,188.074,47.994,188.074z M19.244,185.074h27.25v-16.961h-27.25V185.074
				z" style="fill:#CCCCDE;"></path>
		</g>
		<g>
			<rect height="12.131" width="89.108" style="fill:#FCEBE3;" y="192.626" x="9.331"></rect>
			<path d="M98.44,206.257H9.331c-0.829,0-1.5-0.672-1.5-1.5v-12.131c0-0.828,0.671-1.5,1.5-1.5H98.44
				c0.829,0,1.5,0.672,1.5,1.5v12.131C99.94,205.585,99.268,206.257,98.44,206.257z M10.831,203.257H96.94v-9.131H10.831V203.257z" style="fill:#CCCCDE;"></path>
		</g>
		<g>
			<path d="M49.257,204.757c0-0.022,0.004-0.045,0.004-0.069c0-3.756-2.626-6.801-5.865-6.801
				c-1.5,0-2.86,0.659-3.897,1.731c-0.81-4.466-4.221-7.817-8.311-7.817c-1.857,0-3.578,0.702-4.977,1.881
				c-1.759-2.806-4.604-4.638-7.822-4.638c-4.419,0-8.138,3.438-9.296,8.134c-0.435-0.111-0.884-0.177-1.348-0.177
				c-3.449,0-6.245,3.242-6.245,7.246c0,0.172,0.012,0.34,0.021,0.51H49.257L49.257,204.757z" style="fill:#CCE8D6;"></path>
			<path d="M49.257,206.257H1.521c-0.798,0-1.457-0.625-1.498-1.423C0.009,204.574,0,204.412,0,204.247
				c0-4.929,3.607-8.927,8.029-8.74c1.685-4.75,5.785-7.963,10.359-7.963c3.108,0,6.068,1.49,8.167,4.052
				c1.422-0.851,2.999-1.295,4.631-1.295c4.023,0,7.607,2.766,9.167,6.829c0.947-0.486,1.981-0.743,3.041-0.743
				c4.061,0,7.365,3.724,7.365,8.301c0,0.043-0.004,0.121-0.007,0.163C50.754,205.68,50.086,206.257,49.257,206.257z M3.071,203.257
				h44.543c-0.502-2.204-2.203-3.87-4.218-3.87c-1.312,0-2.257,0.693-2.819,1.274c-0.391,0.404-0.975,0.552-1.514,0.393
				c-0.539-0.164-0.94-0.614-1.041-1.168c-0.691-3.815-3.566-6.585-6.834-6.585c-1.438,0-2.824,0.528-4.01,1.527
				c-0.333,0.281-0.77,0.399-1.199,0.336c-0.429-0.067-0.808-0.317-1.039-0.686c-1.567-2.501-3.955-3.935-6.551-3.935
				c-3.6,0-6.824,2.876-7.839,6.993c-0.096,0.389-0.343,0.723-0.687,0.928c-0.344,0.206-0.755,0.266-1.142,0.166
				c-0.341-0.088-0.66-0.13-0.976-0.13C5.408,198.501,3.459,200.559,3.071,203.257z" style="fill:#CCCCDE;"></path>
		</g>
		<g>
			<rect height="38.145" width="23.24" style="fill:#FFDEDE;" y="166.613" x="61.471"></rect>
			<path d="M84.711,206.258h-23.24c-0.829,0-1.5-0.672-1.5-1.5v-38.145c0-0.828,0.671-1.5,1.5-1.5h23.24
				c0.829,0,1.5,0.672,1.5,1.5v38.145C86.211,205.586,85.54,206.258,84.711,206.258z M62.971,203.258h20.24v-35.145h-20.24V203.258z" style="fill:#CCCCDE;"></path>
		</g>
		<path d="M98.442,161.007H9.331c-0.829,0-1.5-0.672-1.5-1.5s0.671-1.5,1.5-1.5h89.11
			c0.829,0,1.5,0.672,1.5,1.5S99.27,161.007,98.442,161.007z" style="fill:#CCCCDE;"></path>
		<g>
			<g>
				<rect height="18.535" width="16.273" style="fill:#D4EAFF;" y="133.689" x="17.744"></rect>
				<path d="M34.018,153.725H17.744c-0.829,0-1.5-0.672-1.5-1.5v-18.535c0-0.828,0.671-1.5,1.5-1.5h16.273
					c0.829,0,1.5,0.672,1.5,1.5v18.535C35.518,153.053,34.846,153.725,34.018,153.725z M19.244,150.725h13.273v-15.535H19.244
					V150.725z" style="fill:#CCCCDE;"></path>
			</g>
			<path d="M34.021,144.457H17.744c-0.829,0-1.5-0.672-1.5-1.5s0.671-1.5,1.5-1.5h16.276
				c0.829,0,1.5,0.672,1.5,1.5S34.849,144.457,34.021,144.457z" style="fill:#CCCCDE;"></path>
		</g>
		<g>
			<g>
				<rect height="18.535" width="16.277" style="fill:#D4EAFF;" y="133.689" x="73.422"></rect>
				<path d="M89.699,153.725H73.422c-0.829,0-1.5-0.672-1.5-1.5v-18.535c0-0.828,0.671-1.5,1.5-1.5h16.277
					c0.829,0,1.5,0.672,1.5,1.5v18.535C91.199,153.053,90.528,153.725,89.699,153.725z M74.922,150.725h13.277v-15.535H74.922
					V150.725z" style="fill:#CCCCDE;"></path>
			</g>
			<path d="M89.699,144.457H73.422c-0.829,0-1.5-0.672-1.5-1.5s0.671-1.5,1.5-1.5h16.277
				c0.829,0,1.5,0.672,1.5,1.5S90.528,144.457,89.699,144.457z" style="fill:#CCCCDE;"></path>
		</g>
		<g>
			<g>
				<rect height="18.535" width="16.273" style="fill:#D4EAFF;" y="133.689" x="45.664"></rect>
				<path d="M61.938,153.725H45.664c-0.829,0-1.5-0.672-1.5-1.5v-18.535c0-0.828,0.671-1.5,1.5-1.5h16.273
					c0.829,0,1.5,0.672,1.5,1.5v18.535C63.438,153.053,62.766,153.725,61.938,153.725z M47.164,150.725h13.273v-15.535H47.164
					V150.725z" style="fill:#CCCCDE;"></path>
			</g>
			<path d="M61.941,144.457H45.664c-0.829,0-1.5-0.672-1.5-1.5s0.671-1.5,1.5-1.5h16.276
				c0.829,0,1.5,0.672,1.5,1.5S62.769,144.457,61.941,144.457z" style="fill:#CCCCDE;"></path>
		</g>
		<path d="M32.906,188.074c-0.829,0-1.5-0.672-1.5-1.5v-19.961c0-0.828,0.671-1.5,1.5-1.5s1.5,0.672,1.5,1.5
			v19.961C34.406,187.402,33.735,188.074,32.906,188.074z" style="fill:#CCCCDE;"></path>
		<g>
			<rect height="4.354" width="29.53" style="fill:#F0F0FF;" y="200.4" x="58.325"></rect>
			<path d="M87.856,206.255h-29.53c-0.829,0-1.5-0.672-1.5-1.5V200.4c0-0.828,0.671-1.5,1.5-1.5h29.53
				c0.829,0,1.5,0.672,1.5,1.5v4.354C89.356,205.583,88.684,206.255,87.856,206.255z M59.825,203.255h26.53V201.9h-26.53V203.255z" style="fill:#CCCCDE;"></path>
		</g>
		<g>
			<path d="M111.875,204.757c0-0.017,0.003-0.03,0.003-0.047c0-2.513-1.756-4.549-3.924-4.549
				c-1.002,0-1.916,0.44-2.609,1.157c-0.539-2.985-2.82-5.229-5.556-5.229c-1.244,0-2.396,0.472-3.328,1.259
				c-1.176-1.877-3.079-3.103-5.231-3.103c-2.955,0-5.439,2.301-6.217,5.438c-0.291-0.074-0.592-0.115-0.901-0.115
				c-2.308,0-4.177,2.168-4.177,4.846c0,0.113,0.007,0.229,0.019,0.342L111.875,204.757L111.875,204.757z" style="fill:#CCE8D6;"></path>
			<path d="M111.875,206.257L111.875,206.257l-31.922-0.001c-0.769,0-1.413-0.581-1.492-1.346
				c-0.017-0.164-0.026-0.332-0.026-0.496c0-3.441,2.464-6.252,5.523-6.344c1.269-3.19,4.111-5.325,7.271-5.325
				c2.098,0,4.098,0.941,5.574,2.575c0.93-0.481,1.94-0.731,2.985-0.731c2.736,0,5.187,1.763,6.391,4.404
				c0.565-0.219,1.164-0.332,1.774-0.332c2.991,0,5.424,2.714,5.424,6.049c0,0.036-0.002,0.084-0.005,0.127
				c-0.02,0.368-0.175,0.718-0.438,0.98C112.655,206.099,112.273,206.257,111.875,206.257z M81.6,203.256l28.484,0.001
				c-0.411-0.95-1.212-1.596-2.13-1.596c-0.706,0-1.222,0.381-1.531,0.7c-0.392,0.404-0.977,0.553-1.514,0.393
				c-0.539-0.164-0.94-0.615-1.04-1.169c-0.418-2.315-2.134-3.996-4.08-3.996c-0.843,0-1.659,0.312-2.361,0.905
				c-0.333,0.28-0.769,0.4-1.199,0.336c-0.429-0.067-0.809-0.317-1.039-0.687c-0.955-1.524-2.398-2.398-3.96-2.398
				c-2.176,0-4.134,1.768-4.761,4.299c-0.096,0.389-0.343,0.722-0.686,0.927c-0.343,0.206-0.753,0.267-1.141,0.166
				C83.277,200.795,82.035,201.788,81.6,203.256z" style="fill:#CCCCDE;"></path>
		</g>
		<path d="M65.345,187.375c-0.829,0-1.5-0.672-1.5-1.5v-4.84c0-0.828,0.671-1.5,1.5-1.5s1.5,0.672,1.5,1.5
			v4.84C66.845,186.703,66.174,187.375,65.345,187.375z" style="fill:#CCCCDE;"></path>
	</g>
</g>
<polygon points="30.971,149.607 13.971,234.607 240.972,234.607 225.972,149.607" style="fill:#ACDFF5;"></polygon>
<g style="opacity:0.31;enable-background:new    ;">
	<path d="M123.49,234.607c0,0,8.866-26.984,33.5-26.984c24.631,0,64.045-11.244,70.771-47.872l-1.79-10.144
		h-24.479c0,0,2.758,22.271-17,29.516c-19.761,7.243-73.44,21.969-73.44,55.484H123.49L123.49,234.607z" style="fill:#FFF2B5;"></path>
</g>
<path d="M115.656,234.607c0,0,4-31.983,48.002-36.65c44-4.667,52-26.667,52-26.667
	s4.312-15.683,10.312-21.683h-195l-17,85H115.656L115.656,234.607z" style="fill:#FFF2B5;"></path>
<path d="M163.656,197.957c44-4.667,52-26.667,52-26.667s4.312-15.683,10.312-21.683h-5.481
	c0,0-9.5,8.016-14,21.683s-39.75,22.583-64.5,27.333s-30.938,35.984-30.938,35.984h4.604
	C115.656,234.607,119.656,202.624,163.656,197.957z" style="fill:#FFE6B5;"></path>
<path d="M43.656,234.607c0,0,10.594-18.926,30-25.317c19.407-6.392,74.199-19.524,86.047-14.483l16.479-4.582
	c0,0-12.189-5.602-16.522-5.602c0,0,32.333-14.698,38.333-35.016l-6.316,1.535c0,0-24.486,37.899-90.084,43.688
	c0,0-19.069,3.835-34.833,10.646c0,0-2.575-10,9.234-15.521c11.811-5.521,23.833-10.983,24.668-25.666c0,0,12.332-6.03,16-14.684
	h-5.668c0,0-18.539,16.684-41.938,19.017c0,0-8.923,0.753-16.327,19.71c0,0-9.402,13.33-33.735,20.145l-1.032,6.207
	c0,0,34.188-10.24,43.699-31.729c0,0,4.184-12.539,32.926-16.604c0,0-2.679,12.213-20.135,18.209
	c-17.457,5.996-15.042,21.144-13.791,22.395S41.99,222.258,38.99,234.607H43.656z" style="fill:#FFE6B5;"></path>
<path d="M19.136,208.785c0,0,19.188-6.161,27.854-14.828c8.664-8.667,10.103-23.855,20.667-25.334
	c33.333-4.666,43.333-19.016,43.333-19.016H30.97L19.136,208.785z" style="fill:#BDE39F;"></path>
<path d="M80.721,161.29c-16.113,0.464-29,15.666-35,26.333S24.053,200.29,24.053,200.29l-2.6,8.187
	c3.913-1.344,19.396-6.98,26.934-14.52c8.667-8.667,10.104-23.855,20.666-25.334c15.105-2.114,25.406-6.217,32.169-10.07
	l7.722-5.384c2.437-2.116,3.444-3.562,3.444-3.562h-11.667C100.721,149.607,96.834,160.826,80.721,161.29z" style="fill:#B2D696;"></path>
<path d="M40.449,234.957l-2.917-0.699c0.323-1.347,8.557-33.069,65.248-41.12
	c36.307-5.157,78.528-19.445,88.146-44.076l2.795,1.092c-10.088,25.834-53.374,40.678-90.52,45.955
	C48.511,203.875,40.524,234.647,40.449,234.957z" style="fill:#DEC99E;"></path>
<path d="M175.19,197.701c-0.322,0-0.646-0.104-0.921-0.316c-18.96-14.769-50.78-5.088-51.101-4.988
	c-0.789,0.249-1.632-0.194-1.878-0.985s0.195-1.632,0.986-1.878c0.34-0.106,8.466-2.608,19.169-3.23
	c14.281-0.838,26.28,2.183,34.668,8.715c0.653,0.51,0.771,1.452,0.262,2.105C176.078,197.503,175.636,197.701,175.19,197.701z" style="fill:#DEC99E;"></path>
<path d="M60.706,210.463c-0.598,0-1.162-0.359-1.396-0.948c-1.84-4.655-1.585-9.552,0.737-14.16
	c3.317-6.583,10.445-11.751,19.555-14.181c5.712-1.523,9.853-5.367,12.309-11.424c1.885-4.65,2.023-8.921,2.024-8.963
	c0.023-0.827,0.701-1.502,1.539-1.459c0.827,0.021,1.481,0.708,1.46,1.536c-0.005,0.188-0.658,18.968-16.559,23.208
	c-8.284,2.209-14.717,6.813-17.65,12.633c-1.926,3.822-2.143,7.87-0.626,11.706c0.305,0.771-0.073,1.642-0.843,1.946
	C61.076,210.43,60.889,210.463,60.706,210.463z" style="fill:#DEC99E;"></path>
<g>
	<g>
		<polygon points="47.449,169.125 52.721,161.579 59.031,169.125" style="fill:#F0F0FF;"></polygon>
		<path d="M59.052,170.625c-0.006-0.001-0.013,0-0.02,0H47.449c-0.559,0-1.072-0.311-1.33-0.807
			s-0.22-1.094,0.101-1.553l5.271-7.546c0.267-0.383,0.698-0.619,1.165-0.64c0.474-0.012,0.916,0.179,1.216,0.537l6.181,7.392
			c0.306,0.274,0.499,0.673,0.499,1.116C60.552,169.953,59.88,170.625,59.052,170.625z M50.327,167.625h5.495l-2.994-3.58
			L50.327,167.625z" style="fill:#6E6E96;"></path>
	</g>
	<g>
		<polygon points="38.281,169.125 44.906,159.643 52.835,169.125" style="fill:#F0F0FF;"></polygon>
		<path d="M52.855,170.625c-0.007-0.001-0.014,0-0.02,0H38.281c-0.559,0-1.072-0.311-1.33-0.807
			s-0.22-1.094,0.101-1.553l6.625-9.482c0.268-0.383,0.698-0.619,1.165-0.64c0.481-0.019,0.917,0.179,1.216,0.537l7.799,9.328
			c0.306,0.274,0.499,0.673,0.499,1.116C54.355,169.953,53.684,170.625,52.855,170.625z M41.159,167.625h8.466l-4.612-5.517
			L41.159,167.625z" style="fill:#6E6E96;"></path>
	</g>
	<g style="opacity:0.1;enable-background:new    ;">
		<polygon points="44.906,159.643 49.015,167.37 44.882,164.125 46.865,167.686 40.748,168.289 
			43.84,161.169 38.281,169.125 52.78,169.057" style="fill:#6E6E96;"></polygon>
		<path d="M37.319,169.63l6.111-8.747l0.868,0.485l-2.753,6.34l4.511-0.445l-1.612-2.895l0.746-0.637
			l2.272,1.784l-2.998-5.639l0.825-0.555l8.555,10.229L37.319,169.63z M41.398,165.537l-2.154,3.083l0.817-0.004L41.398,165.537z
			 M46.528,166.053l1.145,2.056l-5.028,0.496l9.07-0.043l-4.115-4.921l1.858,3.495l-0.75,0.628L46.528,166.053z" style="fill:#6E6E96;"></path>
	</g>
</g>
<g>
	<path d="M184.983,210.43c-3.587,0-6.506-2.919-6.506-6.506c0-0.828,0.672-1.5,1.5-1.5s1.5,0.672,1.5,1.5
		c0,1.934,1.572,3.506,3.506,3.506c1.935,0,3.508-1.572,3.508-3.506c0-0.828,0.672-1.5,1.5-1.5s1.5,0.672,1.5,1.5
		C191.49,207.511,188.572,210.43,184.983,210.43z" style="fill:#6E6E96;"></path>
	<path d="M184.985,209.62c-0.828,0-1.5-0.672-1.5-1.5v-10.779c0-0.828,0.672-1.5,1.5-1.5s1.5,0.672,1.5,1.5
		v10.779C186.485,208.948,185.813,209.62,184.985,209.62z" style="fill:#6E6E96;"></path>
	<path d="M188.02,201.874h-6.069c-0.828,0-1.5-0.672-1.5-1.5s0.672-1.5,1.5-1.5h6.069
		c0.828,0,1.5,0.672,1.5,1.5S188.848,201.874,188.02,201.874z" style="fill:#6E6E96;"></path>
</g>
<g>
	<g>
		<path d="M97.64,204.361c0,3.537-2.049,6.404-4.575,6.404c-2.524,0-4.572-2.867-4.572-6.404
			c0-3.536,2.048-9.334,4.572-9.334C95.591,195.027,97.64,200.825,97.64,204.361z" style="fill:#B9FF5F;"></path>
		<path d="M93.065,212.266c-3.405,0-6.072-3.472-6.072-7.904c0-3.677,2.143-10.834,6.072-10.834
			c3.931,0,6.075,7.157,6.075,10.834C99.14,208.794,96.471,212.266,93.065,212.266z M93.065,196.527
			c-1.016,0-3.072,4.309-3.072,7.834c0,2.658,1.407,4.904,3.072,4.904c1.667,0,3.075-2.246,3.075-4.904
			C96.14,200.836,94.081,196.527,93.065,196.527z" style="fill:#6E6E96;"></path>
	</g>
	<path d="M93.065,218.123c-0.829,0-1.5-0.672-1.5-1.5v-5.857c0-0.828,0.671-1.5,1.5-1.5s1.5,0.672,1.5,1.5
		v5.857C94.565,217.451,93.893,218.123,93.065,218.123z" style="fill:#6E6E96;"></path>
</g>
<g>
	<g>
		<path d="M166.757,167.35c0,2.451-1.42,4.438-3.172,4.438c-1.751,0-3.171-1.987-3.171-4.438
			s1.42-6.471,3.171-6.471C165.337,160.879,166.757,164.898,166.757,167.35z" style="fill:#B9FF5F;"></path>
		<path d="M163.585,173.288c-2.619,0-4.671-2.608-4.671-5.938c0-2.781,1.604-7.971,4.671-7.971
			c3.067,0,4.672,5.189,4.672,7.971C168.257,170.68,166.205,173.288,163.585,173.288z M163.585,162.422
			c-0.646,0.479-1.671,2.944-1.671,4.928c0,1.682,0.882,2.938,1.671,2.938s1.672-1.257,1.672-2.938
			C165.257,165.366,164.232,162.9,163.585,162.422z" style="fill:#6E6E96;"></path>
	</g>
	<path d="M163.585,177.348c-0.828,0-1.5-0.672-1.5-1.5v-4.059c0-0.828,0.672-1.5,1.5-1.5s1.5,0.672,1.5,1.5
		v4.059C165.085,176.676,164.413,177.348,163.585,177.348z" style="fill:#6E6E96;"></path>
</g>
<path d="M240.972,236.107H13.971c-0.449,0-0.875-0.201-1.16-0.549c-0.285-0.348-0.399-0.805-0.311-1.245
	l17-85c0.14-0.701,0.756-1.206,1.471-1.206h195.001c0.728,0,1.351,0.522,1.478,1.239l15,85c0.077,0.437-0.043,0.885-0.328,1.225
	S241.415,236.107,240.972,236.107z M15.801,233.107h223.383l-14.471-82H32.2L15.801,233.107z" style="fill:#6E6E96;"></path>
<g style="opacity:0.25;enable-background:new    ;">
	<path d="M96.656,218.123h-7.333c-0.829,0-1.5-0.672-1.5-1.5s0.671-1.5,1.5-1.5h7.333
		c0.829,0,1.5,0.672,1.5,1.5S97.485,218.123,96.656,218.123z" style="fill:#6E6E96;"></path>
</g>
<g style="opacity:0.15;enable-background:new    ;">
	<polygon points="15.371,227.623 13.971,234.623 240.972,234.623 239.737,227.623" style="fill:#6E6E96;"></polygon>
</g>
<g>
	<path d="M55.157,36.401c0-0.091,0.007-0.181,0.007-0.272c0-9.552-8.43-17.296-18.824-17.296
		c-8.947,0-16.438,5.742-18.344,13.436c-0.294-0.023-0.594-0.037-0.894-0.037c-6.185,0-11.193,4.606-11.193,10.29
		c0,1.218,0.23,2.386,0.652,3.47c-1.73,2.253-2.758,5.005-2.758,7.977c0,7.532,6.555,13.653,14.709,13.817v0.007h28.921
		c9.911,0,17.947-7.384,17.947-16.496C65.385,44.724,61.205,39.054,55.157,36.401z" style="fill:#FFFFFF;"></path>
	<path d="M47.434,69.293H18.513c-0.062,0-0.122-0.004-0.181-0.011C9.48,69.029,2.304,62.188,2.304,53.969
		c0-2.935,0.891-5.762,2.585-8.226c-0.318-1.044-0.479-2.124-0.479-3.221c0-6.43,5.57-11.674,12.464-11.788
		c2.548-7.95,10.375-13.401,19.466-13.401c10.959,0,19.92,8.063,20.311,18.112c6.25,3.119,10.234,9.243,10.23,15.853
		C66.881,61.22,58.157,69.293,47.434,69.293z M18.657,66.293h28.777c9.069,0,16.447-6.727,16.447-14.996
		c0.003-5.729-3.657-11.036-9.326-13.522c-0.545-0.239-0.897-0.778-0.897-1.374l0.004-0.192c0.002-8.79-7.769-15.875-17.322-15.875
		c-8.021,0-15.123,5.171-16.888,12.296c-0.177,0.712-0.841,1.191-1.573,1.135c-0.255-0.02-0.516-0.033-0.777-0.033
		c-5.345,0-9.693,3.943-9.693,8.79c0,1.003,0.185,1.988,0.55,2.926c0.19,0.489,0.111,1.042-0.208,1.458
		c-1.601,2.084-2.447,4.527-2.447,7.063c0,6.645,5.939,12.171,13.239,12.318C18.581,66.287,18.619,66.29,18.657,66.293z" style="fill:#CCCCDE;"></path>
</g>
<g style="opacity:0.1;enable-background:new    ;">
	<path d="M199.99,227.623c0,0,40.185,2.464,34.978-27.042l4.77,27.042H199.99z" style="fill:#6E6E96;"></path>
</g>
<g style="opacity:0.05;enable-background:new    ;">
	<path d="M168.99,227.623c0,0,7-12,26.5-12s36.843-9.945,36.843-29.973l7.401,41.973H168.99z" style="fill:#6E6E96;"></path>
</g>
<g>
	<path d="M214.592,108.06c0-0.064,0.005-0.128,0.005-0.192c0-6.768-5.971-12.254-13.337-12.254
		c-6.339,0-11.646,4.068-12.997,9.521c-0.208-0.016-0.419-0.026-0.631-0.026c-4.382,0-7.933,3.263-7.933,7.291
		c0,0.863,0.163,1.691,0.464,2.459c-1.229,1.596-1.954,3.546-1.954,5.651c0,5.336,4.645,9.672,10.422,9.79v0.007h20.49
		c7.021,0,12.716-5.232,12.716-11.689C221.838,113.958,218.877,109.94,214.592,108.06z" style="fill:#FFFFFF;"></path>
	<path d="M209.121,131.807h-20.49c-0.062,0-0.124-0.004-0.185-0.011c-6.486-0.21-11.737-5.242-11.737-11.286
		c0-2.104,0.616-4.128,1.791-5.902c-0.2-0.717-0.301-1.457-0.301-2.208c0-4.696,3.972-8.544,8.949-8.78
		c1.961-5.653,7.592-9.506,14.111-9.506c7.906,0,14.388,5.762,14.814,12.994c4.443,2.317,7.264,6.739,7.263,11.509
		C223.337,125.89,216.96,131.807,209.121,131.807z M188.775,128.807h20.347c6.185,0,11.216-4.571,11.216-10.189
		c0.001-3.887-2.491-7.492-6.348-9.184c-0.545-0.239-0.897-0.778-0.897-1.374c0-0.019,0.003-0.134,0.004-0.153
		c0.001-5.968-5.309-10.792-11.836-10.792c-5.483,0-10.337,3.525-11.541,8.381c-0.177,0.711-0.852,1.185-1.568,1.135
		c-0.171-0.013-0.345-0.021-0.519-0.021c-3.547,0-6.433,2.598-6.433,5.791c0,0.658,0.121,1.301,0.36,1.912
		c0.192,0.49,0.113,1.045-0.208,1.462c-1.074,1.395-1.643,3.032-1.643,4.735c0,4.471,4.016,8.189,8.952,8.29
		C188.699,128.801,188.738,128.803,188.775,128.807z" style="fill:#CCCCDE;"></path>
</g>
<g>
	<g>
		<polyline points="118.041,140.396 208.161,100.069 117.423,60.062" style="fill:#FF9EB0;"></polyline>
		<polygon points="118.654,141.766 117.428,139.027 204.466,100.079 116.818,61.435 118.028,58.689 
			211.857,100.059" style="fill:#6E6E96;"></polygon>
	</g>
	<path d="M119.423,65.341" style="fill:#3399CC;"></path>
	<polygon points="118.53,138.545 118.53,62.162 126.795,65.806 
		126.795,134.843" style="opacity:0.15;fill:#963C3C;enable-background:new    ;"></polygon>
	<path d="M117.487,190.953c-0.829,0-1.5-0.672-1.5-1.5V50.071c0-0.829,0.671-1.5,1.5-1.5s1.5,0.671,1.5,1.5
		v139.382C118.987,190.281,118.315,190.953,117.487,190.953z" style="fill:#6E6E96;"></path>
</g>
</svg>
