<svg xml:space="preserve" style="enable-background:new 0 0 256.986 243.604;" viewBox="0 0 256.986 243.604" height="243.604px" width="256.986px" y="0px" x="0px" xmlns:xlink="http://www.w3.org/1999/xlink" xmlns="http://www.w3.org/2000/svg" id="Layer_1" version="1.1">
<g id="Layer_1_1_">
	<g style="display:none;" id="Layer_3_1_">
		<g style="display:inline;">
			<path d="M83.635,136.49c0-11.563-10.059-20.938-22.467-20.938
				c-0.192,0-0.385,0.01-0.576,0.015c-3.917-6.135-11.102-10.244-19.316-10.244c-12.407,0-22.469,9.371-22.469,20.936
				c0,0.149,0.009,0.298,0.012,0.447c-6.783,3.603-11.363,10.396-11.363,18.195c0,11.563,10.061,20.936,22.468,20.936
				c0.705,0,1.403-0.032,2.094-0.095c4.122,4.648,10.356,7.616,17.335,7.616c11.471,0,20.925-8.011,22.293-18.352
				C78.771,151.5,83.635,144.527,83.635,136.49z" style="fill:#D7F7E4;stroke:#CCCCDE;stroke-width:3;"></path>
			<path d="M60.789,114.799c-0.191,0-0.386,0.011-0.575,0.016
				c-3.141-4.918-8.383-8.533-14.571-9.773c4.896,1.229,9.021,4.208,11.56,8.175c0.163-0.004,2.416,3.887,2.583,3.887
				c10.646,0,15.601,5.737,15.601,15.659c0,6.896-2.582,11.29-8.702,14.302c-1.175,8.875-9.287,15.747-19.13,15.747
				c-5.989,0-11.341-2.543-14.878-6.529c-0.591,0.05-1.188,0.075-1.794,0.075c-10.647,0-19.013-5.048-19.013-14.968
				c0-6.683,2.988-9.974,8.432-13.938c-0.146-0.854-0.75-8.421,1.269-10.438c4.792-4.794,6.963-8.908,11.25-11.038
				c-8.414,3.024-14.385,10.627-14.385,19.534c0,0.147,0.009,0.3,0.012,0.447C11.657,129.559,7.08,136.351,7.08,144.15
				c0,11.563,10.061,20.938,22.468,20.938c0.707,0,1.401-0.034,2.095-0.099c4.121,4.646,10.354,7.616,17.336,7.616
				c11.469,0,20.924-8.013,22.291-18.354c7.133-3.506,11.997-10.479,11.997-18.521C83.258,124.172,73.199,114.799,60.789,114.799z" style="opacity:0.1;fill:#6E6E96;enable-background:new    ;"></path>
			<path d="M28.811,147.812c0,0,11.635,2.275,11.635,13.661
				c0,0,3.134,19.343-8.976,33.026h27.96c-0.277-0.389-24.424-32.646,2.447-51.814C45.491,152.053,28.811,147.812,28.811,147.812z" style="fill:#EDE3DA;stroke:#CCCCDE;stroke-width:3;"></path>
			<g>
				<path d="M36.178,124.971" style="fill:#D57E58;"></path>
			</g>
			<path d="M54.904,147.781c0,0-17.652,22.793-4.085,46.722h8.611
				C59.43,194.5,41.515,169.463,54.904,147.781z" style="opacity:0.11;fill:#6E6E96;enable-background:new    ;"></path>
		</g>
		<g style="display:inline;">
			<path d="M253.475,135.206c0-10.828-9.42-19.604-21.04-19.604
				c-0.185,0-0.358,0.008-0.539,0.014c-3.669-5.743-10.396-9.596-18.091-9.596c-11.62,0-21.041,8.775-21.041,19.604
				c0,0.142,0.009,0.277,0.012,0.418c-6.354,3.375-10.646,9.739-10.646,17.043c0,10.826,9.422,19.604,21.04,19.604
				c0.66,0,1.313-0.032,1.96-0.091c3.858,4.354,9.698,7.136,16.233,7.136c10.736,0,19.596-7.5,20.875-17.188
				C248.92,149.262,253.475,142.734,253.475,135.206z" style="fill:#D7F7E4;stroke:#CCCCDE;stroke-width:3;"></path>
			<path d="M232.081,114.896c-0.186,0-0.356,0.009-0.539,0.014
				c-2.938-4.605-7.854-7.992-13.646-9.154c4.586,1.149,8.449,3.938,10.82,7.655c0.154-0.005,2.265,3.639,2.421,3.639
				c9.971,0,14.606,5.374,14.606,14.664c0,6.459-2.42,10.574-8.146,13.396c-1.102,8.312-8.698,14.741-17.914,14.741
				c-5.605,0-10.619-2.381-13.936-6.116c-0.559,0.048-1.11,0.071-1.684,0.071c-9.977,0-17.808-4.728-17.808-14.017
				c0-6.259,2.802-9.341,7.896-13.057c-0.14-0.809-0.701-7.887,1.188-9.771c4.485-4.487,6.521-8.343,10.534-10.337
				c-7.879,2.833-13.471,9.952-13.471,18.291c0,0.14,0.006,0.273,0.012,0.418c-6.354,3.373-10.646,9.734-10.646,17.041
				c0,10.823,9.421,19.604,21.041,19.604c0.661,0,1.312-0.033,1.959-0.091c3.857,4.354,9.698,7.136,16.232,7.136
				c10.739,0,19.596-7.5,20.875-17.188c6.682-3.285,11.229-9.813,11.229-17.342C253.122,123.672,243.702,114.896,232.081,114.896z" style="opacity:0.1;fill:#6E6E96;enable-background:new    ;"></path>
			<path d="M202.135,145.807c0,0,10.896,2.134,10.896,12.798
				c0,0,2.936,18.107-8.404,30.93h26.186c-0.262-0.359-22.87-30.565,2.294-48.521C217.754,149.781,202.135,145.807,202.135,145.807z" style="fill:#EDE3DA;stroke:#CCCCDE;stroke-width:3;"></path>
			<g>
				<path d="M209.036,124.422" style="fill:#D57E58;"></path>
			</g>
			<path d="M226.57,145.781c0,0-16.529,21.345-3.822,43.752h8.063
				C230.808,189.531,214.032,166.084,226.57,145.781z" style="opacity:0.11;fill:#6E6E96;enable-background:new    ;"></path>
		</g>
		<g style="display:inline;">
			<path d="M216.772,136.965c0-16.62-14.461-30.094-32.299-30.094
				c-0.278,0-0.556,0.012-0.828,0.02c-5.632-8.814-15.959-14.729-27.771-14.729c-17.838,0-32.301,13.476-32.301,30.096
				c0,0.216,0.014,0.43,0.018,0.646c-9.755,5.182-16.339,14.943-16.339,26.155c0,16.62,14.462,30.099,32.302,30.099
				c1.014,0,2.018-0.05,3.008-0.14c5.926,6.688,14.891,10.95,24.921,10.95c16.489,0,30.081-11.515,32.048-26.38
				C209.782,158.547,216.772,148.519,216.772,136.965z" style="fill:#D7F7E4;stroke:#CCCCDE;stroke-width:3;"></path>
			<path d="M183.931,105.788c-0.276,0-0.554,0.012-0.827,0.02
				c-4.518-7.069-12.051-12.27-20.949-14.053c7.041,1.768,12.973,6.05,16.614,11.751c0.235-0.006,3.476,5.586,3.713,5.586
				c15.31,0,22.431,8.248,22.431,22.513c0,9.913-3.717,16.23-12.515,20.563c-1.688,12.754-13.354,22.636-27.5,22.636
				c-8.608,0-16.302-3.655-21.388-9.396c-0.852,0.068-1.711,0.111-2.579,0.111c-15.312,0-27.332-7.255-27.332-21.518
				c0-9.604,4.298-14.336,12.119-20.039c-0.21-1.232-1.076-12.104,1.819-15.002c6.892-6.892,10.011-12.81,16.174-15.867
				c-12.096,4.35-20.679,15.276-20.679,28.079c0,0.216,0.011,0.43,0.017,0.646c-9.756,5.179-16.34,14.946-16.34,26.156
				c0,16.62,14.461,30.099,32.301,30.099c1.018,0,2.018-0.05,3.009-0.138c5.925,6.688,14.892,10.948,24.922,10.948
				c16.486,0,30.078-11.515,32.046-26.38c10.256-5.043,17.244-15.068,17.244-26.623C216.23,119.26,201.77,105.788,183.931,105.788z" style="opacity:0.1;fill:#6E6E96;enable-background:new    ;"></path>
			<path d="M137.959,153.243c0,0,16.729,3.271,16.729,19.644
				c0,0,4.504,27.808-12.902,47.479h40.193c-0.396-0.559-35.105-46.923,3.521-74.483
				C161.938,159.342,137.959,153.243,137.959,153.243z" style="fill:#EDE3DA;stroke:#CCCCDE;stroke-width:3;"></path>
			<g>
				<path d="M148.552,120.412" style="fill:#D57E58;"></path>
			</g>
			<path d="M175.472,153.198c0,0-25.38,32.767-5.873,67.164h12.378
				C181.977,220.364,156.223,184.37,175.472,153.198z" style="opacity:0.11;fill:#6E6E96;enable-background:new    ;"></path>
		</g>
		<g style="display:inline;">
			<path d="M144.936,138.077c0-13.646-11.873-24.707-26.519-24.707
				c-0.229,0-0.454,0.01-0.682,0.017c-4.622-7.238-13.104-12.093-22.8-12.093c-14.646,0-26.52,11.062-26.52,24.706
				c0,0.179,0.014,0.354,0.017,0.527c-8.012,4.253-13.414,12.271-13.414,21.479c0,13.646,11.872,24.707,26.52,24.707
				c0.832,0,1.653-0.041,2.469-0.104c4.864,5.482,12.226,8.982,20.461,8.982c13.536,0,24.694-9.45,26.31-21.65
				C139.195,155.795,144.936,147.564,144.936,138.077z" style="fill:#D7F7E4;stroke:#CCCCDE;stroke-width:3;"></path>
			<path d="M117.973,112.482c-0.229,0-0.452,0.011-0.681,0.017
				c-3.707-5.807-9.896-10.072-17.197-11.537c5.778,1.45,10.646,4.967,13.641,9.646c0.194-0.005,2.853,4.586,3.05,4.586
				c12.565,0,18.414,6.771,18.414,18.479c0,8.141-3.052,13.326-10.271,16.882c-1.386,10.474-10.963,18.584-22.576,18.584
				c-7.067,0-13.386-3.005-17.561-7.716c-0.696,0.062-1.402,0.098-2.118,0.098c-12.566,0-22.438-5.957-22.438-17.664
				c0-7.886,3.528-11.771,9.949-16.45c-0.171-1.018-0.885-9.938,1.496-12.315c5.653-5.656,8.218-10.516,13.275-13.026
				c-9.932,3.569-16.979,12.542-16.979,23.056c0,0.176,0.012,0.352,0.017,0.524c-8.013,4.25-13.415,12.271-13.415,21.479
				c0,13.646,11.873,24.707,26.52,24.707c0.834,0,1.653-0.041,2.469-0.109c4.864,5.488,12.226,8.988,20.461,8.988
				c13.536,0,24.693-9.451,26.312-21.656c8.419-4.141,14.158-12.37,14.158-21.854C144.491,123.543,132.618,112.482,117.973,112.482z" style="opacity:0.1;fill:#6E6E96;enable-background:new    ;"></path>
			<path d="M80.231,151.441c0,0,13.729,2.688,13.729,16.129
				c0,0,3.697,22.822-10.595,38.979h33c-0.328-0.455-28.824-38.521,2.89-61.15C99.918,156.448,80.231,151.441,80.231,151.441z" style="fill:#EDE3DA;stroke:#CCCCDE;stroke-width:3;"></path>
			<g>
				<path d="M88.928,124.489" style="fill:#D57E58;"></path>
			</g>
			<path d="M111.027,151.406c0,0-20.835,26.896-4.819,55.142h10.162
				C116.369,206.545,95.225,176.995,111.027,151.406z" style="opacity:0.11;fill:#6E6E96;enable-background:new    ;"></path>
		</g>
		<g style="display:inline;">
			<path d="M252.159,162.213c0-12.344-10.74-22.351-23.988-22.351
				c-0.202,0-0.404,0.009-0.608,0.015c-4.188-6.549-11.854-10.938-20.625-10.938c-13.248,0-23.983,10.009-23.983,22.352
				c0,0.162,0.012,0.316,0.014,0.479c-7.242,3.852-12.135,11.104-12.135,19.434c0,12.348,10.734,22.354,23.983,22.354
				c0.753,0,1.497-0.039,2.229-0.104c4.398,4.969,11.063,8.135,18.514,8.135c12.243,0,22.339-8.554,23.799-19.592
				C246.965,178.24,252.159,170.795,252.159,162.213z" style="fill:#D7F7E4;stroke:#CCCCDE;stroke-width:3;"></path>
			<path d="M227.767,139.057c-0.206,0-0.409,0.014-0.614,0.018
				c-3.354-5.25-8.947-9.11-15.558-10.438c5.229,1.313,9.633,4.491,12.339,8.729c0.175-0.005,2.579,4.146,2.757,4.146
				c11.368,0,16.655,6.123,16.655,16.72c0,7.36-2.759,12.057-9.291,15.271c-1.252,9.474-9.915,16.812-20.425,16.812
				c-6.396,0-12.104-2.722-15.884-6.979c-0.631,0.056-1.271,0.086-1.916,0.086c-11.368,0-20.299-5.389-20.299-15.979
				c0-7.136,3.188-10.646,9.002-14.886c-0.156-0.918-0.806-8.984,1.354-11.142c5.114-5.117,7.437-9.516,12.011-11.785
				c-8.979,3.229-15.355,11.348-15.355,20.854c0,0.158,0.015,0.314,0.019,0.479c-7.246,3.848-12.14,11.104-12.14,19.43
				c0,12.345,10.738,22.354,23.988,22.354c0.754,0,1.494-0.035,2.229-0.104c4.399,4.967,11.062,8.133,18.509,8.133
				c12.245,0,22.338-8.554,23.801-19.593c7.613-3.741,12.813-11.188,12.813-19.771C251.754,149.066,241.016,139.057,227.767,139.057
				z" style="opacity:0.1;fill:#6E6E96;enable-background:new    ;"></path>
			<path d="M193.625,174.302c0,0,12.422,2.433,12.422,14.588
				c0,0,3.347,20.646-9.584,35.261h29.854c-0.296-0.409-26.071-34.849,2.615-55.316
				C211.435,178.833,193.625,174.302,193.625,174.302z" style="fill:#EDE3DA;stroke:#CCCCDE;stroke-width:3;"></path>
			<g>
				<path d="M201.493,149.92" style="fill:#D57E58;"></path>
			</g>
			<path d="M221.484,174.269c0,0-18.847,24.334-4.359,49.881h9.19
				C226.315,224.15,207.188,197.418,221.484,174.269z" style="opacity:0.11;fill:#6E6E96;enable-background:new    ;"></path>
		</g>
		<g style="display:inline;">
			<path d="M87.893,160.364c0-13.11-11.408-23.737-25.479-23.737
				c-0.222,0-0.438,0.008-0.651,0.015c-4.443-6.954-12.591-11.611-21.907-11.611c-14.069,0-25.479,10.629-25.479,23.734
				c0,0.17,0.013,0.336,0.017,0.507C6.693,153.353,1.5,161.062,1.5,169.906c0,13.105,11.407,23.735,25.479,23.735
				c0.8,0,1.59-0.041,2.372-0.104c4.674,5.271,11.745,8.64,19.657,8.64c13.009,0,23.729-9.082,25.279-20.81
				C82.378,177.385,87.893,169.478,87.893,160.364z" style="fill:#D7F7E4;stroke:#CCCCDE;stroke-width:3;"></path>
			<path d="M61.985,135.769c-0.219,0-0.437,0.011-0.65,0.018
				c-3.562-5.578-9.506-9.68-16.523-11.087c5.553,1.394,10.229,4.771,13.104,9.271c0.188-0.005,2.737,4.405,2.93,4.405
				c12.074,0,17.69,6.506,17.69,17.758c0,7.82-2.931,12.807-9.87,16.223c-1.33,10.063-10.531,17.854-21.691,17.854
				c-6.792,0-12.859-2.885-16.871-7.412c-0.67,0.059-1.35,0.093-2.035,0.093c-12.074,0-21.562-5.724-21.562-16.976
				c0-7.574,3.393-11.309,9.562-15.809c-0.165-0.977-0.852-9.55,1.438-11.836c5.437-5.436,7.896-10.104,12.76-12.518
				c-9.541,3.432-16.313,12.052-16.313,22.146c0,0.17,0.011,0.339,0.015,0.509c-7.694,4.085-12.89,11.794-12.89,20.64
				c0,13.105,11.406,23.735,25.479,23.735c0.801,0,1.591-0.038,2.371-0.104c4.676,5.272,11.745,8.64,19.659,8.64
				c13.006,0,23.729-9.079,25.276-20.811c8.091-3.979,13.604-11.892,13.604-21.002C87.466,146.396,76.058,135.769,61.985,135.769z" style="opacity:0.1;fill:#6E6E96;enable-background:new    ;"></path>
			<path d="M25.723,173.202c0,0,13.191,2.584,13.191,15.495
				c0,0,3.554,21.933-10.181,37.45h31.707c-0.313-0.438-27.692-37.018,2.776-58.761C44.638,178.012,25.723,173.202,25.723,173.202z" style="fill:#EDE3DA;stroke:#CCCCDE;stroke-width:3;"></path>
			<g>
				<path d="M34.078,147.303" style="fill:#D57E58;"></path>
			</g>
			<path d="M55.313,173.167c0,0-20.021,25.849-4.633,52.98h9.764
				C60.443,226.15,40.129,197.756,55.313,173.167z" style="opacity:0.11;fill:#6E6E96;enable-background:new    ;"></path>
		</g>
	</g>
	<g style="display:none;" id="Layer_3">
		<g style="display:inline;">
			<path d="M84.635,136.49c0-11.563-10.059-20.938-22.467-20.938
				c-0.192,0-0.385,0.01-0.576,0.015c-3.917-6.135-11.102-10.244-19.316-10.244c-12.407,0-22.469,9.371-22.469,20.936
				c0,0.149,0.009,0.298,0.012,0.447c-6.783,3.603-11.363,10.396-11.363,18.195c0,11.563,10.061,20.936,22.468,20.936
				c0.705,0,1.403-0.032,2.094-0.095c4.122,4.648,10.356,7.616,17.335,7.616c11.471,0,20.925-8.011,22.293-18.352
				C79.771,151.5,84.635,144.527,84.635,136.49z" style="fill:#D7F7E4;stroke:#CCCCDE;stroke-width:3;"></path>
			<path d="M61.789,114.799c-0.191,0-0.386,0.011-0.575,0.016
				c-3.141-4.918-8.383-8.533-14.571-9.773c4.896,1.229,9.021,4.208,11.56,8.175c0.163-0.004,2.416,3.887,2.583,3.887
				c10.646,0,15.601,5.737,15.601,15.659c0,6.896-2.582,11.29-8.702,14.302c-1.175,8.875-9.287,15.747-19.13,15.747
				c-5.989,0-11.341-2.543-14.878-6.531c-0.591,0.052-1.188,0.077-1.794,0.077c-10.647,0-19.013-5.048-19.013-14.968
				c0-6.683,2.988-9.974,8.432-13.938c-0.146-0.857-0.75-8.422,1.269-10.438c4.792-4.794,6.963-8.908,11.25-11.038
				c-8.414,3.024-14.385,10.627-14.385,19.533c0,0.147,0.009,0.3,0.012,0.447C12.657,129.558,8.08,136.35,8.08,144.151
				c0,11.563,10.061,20.938,22.468,20.938c0.707,0,1.401-0.034,2.095-0.097c4.121,4.646,10.354,7.616,17.336,7.616
				c11.469,0,20.924-8.013,22.291-18.354c7.133-3.506,11.997-10.479,11.997-18.521C84.258,124.172,74.199,114.799,61.789,114.799z" style="opacity:0.1;fill:#6E6E96;enable-background:new    ;"></path>
			<path d="M29.811,147.812c0,0,11.635,2.275,11.635,13.661
				c0,0,3.134,19.343-8.976,33.026h27.96c-0.277-0.389-24.424-32.645,2.447-51.814C46.491,152.053,29.811,147.812,29.811,147.812z" style="fill:#EDE3DA;stroke:#CCCCDE;stroke-width:3;"></path>
			<g>
				<path d="M37.178,124.971" style="fill:#D57E58;"></path>
			</g>
			<path d="M55.904,147.781c0,0-17.652,22.793-4.085,46.722h8.611
				C60.43,194.5,42.515,169.463,55.904,147.781z" style="opacity:0.11;fill:#6E6E96;enable-background:new    ;"></path>
		</g>
		<g style="display:inline;">
			<path d="M254.475,135.206c0-10.828-9.42-19.604-21.04-19.604
				c-0.185,0-0.358,0.008-0.539,0.014c-3.669-5.743-10.396-9.596-18.091-9.596c-11.62,0-21.041,8.775-21.041,19.604
				c0,0.142,0.009,0.277,0.012,0.418c-6.354,3.375-10.646,9.739-10.646,17.043c0,10.826,9.422,19.604,21.04,19.604
				c0.66,0,1.313-0.032,1.96-0.091c3.858,4.354,9.698,7.136,16.233,7.136c10.737,0,19.596-7.5,20.875-17.188
				C249.92,149.262,254.475,142.734,254.475,135.206z" style="fill:#D7F7E4;stroke:#CCCCDE;stroke-width:3;"></path>
			<path d="M233.081,114.896c-0.185,0-0.356,0.009-0.539,0.014
				c-2.938-4.605-7.854-7.992-13.646-9.154c4.586,1.149,8.449,3.938,10.82,7.655c0.154-0.005,2.265,3.639,2.421,3.639
				c9.971,0,14.606,5.374,14.606,14.664c0,6.459-2.42,10.574-8.146,13.396c-1.102,8.312-8.698,14.741-17.914,14.741
				c-5.605,0-10.619-2.381-13.936-6.116c-0.558,0.048-1.11,0.071-1.683,0.071c-9.977,0-17.808-4.728-17.808-14.017
				c0-6.257,2.802-9.339,7.896-13.057c-0.14-0.806-0.701-7.886,1.188-9.771c4.485-4.487,6.521-8.343,10.534-10.337
				c-7.879,2.833-13.471,9.952-13.471,18.292c0,0.14,0.006,0.273,0.012,0.418c-6.354,3.373-10.646,9.734-10.646,17.041
				c0,10.823,9.42,19.604,21.041,19.604c0.661,0,1.312-0.03,1.959-0.088c3.857,4.354,9.699,7.133,16.232,7.133
				c10.74,0,19.596-7.5,20.875-17.188c6.682-3.284,11.232-9.813,11.232-17.342C254.122,123.672,244.702,114.896,233.081,114.896z" style="opacity:0.1;fill:#6E6E96;enable-background:new    ;"></path>
			<path d="M203.135,145.807c0,0,10.896,2.134,10.896,12.798
				c0,0,2.936,18.107-8.404,30.93h26.186c-0.262-0.359-22.87-30.565,2.294-48.521C218.754,149.781,203.135,145.807,203.135,145.807z" style="fill:#EDE3DA;stroke:#CCCCDE;stroke-width:3;"></path>
			<g>
				<path d="M210.036,124.422" style="fill:#D57E58;"></path>
			</g>
			<path d="M227.57,145.781c0,0-16.529,21.345-3.822,43.752h8.063
				C231.808,189.531,215.032,166.084,227.57,145.781z" style="opacity:0.11;fill:#6E6E96;enable-background:new    ;"></path>
		</g>
		<g style="display:inline;">
			<path d="M217.772,136.965c0-16.62-14.461-30.094-32.299-30.094
				c-0.278,0-0.556,0.012-0.828,0.02c-5.632-8.814-15.959-14.729-27.771-14.729c-17.838,0-32.301,13.476-32.301,30.096
				c0,0.216,0.014,0.43,0.018,0.646c-9.755,5.181-16.339,14.944-16.339,26.156c0,16.62,14.462,30.1,32.302,30.1
				c1.014,0,2.018-0.053,3.008-0.141c5.926,6.688,14.891,10.95,24.921,10.95c16.489,0,30.081-11.515,32.048-26.38
				C210.782,158.547,217.772,148.519,217.772,136.965z" style="fill:#D7F7E4;stroke:#CCCCDE;stroke-width:3;"></path>
			<path d="M184.931,105.788c-0.276,0-0.554,0.012-0.827,0.02
				c-4.518-7.069-12.051-12.27-20.949-14.053c7.041,1.768,12.973,6.05,16.614,11.751c0.235-0.006,3.476,5.586,3.713,5.586
				c15.31,0,22.431,8.248,22.431,22.513c0,9.913-3.717,16.23-12.515,20.563c-1.688,12.754-13.354,22.636-27.5,22.636
				c-8.608,0-16.302-3.655-21.388-9.396c-0.852,0.068-1.711,0.111-2.579,0.111c-15.312,0-27.332-7.255-27.332-21.518
				c0-9.604,4.298-14.336,12.119-20.039c-0.21-1.232-1.076-12.104,1.819-15.002c6.892-6.892,10.011-12.81,16.174-15.867
				c-12.096,4.35-20.679,15.276-20.679,28.079c0,0.216,0.011,0.43,0.017,0.646c-9.756,5.179-16.34,14.946-16.34,26.156
				c0,16.62,14.461,30.099,32.301,30.099c1.018,0,2.018-0.05,3.009-0.136c5.925,6.688,14.892,10.946,24.922,10.946
				c16.486,0,30.078-11.515,32.046-26.38c10.256-5.043,17.244-15.066,17.244-26.623C217.23,119.26,202.77,105.788,184.931,105.788z" style="opacity:0.1;fill:#6E6E96;enable-background:new    ;"></path>
			<path d="M138.959,153.243c0,0,16.729,3.271,16.729,19.644
				c0,0,4.504,27.806-12.902,47.479h40.193c-0.396-0.556-35.105-46.923,3.521-74.483
				C162.938,159.342,138.959,153.243,138.959,153.243z" style="fill:#EDE3DA;stroke:#CCCCDE;stroke-width:3;"></path>
			<g>
				<path d="M149.552,120.412" style="fill:#D57E58;"></path>
			</g>
			<path d="M176.472,153.198c0,0-25.38,32.767-5.873,67.164h12.378
				C182.977,220.364,157.223,184.37,176.472,153.198z" style="opacity:0.11;fill:#6E6E96;enable-background:new    ;"></path>
		</g>
		<g style="display:inline;">
			<path d="M145.936,138.077c0-13.646-11.873-24.707-26.519-24.707
				c-0.229,0-0.454,0.01-0.682,0.017c-4.622-7.238-13.104-12.093-22.8-12.093c-14.646,0-26.52,11.062-26.52,24.706
				c0,0.179,0.014,0.354,0.017,0.527c-8.012,4.253-13.414,12.271-13.414,21.479c0,13.646,11.872,24.707,26.52,24.707
				c0.832,0,1.653-0.041,2.469-0.105c4.864,5.484,12.226,8.984,20.461,8.984c13.536,0,24.694-9.45,26.31-21.652
				C140.195,155.795,145.936,147.564,145.936,138.077z" style="fill:#D7F7E4;stroke:#CCCCDE;stroke-width:3;"></path>
			<path d="M118.973,112.482c-0.229,0-0.452,0.011-0.681,0.017
				c-3.707-5.807-9.896-10.072-17.197-11.537c5.778,1.45,10.646,4.967,13.641,9.646c0.194-0.005,2.853,4.586,3.05,4.586
				c12.565,0,18.414,6.771,18.414,18.479c0,8.141-3.052,13.326-10.271,16.882c-1.386,10.474-10.963,18.584-22.576,18.584
				c-7.067,0-13.386-3.005-17.561-7.716c-0.696,0.062-1.402,0.098-2.118,0.098c-12.566,0-22.438-5.957-22.438-17.664
				c0-7.886,3.528-11.771,9.949-16.45c-0.171-1.018-0.885-9.938,1.496-12.315c5.653-5.656,8.218-10.516,13.275-13.026
				c-9.932,3.569-16.979,12.542-16.979,23.056c0,0.176,0.012,0.352,0.017,0.524c-8.013,4.25-13.415,12.271-13.415,21.479
				c0,13.646,11.873,24.707,26.52,24.707c0.834,0,1.653-0.041,2.469-0.109c4.864,5.488,12.226,8.988,20.461,8.988
				c13.536,0,24.693-9.451,26.312-21.656c8.419-4.141,14.158-12.37,14.158-21.854C145.491,123.543,133.618,112.482,118.973,112.482z" style="opacity:0.1;fill:#6E6E96;enable-background:new    ;"></path>
			<path d="M81.231,151.441c0,0,13.729,2.688,13.729,16.129
				c0,0,3.697,22.822-10.595,38.979h33c-0.328-0.455-28.824-38.521,2.89-61.15C100.918,156.448,81.231,151.441,81.231,151.441z" style="fill:#EDE3DA;stroke:#CCCCDE;stroke-width:3;"></path>
			<g>
				<path d="M89.928,124.489" style="fill:#D57E58;"></path>
			</g>
			<path d="M112.027,151.406c0,0-20.835,26.896-4.819,55.142h10.162
				C117.369,206.545,96.225,176.995,112.027,151.406z" style="opacity:0.11;fill:#6E6E96;enable-background:new    ;"></path>
		</g>
		<g style="display:inline;">
			<path d="M253.159,162.213c0-12.344-10.74-22.351-23.988-22.351
				c-0.203,0-0.405,0.009-0.609,0.015c-4.188-6.549-11.854-10.938-20.625-10.938c-13.248,0-23.984,10.009-23.984,22.352
				c0,0.162,0.012,0.316,0.014,0.479c-7.242,3.852-12.135,11.104-12.135,19.434c0,12.346,10.735,22.353,23.984,22.353
				c0.753,0,1.497-0.039,2.229-0.103c4.398,4.967,11.062,8.133,18.513,8.133c12.243,0,22.339-8.552,23.799-19.592
				C247.965,178.24,253.159,170.795,253.159,162.213z" style="fill:#D7F7E4;stroke:#CCCCDE;stroke-width:3;"></path>
			<path d="M228.767,139.057c-0.206,0-0.409,0.014-0.614,0.018
				c-3.354-5.25-8.947-9.11-15.558-10.438c5.229,1.313,9.633,4.491,12.339,8.729c0.175-0.005,2.579,4.146,2.757,4.146
				c11.368,0,16.655,6.123,16.655,16.72c0,7.36-2.759,12.057-9.291,15.271c-1.252,9.474-9.915,16.812-20.425,16.812
				c-6.396,0-12.104-2.722-15.884-6.979c-0.631,0.056-1.271,0.086-1.916,0.086c-11.368,0-20.299-5.389-20.299-15.979
				c0-7.136,3.188-10.646,9.002-14.886c-0.156-0.918-0.805-8.984,1.354-11.142c5.114-5.117,7.437-9.514,12.011-11.785
				c-8.979,3.229-15.355,11.348-15.355,20.854c0,0.158,0.014,0.315,0.018,0.479c-7.246,3.848-12.139,11.104-12.139,19.43
				c0,12.345,10.738,22.352,23.988,22.352c0.754,0,1.496-0.035,2.229-0.102c4.399,4.967,11.062,8.133,18.509,8.133
				c12.245,0,22.338-8.554,23.801-19.592c7.613-3.744,12.812-11.189,12.812-19.771C252.754,149.066,242.016,139.057,228.767,139.057
				z" style="opacity:0.1;fill:#6E6E96;enable-background:new    ;"></path>
			<path d="M194.625,174.302c0,0,12.422,2.433,12.422,14.588
				c0,0,3.347,20.646-9.584,35.261h29.854c-0.296-0.409-26.071-34.849,2.615-55.316
				C212.435,178.833,194.625,174.302,194.625,174.302z" style="fill:#EDE3DA;stroke:#CCCCDE;stroke-width:3;"></path>
			<g>
				<path d="M202.493,149.92" style="fill:#D57E58;"></path>
			</g>
			<path d="M222.484,174.269c0,0-18.847,24.334-4.359,49.881h9.19
				C227.315,224.15,208.188,197.418,222.484,174.269z" style="opacity:0.11;fill:#6E6E96;enable-background:new    ;"></path>
		</g>
		<g style="display:inline;">
			<path d="M88.893,160.364c0-13.11-11.408-23.737-25.479-23.737
				c-0.222,0-0.438,0.008-0.651,0.015c-4.443-6.954-12.591-11.614-21.907-11.614c-14.069,0-25.479,10.63-25.479,23.737
				c0,0.17,0.013,0.336,0.017,0.507C7.693,153.353,2.5,161.062,2.5,169.906c0,13.105,11.407,23.735,25.479,23.735
				c0.8,0,1.59-0.041,2.372-0.104c4.674,5.271,11.745,8.64,19.657,8.64c13.009,0,23.729-9.082,25.279-20.81
				C83.378,177.385,88.893,169.478,88.893,160.364z" style="fill:#D7F7E4;stroke:#CCCCDE;stroke-width:3;"></path>
			<path d="M62.985,135.769c-0.219,0-0.437,0.011-0.65,0.018
				c-3.562-5.578-9.506-9.68-16.523-11.087c5.553,1.394,10.229,4.771,13.104,9.271c0.188-0.005,2.737,4.405,2.93,4.405
				c12.074,0,17.69,6.506,17.69,17.758c0,7.82-2.931,12.807-9.87,16.223c-1.33,10.063-10.531,17.854-21.691,17.854
				c-6.792,0-12.859-2.885-16.871-7.412c-0.67,0.059-1.35,0.093-2.035,0.093c-12.074,0-21.562-5.724-21.562-16.976
				c0-7.574,3.393-11.309,9.562-15.809c-0.165-0.977-0.852-9.55,1.438-11.836c5.437-5.436,7.896-10.104,12.76-12.518
				c-9.541,3.432-16.313,12.052-16.313,22.146c0,0.17,0.011,0.339,0.015,0.51c-7.694,4.084-12.89,11.791-12.89,20.637
				c0,13.105,11.406,23.735,25.479,23.735c0.801,0,1.591-0.038,2.371-0.104c4.676,5.272,11.745,8.64,19.659,8.64
				c13.006,0,23.729-9.082,25.276-20.811c8.091-3.979,13.604-11.892,13.604-21.002C88.466,146.396,77.058,135.769,62.985,135.769z" style="opacity:0.1;fill:#6E6E96;enable-background:new    ;"></path>
			<path d="M26.723,173.202c0,0,13.191,2.584,13.191,15.495
				c0,0,3.554,21.933-10.181,37.45h31.707c-0.313-0.438-27.692-37.018,2.776-58.761C45.638,178.012,26.723,173.202,26.723,173.202z" style="fill:#EDE3DA;stroke:#CCCCDE;stroke-width:3;"></path>
			<g>
				<path d="M35.078,147.303" style="fill:#D57E58;"></path>
			</g>
			<path d="M56.313,173.167c0,0-20.021,25.849-4.633,52.98h9.764
				C61.443,226.15,41.129,197.756,56.313,173.167z" style="opacity:0.11;fill:#6E6E96;enable-background:new    ;"></path>
		</g>
	</g>
</g>
<g id="Layer_3_2_">
	<g>
		<g>
			<circle r="26.214" cy="215.889" cx="215.717" style="fill:#F0E5CE;"></circle>
			<path d="M215.717,243.603c-15.281,0-27.714-12.433-27.714-27.714s12.433-27.714,27.714-27.714
				c15.282,0,27.715,12.433,27.715,27.714S230.999,243.603,215.717,243.603z M215.717,191.175
				c-13.627,0-24.714,11.087-24.714,24.714s11.087,24.714,24.714,24.714c13.628,0,24.715-11.087,24.715-24.714
				S229.344,191.175,215.717,191.175z" style="fill:#CCCCDE;"></path>
		</g>
		<ellipse ry="21.786" rx="22.371" cy="213.919" cx="214.565" style="fill:#FFF3D6;"></ellipse>
		<g>
			<circle r="4.798" cy="203.133" cx="217.004" style="fill:#F0E5CE;"></circle>
			<circle r="5.876" cy="224.574" cx="207.733" style="fill:#F0E5CE;"></circle>
			<g>
				<circle r="2.304" cy="217.996" cx="231.273" style="fill:#F0E5CE;"></circle>
			</g>
			<circle r="3.277" cy="228.411" cx="224.26" style="fill:#F0E5CE;"></circle>
			<circle r="3.394" cy="208.048" cx="202.962" style="fill:#F0E5CE;"></circle>
			<g>
				<circle r="2.304" cy="234.869" cx="215.143" style="fill:#F0E5CE;"></circle>
			</g>
			<g>
				<circle r="1.136" cy="213.012" cx="227.13" style="fill:#F0E5CE;"></circle>
			</g>
			<g>
				<circle r="1.136" cy="216.64" cx="198.081" style="fill:#F0E5CE;"></circle>
			</g>
			<g>
				<circle r="1.137" cy="201.963" cx="207.209" style="fill:#F0E5CE;"></circle>
			</g>
			<g>
				<circle r="2.304" cy="212.847" cx="214.422" style="fill:#F0E5CE;"></circle>
			</g>
			<g>
				<circle r="2.304" cy="200.026" cx="230.807" style="fill:#F0E5CE;"></circle>
			</g>
		</g>
	</g>
	<g style="opacity:0.27;">
		
			<ellipse ry="87.975" rx="43.274" cy="126.56" cx="123.734" style="opacity:0.44;fill:#D98BD6;enable-background:new    ;" transform="matrix(-0.5142 -0.8577 0.8577 -0.5142 78.809 297.7593)"></ellipse>
		
			<ellipse ry="137.926" rx="67.846" cy="124.907" cx="130.12" style="opacity:0.44;fill:#FFA3FC;enable-background:new    ;" transform="matrix(-0.5142 -0.8577 0.8577 -0.5142 89.8961 300.7338)"></ellipse>
		<path d="M230.005,128.999c-0.335,0-0.672-0.111-0.95-0.341c-0.641-0.525-0.734-1.47-0.208-2.11
			c23.28-28.374,30.943-55.53,20.5-72.645c-3.639-5.968-9.297-10.579-16.817-13.704c-0.766-0.318-1.128-1.196-0.81-1.961
			c0.317-0.764,1.196-1.126,1.96-0.81c8.119,3.374,14.252,8.391,18.228,14.912c11.305,18.525,3.745,46.266-20.742,76.109
			C230.869,128.812,230.438,128.999,230.005,128.999z" style="fill:#6E6E96;"></path>
		<path d="M57.036,216.991c-4.266,0-8.342-0.248-12.197-0.746c-16.362-2.114-28.363-8.728-34.706-19.127
			c-8.456-13.861-6.226-33.529,6.279-55.379c0.411-0.719,1.327-0.969,2.047-0.557c0.719,0.411,0.968,1.328,0.557,2.047
			c-11.937,20.857-14.182,39.44-6.321,52.326c11.779,19.312,45.114,23.806,86.998,11.726c0.797-0.229,1.628,0.229,1.857,1.025
			c0.229,0.796-0.229,1.628-1.026,1.857C84.857,214.683,70.064,216.991,57.036,216.991z" style="fill:#6E6E96;"></path>
		<path d="M107.31,168.371c-0.614,0-1.19-0.379-1.411-0.99c-0.282-0.778,0.122-1.639,0.9-1.92
			c10.253-3.709,21.132-8.999,31.459-15.3c34.712-21.179,57.211-50.266,49.13-63.518c-4.668-7.654-18.979-9.012-38.286-3.634
			c-0.796,0.222-1.624-0.244-1.848-1.042c-0.222-0.798,0.245-1.625,1.043-1.847c20.984-5.845,36.166-4.036,41.651,4.962
			c9.236,15.144-12.783,44.856-50.128,67.64c-10.646,6.496-21.414,11.73-32.001,15.56
			C107.652,168.343,107.48,168.371,107.31,168.371z" style="fill:#6E6E96;"></path>
		<g>
			<circle r="10.945" cy="32.761" cx="191.298" style="fill:#6E6E96;"></circle>
			<path d="M191.298,45.206c-6.862,0-12.444-5.583-12.444-12.445s5.582-12.445,12.444-12.445s12.445,5.583,12.445,12.445
				S198.16,45.206,191.298,45.206z M191.298,23.316c-5.208,0-9.444,4.237-9.444,9.445s4.236,9.445,9.444,9.445
				s9.445-4.237,9.445-9.445S196.506,23.316,191.298,23.316z"></path>
		</g>
		<circle r="10.945" cy="175.049" cx="82.422" style="fill:#6E6E96;"></circle>
		<g>
			<circle r="8.978" cy="126.409" cx="26.61" style="fill:#6E6E96;"></circle>
			<path d="M26.61,136.887c-5.778,0-10.479-4.7-10.479-10.478c0-5.778,4.701-10.479,10.479-10.479
				c5.777,0,10.478,4.701,10.478,10.479C37.088,132.187,32.387,136.887,26.61,136.887z M26.61,118.931
				c-4.124,0-7.479,3.355-7.479,7.479c0,4.123,3.355,7.478,7.479,7.478c4.123,0,7.478-3.354,7.478-7.478
				C34.088,122.286,30.733,118.931,26.61,118.931z"></path>
		</g>
	</g>
</g>
<circle r="82.226" cy="121.31" cx="132.184" style="fill:#B0CBFF;"></circle>
<g style="opacity:0.23;enable-background:new    ;">
	<path d="M85.948,124.686c0,0,4.073,1.829,4.073-2.571c0-4.399,4.999-10.846-3.081-13.202
		c-8.08-2.357,4.399-3.302,2.2-8.803c-2.2-5.501-9.883-5.303-12.982-2.199c-3.103,3.103,1.028-9.887,9.463-6.822
		c8.436,3.062,2.643,12.104,11.223,10.123c8.582-1.979,0.66-11.663,8.582-11.663c7.924,0,6.162-10.782,11.885-10.782
		c5.721,0,4.399-6.162,9.462-6.162s-3.411-12.213,2.859-8.143c6.271,4.07,9.483,0.88,7.924-9.684
		c-1.563-10.562-0.329-2.751,2.859-5.94c3.189-3.189-1.649-5.171-3.081-6.603c-1.431-1.431,0.121-2.98,0.121-2.98
		s-24.105-4.818-37.75,14.646C86.061,73.363,69.336,80.745,70.437,92.187C71.537,103.629,78.573,114.274,85.948,124.686z" style="fill:#FFFFFF;"></path>
</g>
<g style="opacity:0.23;enable-background:new    ;">
	<path d="M95.358,194.841c0,0,2.117-17.137,0-19.255c-2.119-2.116-10.178-7.921-10.178-13.862
		c0-5.939-9.408-15.019-6.271-18.155c3.136-3.134,8.088-3.96,8.088-8.086c0-4.125,1.372-13.754,13.643-13.754
		c12.269,0,27.947,9.135,31.084,12.271c3.136,3.137,9.24,6.271,10.728,10.729c1.484,4.455,2.146,4.455,5.776,4.455
		s3.961,4.787,8.416,4.787c4.457,0,7.758,3.135,12.049,3.135c4.29,0-3.302,10.895-7.262,14.854
		c-3.963,3.961-10.563,15.846-18.154,15.846s-11.225,9.076-16.669,9.076c-5.445,0-11.863,4.798-11.863,4.798
		S99.346,198.83,95.358,194.841z" style="fill:#FFFFFF;"></path>
</g>
<g>
	<path d="M104.473,115.019" style="fill:#00A33E;"></path>
	<path d="M104.473,115.019" style="fill:none;stroke:#6E6E96;"></path>
</g>
<g style="opacity:0.92;enable-background:new    ;">
	<path d="M164.697,57.156c1.109,0.688-0.18,2.024,1.137,2.142c1.026,0.532-2.506,7.896,0.9,8.726
		c1.469,1.183-1.741,1.221-0.623,2.285c1.449,1.083,3.726,1.502,5.471,1.942c2.038,0.151,1.387-2.818,3.094-3.362
		c1.146-0.366,3.563,0.183,4.5-0.396c2.657-1.643,1.304-4.826-0.033-6.609c-0.726-0.963-3.708-2.075-4.543-2.862
		c-3.995-3.778-8.615-4.625-13.307-6.375C160.062,55.414,162.662,56.417,164.697,57.156z" style="fill:#FFFFFF;"></path>
	<path d="M171.728,73.757L171.728,73.757c-0.083,0-0.169-0.003-0.258-0.009
		c-0.086-0.007-0.172-0.021-0.256-0.042l-0.783-0.191c-1.751-0.419-3.734-0.896-5.218-2.004c-0.048-0.036-0.094-0.074-0.137-0.115
		c-0.662-0.63-0.744-1.278-0.696-1.711c0.046-0.423,0.222-0.753,0.44-1.013c-1.706-1.622-1.024-4.929-0.585-7.064
		c0.081-0.395,0.182-0.881,0.241-1.256c-0.451-0.339-0.82-0.933-0.788-1.967c-1.411-0.529-3.226-1.34-3.929-2.995
		c-0.432-1.013-0.377-2.141,0.161-3.352c0.323-0.725,1.154-1.071,1.896-0.796c1.01,0.376,2.016,0.71,3.013,1.041
		c3.656,1.214,7.438,2.469,10.8,5.649c0.213,0.201,1.06,0.645,1.62,0.938c1.274,0.668,2.479,1.299,3.091,2.111
		c0.689,0.919,2.237,3.315,1.775,5.759c-0.238,1.258-0.982,2.306-2.151,3.029c-0.941,0.582-2.119,0.523-3.271,0.494
		c-0.24-0.006-0.479-0.012-0.71-0.012c-0.561,0-0.774,0.042-0.853,0.066c-0.114,0.087-0.293,0.562-0.4,0.845
		C174.389,72.069,173.751,73.757,171.728,73.757z M168.222,69.757c0.889,0.356,1.94,0.609,2.908,0.841l0.534,0.13
		c0.084-0.159,0.187-0.431,0.261-0.626c0.327-0.865,0.82-2.172,2.295-2.642c0.457-0.146,0.984-0.208,1.764-0.208
		c0.255,0,0.521,0.006,0.786,0.013c0.241,0.006,0.484,0.013,0.72,0.013c0.685,0,0.889-0.062,0.936-0.081
		c0.556-0.347,0.692-0.746,0.743-1.014c0.161-0.855-0.32-2.19-1.227-3.399c-0.242-0.291-1.44-0.919-2.085-1.257
		c-0.951-0.499-1.772-0.929-2.287-1.414c-2.88-2.724-6.186-3.821-9.686-4.983c-0.179-0.059-0.357-0.119-0.536-0.178
		c0.592,0.334,1.356,0.612,1.86,0.795c0.098,0.035,0.19,0.08,0.278,0.135c1.017,0.63,1.19,1.575,1.208,2.183
		c1.179,0.752,0.868,2.261,0.479,4.148c-0.234,1.139-0.858,4.166-0.085,4.354c0.214,0.052,0.414,0.151,0.585,0.289
		c0.842,0.678,0.98,1.388,0.947,1.865C168.593,69.15,168.432,69.489,168.222,69.757z" style="fill:#6E6E96;"></path>
</g>
<g style="opacity:0.23;enable-background:new    ;">
	<path d="M193.116,101.319c0,0-1.65,0.66-1.65,4.951s-1.979,5.94-1.979,9.571
		c0,3.632,0.165,12.708,4.29,16.835c4.128,4.127,3.463,14.174,9.903,14.521c6.438,0.349,7.197-0.786,5.073,4.136
		c0,0,15.809-33.557-2.721-66.21c0,0-4.016-3.25-6.315,2.002c-2.302,5.251-7.922,2.972-7.922,6.603S193.116,101.319,193.116,101.319
		z" style="fill:#FFFFFF;"></path>
</g>
<path d="M132.184,205.036c-46.167,0-83.727-37.56-83.727-83.727c0-46.167,37.56-83.726,83.727-83.726
	c46.166,0,83.726,37.559,83.726,83.726C215.91,167.477,178.35,205.036,132.184,205.036z M132.184,40.584
	c-44.513,0-80.727,36.213-80.727,80.726c0,44.513,36.214,80.727,80.727,80.727s80.726-36.214,80.726-80.727
	C212.91,76.798,176.697,40.584,132.184,40.584z" style="fill:#6E6E96;"></path>
<path d="M85.62,123.918c-0.878-0.853-1.412-2.188-1.47-3.343c-0.067-1.352,1.438-3.611,1.67-4.704
	c1.088-5.154-8.15-3.014-6.584-6.562c0.911-0.817,0.574-1.868,1.234-2.76c0.526-0.713,1.912-1.46,2.66-1.933
	c1.145-0.938,1.636-3.751,0.746-4.31c-4.188-1.812-4.185,1.78-6.814,2.886c-5.884,2.473-5.967-12.497-1.763-13.262
	c1.616-2.67,1.14-3.994,4.693-4.118c2.315-0.08,4.75,0.088,6.613,1.141c0.85-0.16-0.496-1.872,0.274-1.593
	c0.946-0.122,1.792,0.096,2.613,0.494c0.113,0.197,0.022,0.439,0.077,0.657c0.556,0.479,0.54,0.161,0.984,0.977
	c0.938,0.057,1.92,0.02,2.855,0.074c2.118-0.038-1.499,10.985,3.185,9.958c1.505-0.817,2.11-2.213,2.236-4.365
	c0.091-1.554-1.083-2.917-0.73-4.65c0.588-2.905,5.246-3.278,7.641-4.35c2.15-0.964,2.296-0.99,3.37-3.236
	c0.917-1.917,2.219-3.413,3.929-4.887c1.702-1.468,2.189-1.365,4.395-1.722c1.362-0.22,0.488-1.346,1.494-2.737
	c0.539-0.588,1.189-0.811,1.898-0.85c0.002-0.001,0.004-0.003,0.005-0.006c0,0,7.584-0.27,3.789-4.063
	c-3.795-3.795-0.825-9.736,3.961-7.593c3.238,1.452,3.306,2.676,4.186,2.602c4.162-7.647-2.725-9.914-2.725-9.914
	c-2.213-0.538-3.6,0.721-5.422-1.104c-1.048-1.047-3.487-1.648-4.32-0.134c-0.239,0.957-0.267,1.954-0.853,2.769
	c-0.569,0.792-1.402,0.566-2.01,1.15c-0.642,0.611-0.81,1.228-1.23,1.772c-0.481,0.625-1.642,3.047-2.947,2.967
	c-1.206-0.073-2.335-2.288-1.964-3.217c0.534-1.335,4.054-1.396,1.98-3.193c-0.817-0.71-2.584-0.154-3.636-1.248
	c-0.671-2.011-1.034-4.185,0.938-4.854c0.896-0.306,2.24,0.009,3.183-0.179c0.984-0.195,1.942-0.745,2.938-0.801
	c2.479-0.138,3.481,0.615,5.327-0.49c1.121-0.67,3.505-3.302,5.401-2.897c0.896,0.575,1.018,1.677,0,1.884
	c-0.568-0.012-1.244,0.11-1.842,0.371c3.746-0.491,6.807,0.919,8.725,2.73c0.88-0.272,1.723-0.591,1.678-1.8
	c-0.202-1.268-2.265-0.954-3.15-1.988c-0.197-0.232,0.201-4.152,0.029-4.407l-1.312,0.004C104.295,39.29,80.192,52.758,65.38,73.358
	c-0.188,1.358-0.333,2.701-0.561,3.894c-0.914,4.784-0.021,9.646,0,14.438c0.008,2.086-0.955,3.876-0.74,5.873
	c0.208,1.932,1.313,2.996,2.265,4.588c0.927,1.55,1.335,3.561,2.583,4.525c1.238,0.956,2.815,1.196,4.152,2.632
	c1.594,1.71,1.226,3.25,2.325,4.833c1.021,1.476,3.182,0.779,4.05,2.313c0.813,1.438,0.068,3.943,0.851,5.564
	c0.289,0.604,1.072,1.609,2.062,2.662C85.353,126.133,85.877,125.239,85.62,123.918z" style="fill:#BBF7B2;"></path>
<path d="M162.919,159.76c-1.808,0.353-2.019-0.971-3.198-1.694c-1.299-0.796-2.9-1.062-4.354-1.275
	c-2.405-0.355-5.872,0.242-7.793-1.508c-1.068-4.324-8.234,0.159-8.319-2.444c0.315-0.936-1.142-1.433-0.509-2.408
	c1.337-1.375,0.339-2.266-0.022-3.618c-0.317-1.188-0.427-2.699-1.165-3.779c-1.188-1.734-4.266-2.518-6.179-3.119
	c-2.941-0.928-3.354-1.793-5.434-3.868c-0.565-0.564-1.091-0.938-1.58-1.259c-0.75-0.749-1.632-1.563-2.612-2.408
	c-0.011-0.021-0.021-0.037-0.032-0.059c-0.023-0.012-0.05-0.022-0.072-0.035c-5.521-4.729-9.184-6.865-17.791-6.865
	c-1.766,0-3.199,0.166-4.339,0.387c-1.503,0.506-2.699,0.936-3.657,1.324c-0.42,0.313-0.782,0.464-1.109,0.489
	c-2.659,1.28-2.68,2.323-2.674,4.877c0.001,0.057,0,0.11,0,0.171c0,0.071,0,0.146,0,0.224c0,0.113-0.006,0.219-0.014,0.313
	c-0.061,1.129-0.299,2.295-0.767,3.034c-0.74,1.183-2.401,1.914-3.532,2.879c-1,0.854-1.546,1.783-2.346,2.545
	c-0.417,1.729,1.67,1.549-0.979,4.404c-1.146,1.793-0.498,4.103-0.054,5.6c0.463,1.563,2.271,2.975,3.26,4.336
	c2.033,2.799,2.837,5.904,4.768,8.673c2.028,2.916,5.246,4.422,7.592,6.854c1.508,1.562,1.335,2.379,0.992,4.542
	c-0.272,1.741-0.449,3.868-0.449,5.928c0,4.186,0.414,11.308,0.208,15.321l7.466,2.674c0.423-0.501,2.276-2.445,2.771-2.912
	c2.464-2.347,5.404-1.499,8.608-1.66c-0.056-0.406,0.159-0.992,0.079-1.392c0.307-0.289,0.307-0.004,0.488-0.487
	c2.671-0.152,4.224-0.743,6.376-1.21c1.23-0.268,2.156,0.123,3.126-0.544c0.496-0.346,0.91-1.871,1.514-2.406
	c2.16-1.634,1.76-0.459,2.896-1.999c0.728-0.986,1.929-1.389,2-2.899c0.813-2.116,2.409-0.01,3.585-0.078
	c0.508-1.85,2.598-1.431,4.204-1.428c2.132,0.007,2.787-0.016,4.215-1.397c4.549-4.415,5.479-9.757,10.522-13.476
	C161.26,166.143,165.892,160.335,162.919,159.76z" style="fill:#BBF7B2;"></path>
<g style="opacity:0.77;enable-background:new    ;">
	<path d="M83.349,104.406c1.144-0.938,1.633-3.753,0.744-4.309c-0.819-0.354-1.478-0.498-2.026-0.497
		c-0.197,0.736-0.557,1.445-1.028,1.833c-0.749,0.474-2.135,1.22-2.663,1.934c-0.66,0.893-0.324,1.94-1.232,2.761
		c-0.725,1.638,0.854,2.062,2.656,2.553c0.474-0.74,0.335-1.596,0.89-2.343C81.215,105.625,82.601,104.878,83.349,104.406z
		 M74.75,111.913c0.201,0.675,0.402,1.342,0.872,2.018c0.525,0.757,1.354,0.941,2.147,1.15c-0.036-0.677-0.126-1.311-0.409-1.811
		C76.806,112.293,75.726,112.221,74.75,111.913z M133.044,41.387c0.06-1.133,0.137-2.374,0.041-2.515l-1.312,0.004
		c-0.355,0.003-0.709,0.018-1.063,0.022c-0.029,0.728-0.04,1.322,0.034,1.409C131.3,40.958,132.313,41.078,133.044,41.387z
		 M83.8,112.169c-0.014,0.165-0.034,0.334-0.072,0.518c-0.229,1.094-1.738,3.354-1.67,4.704c0.057,1.153,0.591,2.491,1.469,3.343
		c0.252,1.292-0.253,2.174-3.085,0.845c0.03,0.076,0.047,0.159,0.082,0.231c0.29,0.604,1.074,1.609,2.062,2.661
		c2.984,1.447,3.512,0.552,3.252-0.768c-0.878-0.854-1.412-2.188-1.469-3.345c-0.068-1.351,1.439-3.61,1.67-4.703
		C86.464,113.625,85.286,112.729,83.8,112.169z M67.517,103.938c0.436,1,0.881,1.951,1.627,2.525
		c0.911,0.704,2.007,1.021,3.056,1.714c-0.229-0.665-0.553-1.345-1.214-2.053C69.884,104.943,68.621,104.568,67.517,103.938z
		 M111.166,55.991c0.101,0.006,0.195-0.008,0.293-0.027c0.014-0.077,0.028-0.152,0.057-0.219c0.228-0.563,0.983-0.9,1.629-1.237
		c0.368-0.521,0.671-1.05,0.882-1.357c-0.103-0.176-0.271-0.374-0.529-0.598c-0.678-0.59-2.007-0.311-3.039-0.819
		c-0.538,0.278-1.067,0.585-1.252,1.042C108.832,53.702,109.961,55.917,111.166,55.991z M91.321,84.385
		c-0.938-0.058-1.917-0.021-2.856-0.075c-0.443-0.813-0.429-0.499-0.982-0.978c-0.057-0.218,0.037-0.46-0.077-0.657
		c-0.82-0.399-1.667-0.616-2.612-0.494c-0.771-0.281,0.573,1.433-0.274,1.591c-1.864-1.051-4.298-1.219-6.614-1.14
		c-3.555,0.124-3.075,1.447-4.691,4.118c-3.688,0.67-4.078,12.271-0.144,13.438c-1.146-3.842-0.202-9.984,2.454-10.468
		c1.616-2.671,1.137-3.995,4.69-4.119c2.316-0.08,4.75,0.089,6.614,1.141c0.85-0.16-0.495-1.872,0.275-1.593
		c0.944-0.124,1.792,0.096,2.611,0.495c0.114,0.195,0.022,0.438,0.078,0.656c0.558,0.479,0.54,0.161,0.983,0.978
		c0.417,0.024,0.844,0.028,1.269,0.033C92.1,85.656,92.047,84.371,91.321,84.385z M133.378,43.567
		c-0.312,0.252-0.729,0.397-1.16,0.532c-1.917-1.812-4.977-3.225-8.722-2.73c0.596-0.263,1.271-0.385,1.84-0.373
		c0.981-0.2,0.896-1.229,0.082-1.817c-0.542,0.046-1.083,0.092-1.623,0.146c-1.506,0.617-3.027,2.188-3.859,2.688
		c-1.846,1.105-2.851,0.354-5.327,0.489c-0.993,0.057-1.951,0.604-2.938,0.802c-0.939,0.187-2.284-0.128-3.182,0.177
		c-1.971,0.668-1.608,2.844-0.938,4.854c0.497,0.518,1.154,0.665,1.797,0.752c-0.104-1.196,0.212-2.214,1.451-2.634
		c0.896-0.306,2.239,0.009,3.183-0.179c0.985-0.194,1.942-0.744,2.938-0.801c2.479-0.139,3.48,0.614,5.327-0.49
		c1.122-0.67,3.505-3.302,5.401-2.897c0.896,0.575,1.018,1.676,0,1.883c-0.568-0.011-1.245,0.111-1.841,0.372
		c3.744-0.491,6.806,0.918,8.723,2.729c0.882-0.271,1.722-0.59,1.679-1.799C136.024,44.139,134.364,44.265,133.378,43.567z
		 M131.757,52.318c0.477,1.49,0.367,3.5-1.083,6.165c-0.88,0.076-0.943-1.146-4.184-2.599c-4.786-2.146-7.758,3.796-3.961,7.592
		c3.796,3.796-3.788,4.063-3.788,4.063c-0.002,0.002-0.005,0.004-0.007,0.006c-0.708,0.038-1.359,0.262-1.898,0.848
		c-1.005,1.395-0.13,2.521-1.494,2.738c-2.201,0.354-2.69,0.254-4.393,1.721c-1.71,1.477-3.013,2.971-3.93,4.889
		c-1.074,2.245-1.22,2.272-3.37,3.235c-2.396,1.069-7.051,1.442-7.642,4.351c-0.351,1.732,0.823,3.099,0.732,4.649
		c-0.126,2.151-0.733,3.547-2.238,4.365c-0.072,0.018-0.142,0.021-0.211,0.032c0.133,1.897,0.692,3.34,2.521,2.938
		c1.504-0.818,2.109-2.214,2.236-4.367c0.093-1.552-1.083-2.917-0.731-4.649c0.589-2.905,5.247-3.279,7.641-4.352
		c2.151-0.963,2.297-0.989,3.37-3.234c0.917-1.917,2.219-3.413,3.929-4.889c1.701-1.467,2.19-1.363,4.395-1.72
		c1.364-0.221,0.489-1.347,1.494-2.739c0.54-0.586,1.189-0.809,1.898-0.847c0.001-0.002,0.003-0.004,0.005-0.006
		c0,0,7.584-0.27,3.789-4.064c-3.796-3.796-0.823-9.735,3.96-7.592c3.239,1.452,3.307,2.675,4.186,2.602
		C135.832,56.222,133.509,53.509,131.757,52.318z" style="fill:#A8DEA0;"></path>
</g>
<path d="M162.417,159.981c-1.807,0.354-2.019-0.97-3.196-1.692c-1.299-0.797-2.901-1.063-4.354-1.275
	c-2.407-0.355-5.872,0.241-7.793-1.508c-1.068-4.324-8.234,0.16-8.32-2.444c0.006-0.018,0.006-0.03,0.014-0.048
	c-0.106,0.229-0.271,0.465-0.521,0.719c-0.63,0.979,0.824,1.478,0.509,2.409c0.086,2.605,7.252-1.879,8.32,2.445
	c1.921,1.749,5.386,1.148,7.793,1.506c1.45,0.218,3.056,0.481,4.354,1.277c1.181,0.725,1.393,2.046,3.196,1.693
	c0.095,0.02,0.179,0.04,0.254,0.066C163.549,161.573,163.763,160.242,162.417,159.981z M100.258,197.537l0.058,0.021
	c-0.001-0.439-0.005-0.895-0.014-1.355C100.292,196.67,100.28,197.124,100.258,197.537z M100.499,176.288
	c-0.272,1.739-0.449,3.868-0.449,5.926c0,0.599,0.011,1.261,0.021,1.959c0.051-1.692,0.202-3.378,0.427-4.805
	c0.229-1.438,0.377-2.282,0.01-3.146C100.505,176.246,100.502,176.265,100.499,176.288z M84.899,145.086
	c-0.212,0.332-0.516,0.721-0.958,1.198c-0.804,1.261-0.725,2.771-0.449,4.081c0.104-0.346,0.246-0.683,0.449-1.002
	C86.522,146.583,84.617,146.675,84.899,145.086z M138.353,150.525c1.162-1.306,0.222-2.185-0.133-3.493
	c-0.316-1.188-0.426-2.7-1.165-3.779c-1.188-1.734-4.265-2.519-6.179-3.121c-2.941-0.926-3.354-1.793-5.434-3.866
	c-0.565-0.564-1.09-0.938-1.581-1.26c-0.75-0.75-1.631-1.563-2.61-2.408c-0.011-0.021-0.021-0.036-0.032-0.059
	c-0.023-0.012-0.051-0.021-0.072-0.035c-5.521-4.729-9.184-6.864-17.791-6.864c-1.766,0-3.198,0.165-4.34,0.385
	c-1.503,0.508-2.699,0.938-3.657,1.326c-0.419,0.314-0.781,0.464-1.108,0.487c-2.659,1.282-2.679,2.324-2.674,4.877
	c0.001,0.058,0,0.111,0,0.171c0,0.073,0,0.146,0,0.224c0,0.115-0.005,0.222-0.014,0.313c-0.06,1.129-0.299,2.296-0.767,3.035
	c-0.74,1.184-2.401,1.915-3.532,2.88c-1,0.852-1.545,1.783-2.346,2.544c-0.328,1.356,0.885,1.543,0.135,2.943
	c0.727-0.732,1.269-1.604,2.21-2.407c1.131-0.964,2.792-1.695,3.532-2.878c0.468-0.741,0.707-1.907,0.767-3.036
	c0.008-0.097,0.014-0.198,0.014-0.313c0-0.076,0-0.147,0-0.225c0-0.059,0-0.112,0-0.17c-0.005-2.552,0.015-3.596,2.674-4.877
	c0.328-0.024,0.689-0.173,1.108-0.488c0.958-0.392,2.154-0.818,3.657-1.325c1.142-0.221,2.574-0.386,4.34-0.386
	c8.606,0,12.271,2.136,17.791,6.865c0.021,0.013,0.049,0.022,0.07,0.036c0.013,0.021,0.023,0.036,0.034,0.058
	c0.979,0.845,1.861,1.658,2.61,2.407c0.491,0.318,1.016,0.691,1.581,1.26c2.079,2.074,2.49,2.942,5.434,3.867
	c1.914,0.604,4.989,1.386,6.179,3.121c0.739,1.078,0.849,2.595,1.164,3.777C138.259,150.254,138.304,150.391,138.353,150.525z" style="fill:#D0F7CB;"></path>
<path d="M210.119,147.549c2.457-7.803,4.688-15.761,4.688-24.378c0-11.192-2.104-22.319-6.157-32.047
	c-0.249,0.309-0.646,1.115-0.938,1.485c-1.569-0.897-1.495-2.79-2.993-3.646c-1.954-1.117-3.533,1.053-4.392,2.597
	c-3.241,0.098-3.391,0.762-3.385,3.958c0.003,2.105,0.057,4.631,0.73,6.363l0.247,0.242c0.462,2-0.823,2.054-1.771,3.372
	c-1,1.397-0.831,2.352-0.924,4.215c-0.163,3.229-1.85,4.69-1.678,8.039c0.396,2.335,0.216,5.47,0.149,8.343
	c0.592,1.704,1.649,3.356,3.485,4.602c6.159,4.184,1.431,12.997,6.324,12.997c1.87-0.453,0.771-6.445,6.68-6.531
	c0.069,0.01,0.603,0.02,0.655,0.007c1.999,0.441,0.896,3.158,0.743,4.847L210.119,147.549z" style="fill:#BBF7B2;"></path>
<g style="opacity:0.77;enable-background:new    ;">
	<path d="M162.952,159.662c-0.222,0.042-0.417,0.061-0.597,0.058c-1.104,1.523-2.589,3.049-3.717,3.88
		c-5.043,3.717-5.975,9.062-10.521,13.475c-1.43,1.386-2.084,1.405-4.218,1.398c-1.607-0.003-3.696-0.422-4.203,1.428
		c-1.175,0.068-2.771-2.038-3.586,0.078c-0.07,1.513-1.272,1.913-1.999,2.898c-1.136,1.541-0.734,0.367-2.896,2
		c-0.601,0.535-1.015,2.062-1.512,2.406c-0.97,0.668-1.896,0.275-3.125,0.543c-2.154,0.467-3.705,1.058-6.375,1.211
		c-0.184,0.483-0.185,0.197-0.49,0.486c0.081,0.396-0.133,0.983-0.076,1.393c-3.204,0.162-6.146-0.688-8.609,1.661
		c-0.491,0.466-2.347,2.41-2.771,2.91l-7.421-2.655c0.022,1.638,0.021,3.155-0.043,4.386l7.464,2.672
		c0.424-0.499,2.278-2.445,2.771-2.911c2.465-2.348,5.405-1.498,8.609-1.66c-0.057-0.406,0.157-0.992,0.076-1.392
		c0.309-0.289,0.309-0.004,0.49-0.488c2.671-0.151,4.222-0.744,6.375-1.211c1.23-0.267,2.156,0.126,3.125-0.543
		c0.497-0.345,0.911-1.871,1.512-2.405c2.16-1.634,1.762-0.458,2.896-2c0.727-0.985,1.929-1.389,1.999-2.898
		c0.813-2.116,2.411-0.009,3.586-0.077c0.507-1.851,2.596-1.431,4.203-1.429c2.134,0.007,2.788-0.017,4.218-1.398
		c4.549-4.414,5.479-9.758,10.521-13.475C161.295,166.043,165.925,160.236,162.952,159.662z M138.755,146.71
		c-0.04-0.15-0.078-0.31-0.11-0.467c-0.074,0.312,0.061,0.58,0.23,0.841C138.832,146.964,138.788,146.84,138.755,146.71z
		 M139.316,148.21c-0.008,0.041-0.017,0.083-0.027,0.127c0.007,0.215,0.064,0.376,0.16,0.503
		C139.438,148.628,139.388,148.421,139.316,148.21z M101.033,171.565c0.343-2.162,0.514-2.979-0.992-4.541
		c-2.347-2.434-5.562-3.938-7.592-6.854c-1.931-2.771-2.733-5.874-4.767-8.673c-0.991-1.361-2.799-2.771-3.263-4.337
		c-0.063-0.224-0.135-0.462-0.202-0.714c-0.771,1.709-0.201,3.746,0.202,5.112c0.463,1.566,2.271,2.977,3.263,4.337
		c2.031,2.799,2.836,5.904,4.767,8.673c2.028,2.915,5.245,4.421,7.592,6.854c0.395,0.409,0.67,0.767,0.86,1.107
		C100.944,172.205,100.985,171.873,101.033,171.565z M100.624,180.213c-0.022,0.561-0.04,1.121-0.04,1.682
		c0,2.704,0.172,6.632,0.239,10.158C100.923,188.793,100.714,184.014,100.624,180.213z" style="fill:#A8DEA0;"></path>
</g>
<path d="M65.814,99.804c-0.214-1.997,0.749-3.787,0.74-5.873c-0.021-4.791-0.914-9.655,0-14.438
	c0.229-1.19,0.369-2.533,0.562-3.894c14.688-20.428,38.514-33.833,65.491-34.254c0.052-0.967,0.097-1.883,0.018-2l-1.312,0.004
	C104.05,39.553,79.947,53.02,65.134,73.62c-0.188,1.356-0.333,2.699-0.561,3.893c-0.914,4.784-0.02,9.647,0,14.438
	c0.008,2.086-0.955,3.876-0.74,5.872c0.208,1.931,1.313,2.995,2.266,4.589c0.925,1.55,1.333,3.561,2.583,4.523
	c0.271,0.211,0.563,0.386,0.864,0.547c-0.51-0.964-0.887-2.118-1.469-3.091C67.126,102.8,66.022,101.734,65.814,99.804z
	 M84.078,102.094c0.046-0.695-0.084-1.298-0.445-1.524c-4.187-1.812-4.185,1.781-6.813,2.889c-0.706,0.296-1.325,0.336-1.866,0.187
	c0.754,1.646,2.021,2.563,3.847,1.795C81.057,104.488,81.382,101.714,84.078,102.094z M127.632,44.745
	c0.73,0.052,1.428,0.175,2.082,0.355c-0.121-0.209-0.302-0.408-0.549-0.564C128.676,44.432,128.155,44.531,127.632,44.745z
	 M113.034,53.023c-0.466-0.403-1.238-0.397-2.012-0.521c0.096,0.415,0.219,0.838,0.355,1.253c0.553,0.574,1.298,0.692,2.003,0.779
	C113.792,54.18,113.859,53.741,113.034,53.023z M129.8,52.013c-2.213-0.539-3.6,0.72-5.422-1.104
	c-1.047-1.05-3.486-1.649-4.319-0.136c-0.24,0.956-0.269,1.953-0.854,2.768c-0.57,0.792-1.399,0.566-2.011,1.15
	c-0.64,0.61-0.807,1.227-1.23,1.771c-0.472,0.609-1.585,2.922-2.854,2.963c0.312,0.937,1.08,1.938,1.885,1.984
	c1.311,0.08,2.466-2.343,2.949-2.968c0.425-0.548,0.592-1.162,1.229-1.771c0.608-0.584,1.44-0.359,2.012-1.151
	c0.585-0.812,0.609-1.812,0.853-2.768c0.833-1.519,3.272-0.914,4.32,0.135c1.823,1.822,3.209,0.563,5.423,1.104
	c0,0,0.594,0.195,1.325,0.665C131.932,52.716,129.8,52.013,129.8,52.013z M134.526,44.695c-0.02,0.552-0.013,0.97,0.05,1.039
	c0.273,0.322,0.665,0.516,1.076,0.663c0.062-0.187,0.102-0.396,0.093-0.653C135.648,45.142,135.135,44.897,134.526,44.695z
	 M90.313,87.752c0.001,0,0.001,0,0.002,0C90.314,87.752,90.313,87.752,90.313,87.752L90.313,87.752z M95.151,89.807
	c-0.407-0.024-0.826-0.027-1.243-0.033c0.027,2.974-0.885,8.279,2.029,8.072C95.369,94.917,96.598,89.781,95.151,89.807z
	 M73.557,110.533c0.782,1.337,0.712,2.588,1.603,3.867c0.369,0.532,0.888,0.781,1.438,0.955c-0.488-1.231-0.534-2.469-1.783-3.809
	C74.413,111.117,73.987,110.8,73.557,110.533z M80.849,111.898c-0.502,1.889,2.562,1.919,4.742,2.832
	C85.161,112.839,82.687,112.443,80.849,111.898z M81.19,118.695c-0.381-0.674-1.012-0.917-1.688-1.104
	c0.29,1.443-0.084,3.36,0.558,4.689c0.29,0.604,1.072,1.609,2.062,2.661c0.175,0.086,0.341,0.159,0.499,0.229
	c-0.261-0.354-0.462-0.667-0.58-0.909C81.259,122.64,82.004,120.135,81.19,118.695z" style="fill:#D0F7CB;"></path>
<g style="opacity:0.77;enable-background:new    ;">
	<path d="M197.939,101.789c0.749-1.279,1.77-1.331,1.399-3.271l-0.193-0.235
		c-0.537-1.682-0.578-4.132-0.581-6.174c0-0.009,0-0.017,0-0.023c-1.417,0.376-1.5,1.35-1.497,3.751
		c0.003,2.07,0.06,4.546,0.704,6.274C197.825,102.005,197.875,101.9,197.939,101.789z M210.247,147.865
		c2.456-7.805,4.686-15.764,4.686-24.378c0-10.56-1.874-21.06-5.489-30.382c2.17,8.096,3.29,16.938,3.29,25.829
		c0,6.488-1.067,12.593-2.456,18.542c0.017,0,0.028-0.002,0.043-0.002c0.071,0.01,0.602,0.02,0.657,0.007
		c2,0.442,0.896,3.157,0.741,4.849L210.247,147.865z M209.594,132.51c-0.046,0.012-0.465,0.004-0.521-0.008
		c-4.688,0.083-3.813,5.897-5.297,6.338c-3.884,0-0.131-8.551-5.02-12.606c-1.452-1.208-2.296-2.811-2.764-4.464
		c0.05-2.788,0.194-5.827-0.118-8.093c-0.137-3.247,1.199-4.667,1.328-7.799c0.019-0.395,0.021-0.738,0.029-1.063
		c-0.309,0.271-0.65,0.566-0.958,0.996c-1.001,1.398-0.831,2.354-0.924,4.215c-0.163,3.229-1.85,4.691-1.679,8.039
		c0.398,2.336,0.218,5.47,0.151,8.344c0.59,1.703,1.648,3.355,3.483,4.604c6.16,4.182,1.432,12.995,6.324,12.995
		c1.852-0.447,0.803-6.309,6.484-6.522l0.061-0.271C210.304,135.575,211.18,132.941,209.594,132.51z" style="fill:#A8DEA0;"></path>
</g>
<path d="M108.223,201.494c-0.169,0-0.34-0.028-0.505-0.088l-7.466-2.674
	c-0.623-0.223-1.026-0.828-0.992-1.489c0.124-2.418,0.018-5.992-0.085-9.448c-0.064-2.146-0.125-4.173-0.125-5.796
	c0-2.047,0.166-4.234,0.467-6.159l0.025-0.157c0.312-1.965,0.338-2.125-0.615-3.111c-0.875-0.908-1.902-1.689-2.989-2.517
	c-1.68-1.278-3.417-2.601-4.755-4.523c-1.004-1.44-1.714-2.941-2.401-4.394c-0.71-1.503-1.381-2.922-2.349-4.254
	c-0.288-0.396-0.685-0.827-1.106-1.285c-0.926-1.005-1.975-2.145-2.378-3.507c-0.458-1.545-1.312-4.422,0.228-6.833
	c0.048-0.075,0.104-0.146,0.165-0.213c0.887-0.956,0.968-1.306,0.971-1.32c-0.015,0.025-0.051-0.037-0.082-0.106
	c-0.201-0.447-0.538-1.195-0.269-2.309c0.067-0.28,0.214-0.536,0.423-0.734c0.281-0.268,0.547-0.59,0.83-0.931
	c0.427-0.516,0.91-1.1,1.577-1.669c0.469-0.4,0.983-0.744,1.481-1.077c0.711-0.476,1.447-0.967,1.753-1.457
	c0.222-0.351,0.477-1.139,0.54-2.318c0.008-0.101,0.012-0.165,0.012-0.233v-0.224c0-0.007,0-0.16,0-0.167
	c-0.007-2.894,0.154-4.61,3.523-6.232c0.168-0.081,0.349-0.13,0.534-0.144l0,0c-0.005,0,0.103-0.027,0.329-0.196
	c0.103-0.076,0.215-0.14,0.333-0.188c0.949-0.386,2.138-0.816,3.743-1.356c0.063-0.021,0.128-0.038,0.193-0.051
	c1.419-0.274,2.975-0.414,4.624-0.414c8.781,0,12.879,2.2,18.653,7.129c0.14,0.087,0.266,0.195,0.37,0.322
	c0.896,0.776,1.714,1.531,2.437,2.247c0.495,0.329,1.071,0.751,1.688,1.366c0.361,0.36,0.674,0.686,0.958,0.981
	c1.303,1.355,1.79,1.862,3.867,2.518l0.605,0.187c2.108,0.644,4.995,1.524,6.359,3.516c0.706,1.033,0.949,2.229,1.164,3.284
	c0.067,0.331,0.133,0.655,0.213,0.955c0.062,0.235,0.165,0.48,0.273,0.739c0.363,0.868,0.948,2.267-0.203,3.819
	c0.185,0.275,0.44,0.693,0.527,1.219c0.362-0.024,0.815-0.091,1.289-0.161c0.779-0.115,1.662-0.245,2.525-0.245
	c2.666,0,3.806,1.312,4.283,2.598c1,0.656,2.642,0.703,4.233,0.748c0.834,0.024,1.696,0.049,2.485,0.165
	c1.663,0.244,3.414,0.56,4.919,1.48c0.556,0.342,0.936,0.746,1.242,1.071c0.433,0.461,0.467,0.458,0.612,0.461
	c0.082,0,0.172-0.012,0.272-0.031c0.189-0.037,0.383-0.037,0.572,0c1.108,0.215,1.877,0.92,2.106,1.935
	c0.707,3.12-4.324,7.99-5.812,9.09c-2.532,1.867-3.962,4.236-5.477,6.744c-1.329,2.201-2.704,4.477-4.893,6.602
	c-1.712,1.657-2.766,1.822-4.933,1.822l-0.332-0.001c-0.261,0-0.536-0.011-0.815-0.022c-0.255-0.01-0.514-0.021-0.769-0.021
	c-1.067,0-1.119,0.188-1.169,0.368c-0.17,0.62-0.717,1.062-1.359,1.1c-0.029,0.002-0.115,0.005-0.144,0.005
	c-0.743,0-1.394-0.33-1.916-0.596c-0.06-0.03-0.128-0.064-0.198-0.1c-0.264,1.233-1.058,1.953-1.609,2.454
	c-0.242,0.22-0.452,0.41-0.598,0.607c-0.695,0.943-1.096,1.27-1.862,1.519c-0.212,0.068-0.499,0.162-1.26,0.729
	c-0.106,0.133-0.312,0.555-0.438,0.811c-0.326,0.666-0.635,1.294-1.198,1.687c-0.98,0.675-1.915,0.688-2.665,0.699
	c-0.363,0.005-0.676,0.01-1,0.08c-0.579,0.125-1.112,0.26-1.636,0.393c-1.216,0.307-2.468,0.622-4.098,0.781
	c0,0.002-0.001,0.004-0.001,0.006c-0.015,0.102-0.036,0.202-0.037,0.294c0.057,0.416-0.065,0.811-0.333,1.134
	c-0.269,0.323-0.662,0.492-1.082,0.514c-0.814,0.041-1.612,0.021-2.392,0.001c-0.406-0.011-0.806-0.021-1.2-0.021
	c-1.726,0-2.943,0.207-4.058,1.269c-0.475,0.449-2.286,2.352-2.659,2.794C109.079,201.306,108.656,201.494,108.223,201.494z
	 M102.297,196.279l5.489,1.966c0.756-0.812,1.816-1.91,2.178-2.253c1.931-1.838,4.083-2.092,6.123-2.092
	c0.42,0,0.846,0.011,1.279,0.022c0.267,0.007,0.535,0.014,0.806,0.019c0.006-0.383,0.18-0.718,0.481-1.002
	c0.098-0.092,0.193-0.168,0.284-0.23c0.266-0.374,0.69-0.637,1.148-0.663c1.79-0.102,3.004-0.408,4.411-0.763
	c0.556-0.14,1.121-0.282,1.733-0.415c0.616-0.134,1.158-0.142,1.593-0.148c0.495-0.007,0.72-0.019,0.902-0.107
	c0.086-0.141,0.218-0.41,0.311-0.599c0.295-0.603,0.63-1.285,1.156-1.752c0.029-0.026,0.06-0.051,0.09-0.074
	c1.126-0.852,1.714-1.083,2.219-1.247c0.012-0.004,0.019-0.005,0.023-0.006c0.051-0.054,0.157-0.177,0.352-0.44
	c0.323-0.438,0.681-0.762,0.996-1.048c0.562-0.511,0.695-0.667,0.713-1.031c0.007-0.16,0.04-0.318,0.098-0.468
	c0.639-1.66,1.803-1.907,2.44-1.907c0.713,0,1.34,0.3,1.852,0.559c0.708-0.772,1.814-1.162,3.309-1.162
	c0.294,0,0.593,0.012,0.887,0.023c0.241,0.01,0.479,0.02,0.705,0.02l0.324,0.001c1.654,0,1.869-0.032,2.845-0.977
	c1.909-1.853,3.125-3.866,4.412-5.998c1.6-2.648,3.253-5.387,6.263-7.606c1.921-1.421,4.105-4.26,4.573-5.581
	c-1.432-0.025-2.211-0.854-2.729-1.405c-0.221-0.234-0.411-0.438-0.624-0.568c-1.021-0.625-2.374-0.862-3.788-1.069
	c-0.614-0.091-1.353-0.112-2.134-0.135c-2.193-0.062-4.679-0.134-6.451-1.749c-0.22-0.199-0.375-0.46-0.446-0.749
	c-0.104-0.416-0.21-0.847-1.533-0.847c-0.643,0-1.377,0.108-2.086,0.213c-0.707,0.104-1.374,0.203-1.984,0.203
	c-1.979,0-2.723-1.2-2.759-2.324c-0.003-0.072,0-0.145,0.009-0.217c-0.021-0.029-0.043-0.06-0.063-0.089
	c-0.3-0.438-1.099-1.603-0.214-2.968c0.054-0.082,0.115-0.159,0.184-0.229c0.316-0.325,0.316-0.325,0.008-1.063
	c-0.136-0.323-0.289-0.69-0.404-1.122c-0.095-0.355-0.174-0.738-0.254-1.131c-0.166-0.815-0.337-1.657-0.7-2.188
	c-0.77-1.123-3.171-1.855-4.76-2.341l-0.631-0.194c-2.808-0.886-3.731-1.847-5.129-3.301c-0.271-0.282-0.569-0.592-0.914-0.937
	c-0.478-0.477-0.928-0.794-1.342-1.065c-0.085-0.056-0.166-0.121-0.238-0.193c-0.736-0.735-1.588-1.521-2.531-2.333
	c-0.025-0.022-0.05-0.045-0.074-0.068c-0.009-0.008-0.019-0.015-0.027-0.022c-5.162-4.422-8.503-6.505-16.815-6.505
	c-1.42,0-2.751,0.114-3.957,0.341c-1.405,0.474-2.466,0.856-3.312,1.194c-0.468,0.322-0.926,0.525-1.388,0.615
	c-1.627,0.805-1.627,1.125-1.622,3.423v0.398c0,0.158-0.008,0.305-0.019,0.437c-0.056,1.044-0.276,2.578-0.994,3.713
	c-0.644,1.029-1.696,1.732-2.625,2.354c-0.445,0.298-0.866,0.579-1.201,0.864c-0.469,0.4-0.83,0.838-1.213,1.3
	c-0.195,0.235-0.394,0.477-0.611,0.716c0.014,0.031,0.031,0.069,0.051,0.114c0.693,1.54,0.349,2.752-1.32,4.584
	c-0.714,1.258-0.157,3.135,0.179,4.268c0.206,0.695,0.97,1.525,1.709,2.327c0.46,0.5,0.937,1.018,1.326,1.554
	c1.133,1.56,1.896,3.174,2.634,4.735c0.663,1.401,1.289,2.727,2.15,3.961c1.068,1.536,2.545,2.66,4.109,3.851
	c1.129,0.859,2.297,1.748,3.332,2.821c1.991,2.062,1.763,3.496,1.418,5.665l-0.024,0.152c-0.273,1.749-0.431,3.825-0.431,5.693
	c0,1.578,0.06,3.583,0.123,5.706C102.263,190.733,102.356,193.85,102.297,196.279z M84.728,126.926L84.728,126.926
	c-0.801,0-1.76-0.285-3.019-0.897c-0.164-0.079-0.312-0.188-0.437-0.321c-0.659-0.702-1.837-2.03-2.321-3.042
	c-0.529-1.097-0.546-2.345-0.56-3.446c-0.01-0.767-0.021-1.635-0.243-2.027c-0.117-0.208-0.42-0.305-1.085-0.478
	c-0.875-0.228-2.075-0.54-2.893-1.721c-0.611-0.88-0.863-1.726-1.084-2.472c-0.246-0.826-0.44-1.479-1.104-2.192
	c-0.61-0.655-1.297-0.99-2.093-1.376c-0.62-0.301-1.26-0.613-1.879-1.091c-1.109-0.857-1.657-2.124-2.187-3.349
	c-0.25-0.578-0.486-1.125-0.767-1.594c-0.228-0.382-0.467-0.731-0.697-1.07c-0.775-1.14-1.576-2.318-1.771-4.127
	c-0.143-1.328,0.12-2.499,0.373-3.63c0.186-0.828,0.361-1.61,0.358-2.398c-0.007-1.511-0.106-3.08-0.202-4.597
	c-0.209-3.299-0.424-6.711,0.229-10.128c0.155-0.811,0.271-1.709,0.395-2.661l0.153-1.156c0.033-0.242,0.125-0.472,0.268-0.67
	c15.568-21.651,40.758-34.697,67.383-34.897l1.318-0.004c0.482,0.024,0.969,0.246,1.248,0.661c0.364,0.539,0.339,1.018,0.235,3.032
	c-0.021,0.428-0.051,0.999-0.062,1.413c0.188,0.075,0.422,0.148,0.604,0.205c0.868,0.271,2.322,0.723,2.582,2.349
	c0.01,0.06,0.016,0.12,0.018,0.181c0.09,2.414-1.961,3.049-2.733,3.288c-0.516,0.161-1.079,0.03-1.474-0.342
	c-0.956-0.903-3.034-2.419-6.2-2.419c-0.427,0-0.865,0.029-1.3,0.086c-0.597,0.082-1.171-0.209-1.474-0.704
	c-0.08,0.064-0.155,0.126-0.227,0.185c-0.481,0.392-0.897,0.731-1.284,0.962c-1.287,0.771-2.483,0.896-4.09,0.76
	c-0.541-0.047-1.151-0.102-1.923-0.06c-0.365,0.021-0.818,0.18-1.297,0.35c-0.429,0.151-0.915,0.322-1.431,0.425
	c-0.473,0.094-1.093,0.102-1.769,0.079c-0.19-0.006-0.38-0.013-0.567-0.013c-0.393,0-0.573,0.033-0.655,0.062
	c-0.23,0.078-0.814,0.276-0.134,2.534c0.227,0.103,0.564,0.151,1.027,0.207c0.711,0.085,1.595,0.192,2.304,0.809
	c0.32,0.277,1.298,1.125,1.149,2.357c-0.147,1.22-1.221,1.77-2.004,2.171c-0.196,0.1-0.494,0.253-0.666,0.371
	c0.068,0.338,0.358,0.859,0.6,1.081c0.399-0.312,1.003-1.28,1.217-1.622c0.185-0.296,0.343-0.542,0.463-0.699
	c0.118-0.152,0.203-0.312,0.295-0.475c0.237-0.417,0.532-0.937,1.089-1.468c0.518-0.498,1.098-0.682,1.482-0.803
	c0.117-0.037,0.293-0.093,0.333-0.123c0.244-0.338,0.336-0.832,0.444-1.404c0.054-0.289,0.11-0.58,0.182-0.867
	c0.031-0.125,0.079-0.246,0.141-0.359c0.591-1.074,1.702-1.69,3.048-1.69c1.312,0,2.743,0.583,3.646,1.486
	c0.554,0.555,0.916,0.598,1.366,0.598c0.227,0,0.456-0.018,0.693-0.034c0.863-0.06,1.819-0.059,2.657,0.144
	c0.038,0.009,0.077,0.021,0.114,0.033c0.137,0.045,3.37,1.141,4.616,4.287c0.891,2.248,0.54,4.861-1.043,7.769
	c-0.241,0.443-0.688,0.735-1.191,0.778c-0.042,0.003-0.158,0.009-0.2,0.009c-0.922,0-1.491-0.523-1.948-0.944
	c-0.489-0.451-1.16-1.067-2.777-1.792c-0.478-0.214-0.933-0.322-1.352-0.322c-1.27,0-1.815,0.985-1.991,1.409
	c-0.408,0.985-0.377,2.645,1.056,4.077c1.697,1.696,1.653,3.067,1.318,3.919c-0.889,2.259-4.642,2.637-5.981,2.698
	c-0.036,0.004-0.072,0.008-0.109,0.01c-0.422,0.023-0.642,0.137-0.815,0.304c-0.18,0.28-0.217,0.537-0.266,0.882
	c-0.09,0.624-0.299,2.085-2.155,2.384l-0.777,0.12c-1.49,0.224-1.718,0.258-2.877,1.257c-1.708,1.472-2.804,2.828-3.555,4.398
	c-1.209,2.528-1.626,2.845-3.974,3.897l-0.136,0.061c-0.734,0.329-1.582,0.579-2.479,0.843c-1.9,0.56-4.054,1.194-4.305,2.436
	c-0.117,0.576,0.068,1.15,0.302,1.877c0.24,0.745,0.512,1.59,0.456,2.563c-0.103,1.754-0.527,4.243-3.018,5.596
	c-0.124,0.067-0.257,0.117-0.395,0.147c-1.262,0.275-2.364-0.021-3.135-0.827c-1.419-1.482-1.3-4.2-1.185-6.829
	c0.031-0.708,0.074-1.685,0.037-2.295c-0.223-0.004-0.436-0.006-0.649-0.008c-0.51-0.005-1.021-0.011-1.52-0.041
	c-0.516-0.031-0.979-0.326-1.227-0.779c-0.032-0.06-0.06-0.109-0.084-0.151c-0.163-0.097-0.339-0.214-0.563-0.408
	c-0.125-0.107-0.229-0.234-0.312-0.374c-0.037,0.097-0.083,0.194-0.14,0.29c-0.269,0.455-0.714,0.762-1.255,0.864
	c-0.348,0.065-0.707,0.007-1.016-0.168c-1.148-0.649-2.756-0.964-4.917-0.964c-0.303,0-0.605,0.006-0.906,0.016
	c-1.788,0.062-1.855,0.205-2.502,1.569c-0.237,0.499-0.532,1.12-0.959,1.827c-0.223,0.368-0.592,0.622-1.015,0.699
	c-0.872,0.159-1.958,3.174-1.649,6.589c0.208,2.302,1.006,3.972,1.899,3.972c0.19,0,0.413-0.053,0.663-0.158
	c0.597-0.251,1.032-0.754,1.535-1.336c0.79-0.915,1.872-2.168,3.834-2.168c0.792,0,1.65,0.205,2.623,0.625
	c0.07,0.03,0.137,0.065,0.202,0.106c0.479,0.301,1.069,0.933,1.151,2.232c0.089,1.419-0.491,3.481-1.744,4.508
	c-0.048,0.039-0.098,0.075-0.15,0.108c-0.147,0.093-0.316,0.195-0.5,0.306c-0.525,0.317-1.503,0.908-1.755,1.25
	c-0.101,0.137-0.15,0.339-0.229,0.685c-0.109,0.479-0.261,1.149-0.742,1.791c0.39,0.175,1.078,0.362,1.571,0.496
	c2.059,0.56,5.89,1.603,5.011,5.768c-0.126,0.595-0.433,1.248-0.788,2.005c-0.327,0.696-0.874,1.861-0.852,2.315
	c0.042,0.838,0.46,1.801,1.017,2.341c0.22,0.214,0.369,0.489,0.427,0.79c0.199,1.023,0.045,1.852-0.457,2.462
	C86.322,126.474,85.737,126.926,84.728,126.926z M83.269,123.448c0.077,0.035,0.149,0.067,0.219,0.098
	c-0.485-0.885-0.787-1.902-0.836-2.896c-0.06-1.201,0.573-2.55,1.132-3.74c0.229-0.488,0.515-1.096,0.569-1.35
	c0.231-1.097-0.099-1.501-2.863-2.253c-1.501-0.409-3.054-0.831-3.687-2.159c-0.241-0.506-0.427-1.341,0.061-2.445
	c0.086-0.194,0.212-0.369,0.371-0.511c0.134-0.121,0.18-0.256,0.288-0.732c0.111-0.488,0.263-1.156,0.742-1.803
	c0.604-0.818,1.719-1.492,2.616-2.034c0.125-0.075,0.242-0.146,0.349-0.212c0.351-0.355,0.633-1.354,0.612-1.9
	c-0.388-0.137-0.72-0.206-0.992-0.206c-0.541,0-0.841,0.292-1.563,1.129c-0.622,0.721-1.396,1.618-2.643,2.142
	c-0.62,0.26-1.233,0.393-1.825,0.393c-2.641,0-4.514-2.568-4.887-6.702c-0.358-3.971,0.712-8.434,3.357-9.585
	c0.214-0.392,0.386-0.755,0.543-1.086c0.931-1.963,1.74-3.164,5.109-3.281c0.335-0.012,0.673-0.018,1.01-0.018
	c1.654,0,3.081,0.167,4.309,0.506c0.045-0.105,0.104-0.21,0.18-0.315c0.326-0.45,0.965-0.713,1.525-0.643
	c1.077-0.086,2.093,0.131,3.185,0.661c0.271,0.131,0.496,0.341,0.646,0.603c0.114,0.199,0.179,0.394,0.215,0.571
	c0.136,0.099,0.255,0.208,0.369,0.34c0.211,0.004,0.423,0.006,0.634,0.008c0.5,0.005,0.998,0.01,1.485,0.039v0
	c0.542,0.026,1.013,0.242,1.369,0.614c0.896,0.937,0.826,2.55,0.728,4.783c-0.055,1.251-0.183,4.181,0.36,4.628
	c0.046,0,0.086-0.002,0.124-0.005c0.681-0.44,1.148-1.181,1.256-3.017c0.024-0.413-0.133-0.901-0.316-1.468
	c-0.294-0.913-0.661-2.049-0.387-3.394c0.609-3.012,3.818-3.957,6.396-4.717c0.798-0.235,1.552-0.458,2.101-0.703l0.136-0.061
	c1.681-0.753,1.681-0.753,2.494-2.454c0.938-1.962,2.266-3.621,4.302-5.376c1.742-1.501,2.604-1.683,4.391-1.952l0.422-0.065
	c0.077-0.522,0.225-1.333,0.84-2.185c0.034-0.047,0.071-0.092,0.11-0.135c0.721-0.787,1.655-1.231,2.778-1.324
	c0.058-0.009,0.116-0.015,0.175-0.017c1.341-0.051,2.904-0.416,3.366-0.768c-0.064-0.128-0.217-0.371-0.583-0.736
	c-2.04-2.041-2.71-4.924-1.707-7.347c0.833-2.011,2.658-3.261,4.763-3.261c0.845,0,1.712,0.197,2.579,0.584
	c1.441,0.647,2.341,1.269,2.945,1.764c0.539-1.437,0.609-2.683,0.207-3.718c-0.651-1.676-2.412-2.425-2.732-2.549
	c-0.503-0.11-1.114-0.088-1.666-0.049c-0.309,0.021-0.607,0.041-0.902,0.041c-0.938,0-2.181-0.168-3.488-1.477
	c-0.298-0.297-0.95-0.606-1.525-0.606c-0.155,0-0.27,0.021-0.343,0.063c-0.028,0.136-0.054,0.271-0.079,0.407
	c-0.152,0.807-0.324,1.722-0.946,2.587c-0.606,0.844-1.4,1.095-1.874,1.245c-0.118,0.037-0.278,0.088-0.322,0.117
	c-0.233,0.224-0.365,0.455-0.546,0.775c-0.142,0.25-0.303,0.535-0.529,0.827c-0.077,0.1-0.174,0.263-0.294,0.455
	c-0.723,1.159-1.933,3.097-3.777,3.097c-0.031,0-0.125-0.003-0.155-0.005c-1.004-0.061-1.945-0.707-2.65-1.818
	c-0.592-0.933-1.063-2.33-0.615-3.453c0.313-0.781,0.963-1.264,1.577-1.613c-0.866-0.106-2.005-0.28-2.92-1.232
	c-0.155-0.161-0.271-0.354-0.342-0.565c-1.514-4.538,0.186-6.174,1.878-6.749c0.574-0.196,1.168-0.221,1.621-0.221
	c0.219,0,0.442,0.007,0.665,0.015c0.432,0.014,0.873,0.02,1.086-0.023c0.306-0.061,0.652-0.183,1.018-0.312
	c0.626-0.221,1.335-0.471,2.128-0.515c0.959-0.055,1.714,0.011,2.348,0.066c0.815,0.069,1.368,0.208,2.293-0.345
	c0.2-0.12,0.57-0.422,0.929-0.713c1.149-0.937,2.685-2.188,4.339-2.406c-23.654,1.675-45.671,13.819-59.708,33.147l-0.102,0.765
	c-0.129,0.997-0.251,1.938-0.423,2.837c-0.582,3.044-0.387,6.12-0.182,9.376c0.099,1.561,0.201,3.173,0.208,4.773
	c0.004,1.127-0.227,2.158-0.431,3.067c-0.219,0.976-0.408,1.818-0.318,2.652c0.115,1.063,0.599,1.775,1.269,2.761
	c0.263,0.386,0.532,0.784,0.792,1.218c0.381,0.638,0.668,1.301,0.945,1.942c0.396,0.917,0.771,1.782,1.268,2.166
	c0.375,0.289,0.83,0.511,1.357,0.767c0.885,0.43,1.985,0.965,2.976,2.029c1.145,1.228,1.5,2.422,1.785,3.382
	c0.188,0.632,0.336,1.131,0.674,1.617c0.168,0.243,0.489,0.347,1.183,0.527c0.922,0.24,2.185,0.568,2.941,1.903
	c0.6,1.061,0.616,2.283,0.632,3.465c0.011,0.828,0.022,1.684,0.264,2.186C81.823,121.716,82.381,122.481,83.269,123.448z
	 M129.639,43.21c0.608,0.128,1.175,0.297,1.699,0.492c-0.095-0.504-0.057-1.242,0.012-2.582c0.009-0.162,0.019-0.346,0.027-0.534
	c-1.46,0.015-2.916,0.069-4.365,0.163c0.208,0.018,0.493,0.025,0.728,0.075c0.177,0.038,0.346,0.107,0.498,0.205
	C129.063,41.558,129.572,42.371,129.639,43.21z" style="fill:#6E6E96;"></path>
<path d="M210.12,149.049c-0.139,0-0.279-0.019-0.418-0.06c-0.783-0.227-1.241-1.036-1.033-1.824l1.435-5.421
	c0.045-0.404,0.125-0.828,0.203-1.239c0.098-0.518,0.271-1.433,0.21-1.833c-0.111-0.003-0.229-0.007-0.325-0.012
	c-2.771,0.047-3.325,1.646-3.966,3.496c-0.429,1.238-0.915,2.642-2.366,2.993c-0.116,0.027-0.234,0.042-0.354,0.042
	c-3.733,0-3.979-3.443-4.157-5.958c-0.193-2.714-0.394-5.521-3.01-7.298c-1.91-1.296-3.276-3.097-4.06-5.351
	c-0.059-0.169-0.087-0.348-0.083-0.526l0.039-1.417c0.069-2.374,0.141-4.829-0.167-6.641c-0.01-0.058-0.017-0.116-0.02-0.174
	c-0.108-2.108,0.428-3.609,0.901-4.933c0.366-1.026,0.713-1.995,0.776-3.258c0.015-0.303,0.022-0.582,0.03-0.842
	c0.04-1.415,0.074-2.637,1.172-4.17c0.394-0.548,0.809-0.914,1.143-1.208c0.331-0.292,0.444-0.392,0.45-0.571
	c-0.104-0.125-0.188-0.266-0.248-0.418c-0.762-1.959-0.829-4.592-0.832-6.905c-0.006-3.367,0.406-5.086,4.003-5.411
	c1.252-1.961,2.659-2.954,4.192-2.954c0.625,0,1.239,0.17,1.825,0.505c1.119,0.639,1.63,1.608,2.04,2.386
	c0.013,0.023,0.024,0.046,0.036,0.068c0.333-0.367,0.826-0.548,1.324-0.477c0.523,0.075,0.969,0.42,1.172,0.908
	c4.104,9.849,6.272,21.13,6.272,32.624c0,8.972-2.35,17.185-4.757,24.828C211.348,148.639,210.758,149.049,210.12,149.049z
	 M195.203,125.849c0.582,1.532,1.507,2.713,2.82,3.604c3.821,2.596,4.108,6.625,4.317,9.567c0.164,2.306,0.344,2.935,0.693,3.106
	c0.116-0.257,0.25-0.645,0.356-0.952c0.658-1.902,1.885-5.443,6.773-5.515c0.079,0.001,0.155,0.004,0.23,0.015
	c-0.014-0.004,0.145-0.002,0.263-0.002v0.006c0.17-0.021,0.34-0.014,0.507,0.023c0.232,0.052,0.443,0.118,0.635,0.198
	c0.904-4.093,1.508-8.333,1.508-12.729c0-10.202-1.765-20.219-5.119-29.139c-0.392,0.13-0.837,0.099-1.222-0.12
	c-1.172-0.671-1.696-1.666-2.118-2.465c-0.327-0.622-0.529-0.983-0.874-1.18c-0.13-0.075-0.239-0.11-0.337-0.11
	c-0.375,0-1.124,0.559-2,2.133c-0.256,0.462-0.737,0.754-1.266,0.771c-1.404,0.042-1.717,0.198-1.779,0.245
	c-0.154,0.245-0.151,1.573-0.15,2.21c0.002,1.392,0.006,3.912,0.527,5.537c0.205,0.201,0.348,0.455,0.412,0.734
	c0.52,2.252-0.591,3.231-1.326,3.879c-0.265,0.234-0.494,0.436-0.688,0.706c-0.562,0.786-0.575,1.254-0.61,2.506
	c-0.008,0.28-0.017,0.58-0.033,0.908c-0.086,1.706-0.544,2.987-0.947,4.117c-0.426,1.191-0.795,2.223-0.734,3.689
	c0.34,2.088,0.265,4.654,0.192,7.137L195.203,125.849z" style="fill:#6E6E96;"></path>
<g style="opacity:0.15;enable-background:new    ;">
	<path d="M165.535,58.792c0.331-1.709,0.741-3.227,0.298-3.456c-1.147-0.103-0.312-1.136-0.818-1.854
		c-1.229-0.409-2.474-0.812-3.723-1.276c-1.229,2.77,1.37,3.771,3.404,4.512C165.704,57.339,164.742,58.496,165.535,58.792z
		 M180.28,63.448c-0.242,0.402-0.601,0.771-1.104,1.082c-0.938,0.577-3.354,0.029-4.5,0.396c-1.707,0.544-1.056,3.517-3.094,3.362
		c-1.745-0.439-4.021-0.858-5.471-1.941c-1.118-1.066,2.092-1.104,0.623-2.285c-0.686-0.167-1.085-0.601-1.303-1.187
		c-0.363,2.083-0.469,4.274,1.303,4.707c1.469,1.182-1.741,1.219-0.623,2.286c1.449,1.083,3.726,1.501,5.471,1.94
		c2.038,0.152,1.387-2.818,3.094-3.364c1.146-0.363,3.563,0.184,4.5-0.396C180.997,66.925,180.933,65.075,180.28,63.448z" style="fill:#6E6E96;"></path>
</g>
<g style="opacity:0.15;enable-background:new    ;">
	<path d="M180.732,67.082c-0.257,0.449-0.631,0.861-1.152,1.217c-0.97,0.657-3.438,0.092-4.618,0.518
		c-1.759,0.633-1.143,3.913-3.229,3.778c-1.779-0.458-4.105-0.883-5.571-2.059c-1.13-1.162,2.162-1.261,0.679-2.542
		c-0.697-0.173-1.104-0.646-1.313-1.29c-0.407,2.312-0.551,4.743,1.254,5.188c1.485,1.283-1.807,1.379-0.678,2.542
		c1.467,1.175,3.791,1.601,5.569,2.06c2.09,0.134,1.474-3.146,3.229-3.779c1.183-0.424,3.648,0.142,4.62-0.515
		C181.405,70.921,181.372,68.873,180.732,67.082z M165.699,62.18c0.368-1.898,0.816-3.585,0.362-3.833
		c-1.176-0.093-0.297-1.252-0.81-2.038c-1.252-0.435-2.521-0.855-3.792-1.353c-1.311,3.087,1.34,4.152,3.413,4.938
		C165.896,60.568,164.892,61.865,165.699,62.18z" style="fill:#6E6E96;"></path>
</g>
<g style="opacity:0.15;enable-background:new    ;">
	<path d="M156.019,42.393c29.63,11.146,50.714,39.745,50.714,73.271c0,43.226-35.04,78.266-78.266,78.266
		c-40.719,0-74.17-31.098-77.91-70.836c0.966,44.571,37.396,80.407,82.2,80.407c45.413,0,82.228-36.813,82.228-82.228
		C214.984,83.943,190.103,52.427,156.019,42.393z" style="fill:#6E6E96;"></path>
</g>
<g style="opacity:0.51;">
	<path d="M239.563,163.969c0.726-2.22,2.993-4.943,5.045-6.058l0.01-0.005c2.055-1.112,2.055-2.933,0-4.043
		l-0.01-0.007c-2.052-1.109-4.438-3.616-5.3-5.564c-0.863-1.951-2.274-1.951-3.142,0c-0.86,1.951-3.248,4.455-5.305,5.564
		l-0.01,0.007c-2.057,1.11-2.057,2.931,0,4.043l0.01,0.005c2.057,1.11,4.321,3.838,5.046,6.058l0.515,1.567
		c0.726,2.22,1.899,2.22,2.627,0L239.563,163.969z" style="fill:#CCCCDE;"></path>
</g>
<g style="opacity:0.51;">
	<path d="M27.188,190.193c0.615-1.888,2.546-4.207,4.292-5.149l0.008-0.005c1.745-0.943,1.745-2.493,0-3.438
		l-0.008-0.006c-1.746-0.942-3.773-3.076-4.508-4.734c-0.735-1.656-1.938-1.656-2.672,0c-0.73,1.658-2.763,3.792-4.509,4.734
		l-0.007,0.006c-1.746,0.942-1.746,2.491,0,3.438l0.007,0.005c1.746,0.942,3.679,3.268,4.292,5.149l0.437,1.334
		c0.613,1.892,1.621,1.892,2.233,0L27.188,190.193z" style="fill:#CCCCDE;"></path>
</g>
<g style="opacity:0.51;" id="Layer_7_2_">
	<path d="M106.477,23.628c0.812-2.491,3.358-5.552,5.666-6.802l0.012-0.005c2.307-1.25,2.307-3.295,0-4.537
		l-0.012-0.012c-2.308-1.249-4.981-4.062-5.951-6.252c-0.97-2.188-2.562-2.188-3.53,0c-0.966,2.19-3.646,5.004-5.951,6.252
		l-0.01,0.012c-2.308,1.242-2.308,3.285,0,4.537l0.01,0.005c2.308,1.251,4.854,4.313,5.667,6.802l0.579,1.761
		c0.809,2.493,2.143,2.493,2.946,0L106.477,23.628z" style="fill:#CCCCDE;"></path>
</g>
<g style="opacity:0.51;">
	<path d="M224.088,24.471c0.467-1.43,1.928-3.185,3.248-3.896l0.006-0.003c1.32-0.718,1.32-1.89,0-2.604
		l-0.006-0.003c-1.318-0.717-2.854-2.327-3.412-3.584c-0.555-1.255-1.465-1.255-2.02,0c-0.556,1.257-2.092,2.867-3.41,3.584
		l-0.008,0.003c-1.318,0.716-1.318,1.887,0,2.604l0.008,0.003c1.318,0.716,2.779,2.471,3.248,3.896l0.328,1.009
		c0.467,1.433,1.227,1.433,1.688,0L224.088,24.471z" style="fill:#CCCCDE;"></path>
</g>
<g style="opacity:0.51;">
	<path d="M159.174,232.475c0.467-1.43,1.928-3.185,3.248-3.896l0.008-0.003c1.318-0.718,1.318-1.891,0-2.604
		l-0.008-0.003c-1.318-0.718-2.854-2.328-3.412-3.585c-0.555-1.255-1.465-1.255-2.019,0c-0.557,1.257-2.092,2.867-3.411,3.585
		l-0.006,0.003c-1.319,0.715-1.319,1.887,0,2.604l0.007,0.003c1.319,0.715,2.78,2.47,3.248,3.896l0.329,1.01
		c0.466,1.432,1.226,1.432,1.689,0L159.174,232.475z" style="fill:#CCCCDE;"></path>
</g>
<g style="opacity:0.51;">
	<path d="M32.094,85.914c0.466-1.431,1.927-3.187,3.247-3.897l0.008-0.003c1.318-0.717,1.318-1.889,0-2.604
		l-0.008-0.004c-1.318-0.719-2.854-2.327-3.41-3.584c-0.557-1.256-1.467-1.256-2.021,0c-0.557,1.257-2.092,2.865-3.411,3.584
		l-0.007,0.004c-1.319,0.715-1.319,1.886,0,2.604l0.007,0.003c1.319,0.715,2.78,2.472,3.248,3.897l0.329,1.009
		c0.466,1.431,1.228,1.431,1.689,0L32.094,85.914z" style="fill:#CCCCDE;"></path>
</g>
<g style="opacity:0.34;">
	<polyline points="74.14,48.479 58.204,41.769 64.505,58.113" style="opacity:0.55;fill:#00A0C6;enable-background:new    ;"></polyline>
	<path d="M59.772,36.26l-7.077,7.076l3.042,3.041l0.002-0.004c0.015,0.017,0.026,0.032,0.041,0.047
		c0.644,0.644,2.749-0.419,4.703-2.374c1.955-1.953,3.019-4.062,2.373-4.703c-0.018-0.015-0.03-0.026-0.047-0.04l0.004-0.004
		L59.772,36.26z" style="fill:#C9D2E3;"></path>
	<polygon points="58.701,39.495 61.872,42.666 63.032,39.723 60.37,37.06" style="fill:#FCFCFC;"></polygon>
	<path d="M59.073,35.561l-7.076,7.077c-0.187,0.187-0.29,0.438-0.29,0.698c0,0.263,0.104,0.514,0.29,0.699
		l3.041,3.041c0.196,0.196,0.469,0.303,0.749,0.287c0.279-0.016,0.54-0.146,0.716-0.363c-0.188,0.229-0.464,0.359-0.76,0.362
		c-0.295,0.002-0.574-0.131-0.765-0.356c0.021,0.025,0.058,0.069,0.105,0.119c1.37,1.369,4.143-0.425,6.098-2.38
		c1.954-1.955,3.748-4.727,2.372-6.103c-0.009-0.007-0.017-0.016-0.022-0.021c-0.031-0.028-0.059-0.053-0.075-0.065
		c0.231,0.192,0.354,0.479,0.35,0.778c-0.009,0.302-0.16,0.578-0.402,0.76c0.229-0.173,0.375-0.438,0.396-0.723
		c0.021-0.286-0.083-0.567-0.283-0.771l-3.042-3.041C60.085,35.175,59.459,35.175,59.073,35.561z M62.222,38.51l-0.007,0.003
		c-0.238,0.18-0.386,0.46-0.396,0.761c-0.008,0.301,0.119,0.589,0.351,0.783c-0.001,0,0.024,0.021,0.024,0.021
		c-0.009-0.007-0.03-0.028-0.038-0.036c-0.074-0.075-0.1-0.153-0.103-0.176c0.047,0.36-0.592,1.8-2.271,3.48
		c-1.683,1.684-3.119,2.317-3.482,2.271c0.022,0.003,0.104,0.025,0.178,0.103c0.021,0.021,0.039,0.042,0.045,0.047
		c-0.003-0.002-0.021-0.023-0.022-0.026c-0.188-0.229-0.472-0.357-0.767-0.354c-0.297,0.002-0.574,0.136-0.762,0.365
		c0.177-0.218,0.437-0.35,0.715-0.362c0.277-0.015,0.551,0.092,0.748,0.291l-3.041-3.042c0.186,0.188,0.289,0.438,0.289,0.698
		c0,0.262-0.104,0.514-0.289,0.698l7.076-7.077c-0.389,0.387-1.014,0.387-1.396,0L62.114,40c-0.2-0.203-0.307-0.482-0.286-0.771
		C61.849,38.944,61.991,38.682,62.222,38.51z" style="fill:#6E6E96;"></path>
	<path d="M40.65,44.239c0.961,0.96,0.961,2.531,0,3.492L29.772,58.609c-0.961,0.961-2.531,0.961-3.494,0
		l-9.052-9.052c-0.961-0.961-0.961-2.532,0-3.494l10.878-10.878c0.961-0.961,2.533-0.961,3.494,0L40.65,44.239z" style="fill:#A3D9FF;"></path>
	<path d="M54.478,28.768l-9.354,9.354l5.824,5.822l0.006-0.004c0.018,0.021,0.032,0.042,0.053,0.063
		c0.852,0.85,3.635-0.556,6.218-3.138c2.582-2.582,3.985-5.366,3.136-6.217c-0.021-0.02-0.039-0.035-0.062-0.053l0.007-0.006
		L54.478,28.768z" style="fill:#C9D2E3;"></path>
	<path d="M52.195,32.86l6.437,6.437c0,0,2.384-3.804,1.729-4.646
		c-0.653-0.843-5.43-5.479-5.43-5.479L52.195,32.86z" style="opacity:0.58;fill:#FCFCFC;enable-background:new    ;"></path>
	<path d="M53.778,28.069l-9.354,9.354c-0.186,0.186-0.289,0.438-0.289,0.698c0,0.263,0.104,0.514,0.289,0.697
		l5.823,5.824c0.188,0.188,0.445,0.293,0.714,0.29c0.269-0.004,0.521-0.116,0.704-0.311c-0.194,0.208-0.473,0.317-0.759,0.308
		c-0.285-0.014-0.551-0.149-0.729-0.375c0.028,0.037,0.064,0.083,0.113,0.132c1.561,1.562,4.95-0.447,7.626-3.124
		c1.775-1.775,3.676-4.339,3.676-6.201c-0.001-0.724-0.295-1.168-0.538-1.413c-0.055-0.054-0.104-0.095-0.137-0.118
		c0.236,0.188,0.369,0.478,0.365,0.778c-0.004,0.304-0.149,0.586-0.394,0.771c0.229-0.172,0.37-0.438,0.392-0.722
		c0.02-0.284-0.084-0.564-0.285-0.768l-5.824-5.824C54.79,27.683,54.165,27.683,53.778,28.069z M59.703,33.806l-0.005,0.004
		c-0.242,0.186-0.386,0.47-0.39,0.771c-0.005,0.305,0.131,0.592,0.365,0.782c0.016,0.012-0.002-0.001-0.021-0.021
		c-0.025-0.026-0.041-0.059-0.045-0.067c0.125,0.405-0.586,2.39-3.088,4.893c-2.502,2.502-4.484,3.212-4.893,3.087
		c0.012,0.002,0.041,0.018,0.072,0.05c0.022,0.023,0.028,0.03,0.028,0.031c0,0-0.003-0.003-0.008-0.01
		c-0.181-0.226-0.445-0.36-0.729-0.372c-0.287-0.015-0.562,0.101-0.762,0.31c0.185-0.194,0.436-0.305,0.702-0.309
		c0.269-0.004,0.521,0.104,0.711,0.292l-5.824-5.823c0.187,0.186,0.289,0.438,0.289,0.698c0,0.264-0.104,0.515-0.289,0.697
		l9.354-9.353c-0.387,0.386-1.012,0.386-1.396,0l5.825,5.823c-0.201-0.201-0.309-0.479-0.287-0.767
		C59.335,34.241,59.477,33.979,59.703,33.806z" style="fill:#6E6E96;"></path>
	<path d="M39.53,11.492l-11.681,11.68l15.086,15.086l0.005-0.006c0.021,0.024,0.042,0.054,0.064,0.077
		c1.063,1.062,4.538-0.691,7.766-3.917c3.227-3.229,4.979-6.702,3.918-7.765c-0.024-0.023-0.051-0.046-0.078-0.065l0.007-0.005
		L39.53,11.492z" style="fill:#C9D2E3;"></path>
	<path d="M37.143,17.809L52.195,32.86c0,0,3.913-4.642,2.671-5.959
		c-1.243-1.315-14.545-14.616-14.545-14.616S39.158,16.846,37.143,17.809z" style="opacity:0.58;fill:#FCFCFC;enable-background:new    ;"></path>
	<path d="M38.831,10.793L27.15,22.474c-0.187,0.187-0.289,0.438-0.289,0.698c0,0.263,0.104,0.514,0.289,0.699
		l15.086,15.085c0.188,0.188,0.451,0.295,0.722,0.29s0.523-0.122,0.706-0.32c-0.193,0.213-0.473,0.327-0.763,0.316
		c-0.289-0.012-0.558-0.148-0.734-0.376c0.029,0.036,0.075,0.096,0.141,0.157c0.274,0.277,0.773,0.604,1.595,0.604
		c1.854,0,4.825-1.772,7.57-4.519c3.146-3.147,5.717-7.357,3.916-9.159c-0.062-0.062-0.117-0.107-0.166-0.146
		c0.229,0.179,0.365,0.449,0.378,0.74c0.011,0.291-0.105,0.57-0.321,0.768c0.199-0.183,0.318-0.438,0.324-0.71
		c0.006-0.271-0.098-0.533-0.285-0.725L40.229,10.792c-0.187-0.187-0.438-0.289-0.699-0.289S39.017,10.607,38.831,10.793z
		 M53.95,25.848l-0.007,0.005c-0.215,0.195-0.332,0.479-0.32,0.769c0.011,0.29,0.148,0.562,0.378,0.739
		c0.008,0.006,0.013,0.01,0.014,0.011c-0.001,0-0.012-0.01-0.022-0.021c-0.007-0.005-0.01-0.01-0.011-0.011
		c0.249,0.432-0.576,3.045-3.908,6.376c-3.33,3.331-5.944,4.157-6.375,3.909c0,0,0.005,0.003,0.011,0.008
		c0.018,0.017,0.022,0.025,0.023,0.025c-0.003-0.003-0.01-0.014-0.017-0.019c-0.18-0.228-0.447-0.364-0.736-0.375
		c-0.289-0.012-0.569,0.105-0.768,0.319c0.185-0.198,0.438-0.313,0.705-0.316c0.271-0.004,0.526,0.104,0.718,0.293L28.548,22.474
		c0.187,0.187,0.289,0.438,0.289,0.698c0,0.263-0.104,0.514-0.289,0.699L40.229,12.19c-0.188,0.188-0.438,0.29-0.699,0.29
		c-0.263,0-0.514-0.104-0.698-0.29l15.086,15.086c-0.189-0.189-0.295-0.451-0.289-0.722C53.634,26.286,53.75,26.031,53.95,25.848z" style="fill:#6E6E96;"></path>
	<path d="M75.585,10.762c0.961,0.961,0.961,2.531,0,3.493L64.707,25.133c-0.961,0.962-2.532,0.962-3.493,0
		l-9.053-9.053c-0.962-0.961-0.962-2.533,0-3.494L63.038,1.708c0.961-0.961,2.532-0.961,3.494,0L75.585,10.762z" style="fill:#A3D9FF;"></path>
	
		<ellipse ry="2.718" rx="8.259" cy="17.545" cx="33.902" style="fill:#C9D2E3;" transform="matrix(0.7071 -0.7071 0.7071 0.7071 -2.4758 29.1126)"></ellipse>
	<path d="M28.76,22.688c0.006,0.005,0.008,0.011,0.009,0.012c-0.248-0.432,0.577-3.045,3.909-6.376
		c3.33-3.331,5.943-4.156,6.376-3.908c-0.001-0.001-0.008-0.004-0.013-0.009c-0.005-0.006-0.008-0.01-0.009-0.012
		c0.249,0.434-0.577,3.045-3.909,6.377c-3.331,3.332-5.943,4.157-6.376,3.909C28.752,22.68,28.756,22.683,28.76,22.688z
		 M36.525,20.168c2.743-2.744,4.518-5.715,4.518-7.568c0-0.819-0.326-1.317-0.603-1.592c-0.271-0.272-0.771-0.6-1.591-0.6
		c-1.854,0-4.824,1.771-7.568,4.516c-1.632,1.634-2.964,3.391-3.75,4.947c-1.215,2.405-0.762,3.619-0.167,4.214
		C29.166,25.886,33.375,23.317,36.525,20.168z" style="fill:#6E6E96;"></path>
	
		<rect height="1.976" width="5.687" style="fill:#6E6E96;" transform="matrix(-0.707 0.7072 -0.7072 -0.707 109.9492 0.1992)" y="21.887" x="52.09"></rect>
	
		<rect height="1.976" width="6.512" style="fill:#6E6E96;" transform="matrix(-0.7071 0.7071 -0.7071 -0.7071 93.9564 38.811)" y="37.876" x="35.684"></rect>
	<polygon points="64.065,0.768 64.065,24.712 70.104,18.674 
		70.104,4.967" style="opacity:0.33;fill:#FCFCFC;enable-background:new    ;"></polygon>
	<polygon points="29.68,34.665 29.68,58.609 35.718,52.57 
		35.718,38.865" style="opacity:0.33;fill:#FCFCFC;enable-background:new    ;"></polygon>
	<path d="M76.284,10.063c0,0-9.055-9.053-9.054-9.053C66.579,0.359,65.712,0,64.786,0
		c-0.927,0-1.795,0.357-2.445,1.011L51.463,11.888c-0.649,0.651-1.011,1.521-1.011,2.444s0.358,1.794,1.012,2.444
		c-0.001,0,9.054,9.054,9.054,9.054c1.35,1.349,3.542,1.349,4.892,0c0.001,0,10.878-10.878,10.878-10.878
		C77.632,13.605,77.632,11.412,76.284,10.063z M60.966,13.777l3.48-3.479l2.803,2.803l-3.479,3.48L60.966,13.777z M62.37,17.976
		l-3.458,3.458c-0.897-0.897-1.889-1.89-2.803-2.803l3.458-3.458L62.37,17.976z M59.569,12.379l-2.901-2.901
		c1.131-1.131,2.363-2.364,3.479-3.479l2.9,2.9L59.569,12.379z M65.845,8.898l3.237-3.238c0.915,0.914,1.902,1.901,2.805,2.802
		l-3.24,3.24L65.845,8.898z M63.737,2.406c0.277-0.277,0.65-0.433,1.05-0.433c0.396,0,0.771,0.152,1.047,0.433
		c0,0,0.77,0.769,1.854,1.854L64.45,7.5l-2.902-2.901C62.832,3.312,63.737,2.406,63.737,2.406z M52.428,14.333
		c0-0.397,0.151-0.771,0.431-1.048c0,0,1.011-1.01,2.411-2.411l2.899,2.9l-3.458,3.458c-1.085-1.086-1.854-1.854-1.854-1.854
		C52.581,15.103,52.428,14.731,52.428,14.333z M64.009,24.435c-0.576,0.577-1.518,0.577-2.096,0c0,0-0.653-0.65-1.604-1.603
		l3.459-3.458l2.648,2.648C65.017,23.427,64.009,24.435,64.009,24.435z M67.815,20.627l-2.649-2.649l3.481-3.479l2.647,2.648
		C70.181,18.263,68.946,19.496,67.815,20.627z M74.885,13.556c0,0-0.903,0.904-2.19,2.191l-2.649-2.649l3.24-3.24
		c0.95,0.951,1.604,1.604,1.604,1.604C75.464,12.038,75.464,12.979,74.885,13.556z" style="fill:#6E6E96;"></path>
	<path d="M41.349,43.539l-9.054-9.055c-1.348-1.348-3.542-1.348-4.892,0l-10.877,10.88
		c-1.348,1.35-1.348,3.542,0,4.892l9.054,9.054c0.651,0.65,1.521,1.01,2.445,1.01c0.927,0,1.794-0.357,2.445-1.011L41.348,48.43
		c0.649-0.65,1.01-1.521,1.01-2.445C42.358,45.059,42.001,44.19,41.349,43.539z M21.164,52.097l3.762-3.763l2.804,2.803
		l-3.763,3.761C23.066,53.999,22.078,53.011,21.164,52.097z M26.323,46.938l3.356-3.356l2.802,2.802l-3.356,3.356L26.323,46.938z
		 M31.078,42.183l3.062-3.062c0.912,0.914,1.9,1.9,2.802,2.803l-3.062,3.061L31.078,42.183z M28.803,35.883
		c0.576-0.577,1.518-0.577,2.096,0c0,0,0.763,0.763,1.842,1.842l-3.061,3.062l-2.892-2.892
		C27.981,36.705,28.803,35.883,28.803,35.883z M25.393,39.293l2.891,2.891l-3.357,3.357l-2.89-2.892L25.393,39.293z M17.925,46.761
		c0,0,1.155-1.156,2.714-2.714l2.89,2.891l-3.761,3.762c-1.08-1.078-1.844-1.842-1.844-1.842
		C17.348,48.281,17.348,47.339,17.925,46.761z M29.074,57.91c-0.278,0.276-0.65,0.432-1.049,0.432c-0.396,0-0.771-0.152-1.048-0.432
		c0,0-0.658-0.657-1.615-1.614l3.763-3.762l2.663,2.66C30.229,56.754,29.074,57.91,29.074,57.91z M33.184,53.8l-2.662-2.662
		l3.355-3.357l2.663,2.661C35.478,51.507,34.292,52.692,33.184,53.8z M39.952,47.031c0,0-0.822,0.821-2.014,2.014l-2.662-2.663
		l3.062-3.062c0.957,0.958,1.615,1.615,1.615,1.615c0.277,0.277,0.431,0.65,0.431,1.048C40.384,46.382,40.23,46.754,39.952,47.031z" style="fill:#6E6E96;"></path>
	<polygon points="33.685,21.637 57.789,45.741 55.736,46.377 
		52.828,43.991 50.729,43.991 45.127,38.39 43.007,38.39 28.857,24.241" style="opacity:0.15;fill:#6E6E96;enable-background:new    ;"></polygon>
	<path d="M40.706,44.305l-0.072-0.073
		c-0.021,0.024-0.043,0.053-0.064,0.074l-10.88,10.878c-0.961,0.962-2.533,0.962-3.494,0l-8.979-8.979
		c-0.891,0.966-0.868,2.48,0.067,3.42l9.053,9.053c0.961,0.962,2.533,0.962,3.494,0l10.877-10.879
		C41.667,46.838,41.667,45.266,40.706,44.305z" style="opacity:0.25;fill:#6E6E96;enable-background:new    ;"></path>
	<path d="M75.726,10.667l-0.072-0.071
		c-0.022,0.023-0.045,0.05-0.066,0.073l-10.88,10.877c-0.961,0.961-2.533,0.961-3.494,0l-8.979-8.979
		c-0.89,0.968-0.868,2.481,0.065,3.421l9.054,9.053c0.963,0.961,2.533,0.961,3.494,0l10.878-10.88
		C76.687,13.2,76.687,11.628,75.726,10.667z" style="opacity:0.25;fill:#6E6E96;enable-background:new    ;"></path>
</g>
<g style="opacity:0.15;enable-background:new    ;">
	<ellipse ry="55.609" rx="61.619" cy="100.693" cx="121.576" style="fill:#FFFFFF;"></ellipse>
</g>
</svg>
