<svg xml:space="preserve" style="enable-background:new 0 0 256.5 253.117;" viewBox="0 0 256.5 253.117" height="253.117px" width="256.5px" y="0px" x="0px" xmlns:xlink="http://www.w3.org/1999/xlink" xmlns="http://www.w3.org/2000/svg" id="Layer_1" version="1.1">
<g id="Layer_4">
	<g style="opacity:0.39;" id="Layer_4_2_">
		<path d="M247.842,121.503c0-39.901-32.425-72.247-72.422-72.247c-0.621,0-1.236,0.03-1.855,0.045
			c-12.629-21.166-35.779-35.36-62.269-35.36c-39.998,0-72.42,32.348-72.42,72.25c0,0.519,0.029,1.028,0.04,1.546
			c0,21.603-36.637,35.89-36.637,62.802c0,39.898,32.425,72.244,72.422,72.244c2.275,0,4.521-0.12,6.744-0.323
			c29.338,0,33.382,26.286,55.88,26.286c36.97,0,67.442-27.639,71.851-63.329C219.357,160.51,247.842,149.242,247.842,121.503z" style="fill:#BDDBFF;"></path>
	</g>
</g>
<g id="Layer_5">
	<g>
		<g>
			<path d="M113.474,75.247c0,1.898-1.554,3.453-3.453,3.453H36.586c-1.899,0-3.453-1.554-3.453-3.453V24.833
				c0-1.898,1.554-3.453,3.453-3.453h73.435c1.899,0,3.453,1.554,3.453,3.453V75.247z" style="fill:#E6EEFF;"></path>
			<path d="M110.021,80.2H36.586c-2.731,0-4.953-2.222-4.953-4.953V24.833c0-2.731,2.222-4.953,4.953-4.953
				h73.435c2.731,0,4.953,2.222,4.953,4.953v50.414C114.974,77.978,112.752,80.2,110.021,80.2z M36.586,22.88
				c-1.077,0-1.953,0.876-1.953,1.953v50.414c0,1.077,0.876,1.953,1.953,1.953h73.435c1.077,0,1.953-0.876,1.953-1.953V24.833
				c0-1.077-0.876-1.953-1.953-1.953H36.586z" style="fill:#CCCCDE;"></path>
		</g>
		<g>
			<rect height="13.456" width="80.326" style="fill:#D8D8F0;" y="32.127" x="33.133"></rect>
			<path d="M114.959,47.083H31.633V30.627h83.326V47.083z M34.633,44.083h77.326V33.627H34.633V44.083z" style="fill:#CCCCDE;"></path>
		</g>
		<rect height="11.036" width="68.663" style="fill:#FFE7D1;" y="56.03" x="39.105"></rect>
		<g>
			<polygon points="39.105,67.066 50.14,56.03 54.187,56.03 43.151,67.066" style="fill:#FFFFFF;"></polygon>
			<polygon points="49.822,67.066 60.856,56.03 64.902,56.03 53.868,67.066" style="fill:#FFFFFF;"></polygon>
			<polygon points="60.538,67.066 71.574,56.03 75.62,56.03 64.584,67.066" style="fill:#FFFFFF;"></polygon>
			<polygon points="71.254,67.066 82.289,56.03 86.335,56.03 75.3,67.066" style="fill:#FFFFFF;"></polygon>
			<polygon points="81.971,67.066 93.005,56.03 97.052,56.03 86.017,67.066" style="fill:#FFFFFF;"></polygon>
			<polygon points="92.688,67.066 103.722,56.03 107.768,56.03 96.733,67.066" style="fill:#FFFFFF;"></polygon>
		</g>
	</g>
	<g>
		<path d="M159.443,20.168c0.723-2.219,2.992-4.945,5.045-6.057l0.009-0.005c2.052-1.112,2.052-2.931,0-4.043
			l-0.009-0.005c-2.053-1.112-4.438-3.617-5.301-5.567c-0.862-1.95-2.274-1.95-3.14,0c-0.86,1.951-3.248,4.456-5.3,5.567
			l-0.009,0.005c-2.054,1.112-2.054,2.931,0,4.043l0.009,0.005c2.052,1.112,4.32,3.838,5.045,6.057l0.512,1.567
			c0.723,2.22,1.903,2.22,2.627,0L159.443,20.168z" style="fill:#7FE5FF;"></path>
	</g>
	<g>
		<path d="M13.748,114.131c0.615-1.887,2.546-4.207,4.292-5.152l0.007-0.004c1.746-0.946,1.746-2.494,0-3.439
			l-0.007-0.004c-1.746-0.946-3.775-3.077-4.508-4.737c-0.734-1.659-1.936-1.659-2.67,0c-0.733,1.66-2.763,3.791-4.509,4.737
			l-0.007,0.004c-1.746,0.945-1.746,2.493,0,3.439l0.007,0.004c1.746,0.945,3.677,3.265,4.292,5.152l0.435,1.333
			c0.615,1.889,1.621,1.889,2.235,0L13.748,114.131z" style="fill:#9ADFC0;"></path>
	</g>
	<g>
		<path d="M246.137,151.816c1.022-3.143,4.236-7,7.143-8.574l0.013-0.006c2.906-1.576,2.906-4.152,0-5.726
			l-0.013-0.009c-2.904-1.573-6.282-5.121-7.504-7.883c-1.223-2.761-3.223-2.761-4.442,0c-1.222,2.762-4.601,6.31-7.504,7.883
			l-0.013,0.009c-2.905,1.571-2.905,4.147,0,5.726l0.013,0.006c2.903,1.574,6.119,5.434,7.144,8.574l0.723,2.221
			c1.022,3.143,2.697,3.143,3.722,0L246.137,151.816z" style="fill:#FFB0B8;"></path>
	</g>
	<g>
		<g>
			<polygon points="188.75,183.4 188.75,223.793 231.794,223.793 241.254,194.01 241.254,183.4 
				210.373,183.4 216.902,158.921 209.966,151.984" style="fill:#FFFFFF;"></polygon>
			<path d="M232.892,225.293H187.25v-42.352l22.49-33.304l8.834,8.834l-6.249,23.429h30.429v12.342
				L232.892,225.293z M190.25,222.293h40.446l9.058-28.516V184.9h-31.333l6.81-25.53l-5.039-5.039l-19.941,29.528V222.293z" style="fill:#CCCCDE;"></path>
		</g>
		<g>
			<rect height="40.393" width="22.236" style="fill:#CFE4FF;" y="183.4" x="166.514"></rect>
			<path d="M190.25,225.293h-25.236V181.9h25.236V225.293z M168.014,222.293h19.236V184.9h-19.236V222.293z" style="fill:#CCCCDE;"></path>
		</g>
	</g>
	<g>
		<g>
			<path d="M68.079,191.059v-25.332v-42.746c0-1.743-1.424-3.167-3.166-3.167H3.168
				c-1.741,0-3.167,1.424-3.167,3.167v42.746c0,1.742,1.425,3.168,3.167,3.168h42.43L68.079,191.059z" style="fill:#DFFFFD;"></path>
			<path d="M69.579,194.644l-24.596-24.249H3.168c-2.573,0-4.667-2.094-4.667-4.668v-42.746
				c0-2.573,2.094-4.667,4.667-4.667h61.745c2.573,0,4.666,2.094,4.666,4.667V194.644z M3.168,121.314
				c-0.919,0-1.667,0.748-1.667,1.667v42.746c0,0.92,0.748,1.668,1.667,1.668h43.045l20.366,20.079v-64.493
				c0-0.919-0.748-1.667-1.666-1.667H3.168z" style="fill:#CCCCDE;"></path>
		</g>
		<g style="opacity:0.55;">
			<rect height="3.166" width="43.38" style="fill:#CCCCDE;" y="134.695" x="12.351"></rect>
		</g>
		<g style="opacity:0.55;">
			<rect height="3.168" width="25.964" style="fill:#CCCCDE;" y="143.244" x="29.767"></rect>
		</g>
		<g style="opacity:0.55;">
			<rect height="3.166" width="31.981" style="fill:#CCCCDE;" y="151.479" x="23.75"></rect>
		</g>
	</g>
	<g>
		<path d="M175.914,67.537l0.566-2.112
			C176.314,66.126,176.124,66.831,175.914,67.537z" style="opacity:0.25;fill:#997070;enable-background:new    ;"></path>
		<g>
			<polygon points="160.395,52.059 182.928,68.431 174.32,94.923 196.855,78.55 219.391,94.923 
				210.468,68.431 233.318,52.059 205.148,52.059 196.855,25.567 188.248,52.059" style="fill:#FFEEA1;"></polygon>
			<path d="M174.32,96.423c-0.31,0-0.619-0.096-0.882-0.287c-0.525-0.382-0.745-1.059-0.545-1.677
				l8.271-25.456l-21.651-15.731c-0.525-0.382-0.745-1.059-0.545-1.677c0.201-0.618,0.777-1.037,1.427-1.037h26.764l8.271-25.456
				c0.201-0.618,0.777-1.037,1.427-1.037c0.003,0,0.005,0,0.008,0c0.653,0.003,1.229,0.429,1.424,1.052l7.964,25.44h27.067
				c0.651,0,1.229,0.421,1.428,1.041c0.199,0.621-0.024,1.299-0.554,1.678l-21.949,15.726l8.494,25.219
				c0.11,0.209,0.173,0.447,0.173,0.7c0,0.829-0.671,1.5-1.5,1.5c-0.005,0-0.012,0.001-0.02,0c-0.31,0-0.619-0.095-0.882-0.287
				l-21.653-15.732l-21.653,15.732C174.939,96.327,174.63,96.423,174.32,96.423z M165.011,53.559l18.799,13.659
				c0.525,0.382,0.745,1.059,0.545,1.677l-7.181,22.101l18.8-13.659c0.525-0.382,1.238-0.382,1.764,0l18.73,13.609l-7.422-22.035
				c-0.21-0.625,0.012-1.314,0.548-1.698l19.056-13.653h-23.501c-0.656,0-1.235-0.426-1.432-1.052l-6.888-22.004l-7.154,22.02
				c-0.201,0.618-0.777,1.037-1.427,1.037H165.011z" style="fill:#CCCCDE;"></path>
		</g>
		<polygon points="183.82,70.774 186.27,64.115 165.229,53.63" style="opacity:0.15;fill:#6E6E96;enable-background:new    ;"></polygon>
		<polygon points="177.311,90.809 196.562,71.558 216.331,90.756 
			196.855,78.55" style="opacity:0.15;fill:#6E6E96;enable-background:new    ;"></polygon>
		<polygon points="228.427,53.63 209.825,61.368 211.3,65.903" style="opacity:0.15;fill:#6E6E96;enable-background:new    ;"></polygon>
		<polygon points="165.229,53.63 191.984,57.259 196.828,30.737 
			188.843,52.859" style="opacity:0.59;fill:#FFFFFF;enable-background:new    ;"></polygon>
	</g>
</g>
<g style="display:none;" id="Layer_3_3_">
	<g style="display:inline;">
		<path d="M149.68,63.022c0-6.961-10.553-12.896-10.553-24.376
			c0-10.757,8.721-19.479,19.479-19.479c10.759,0,19.479,8.721,19.479,19.479c0,11.223-10.75,14.451-10.888,23.937" style="fill:#FFF8BD;stroke:#CCCCDE;"></path>
		<path d="M167.154,61.849c0,0,0,3.213,0,5.877c0,4.928-4.924,6.911-8.473,6.911l0,0
			c-3.546,0-9.143-1.81-9.143-6.911c0-2.664,0-5.877,0-5.877" style="fill:#F0F0FF;"></path>
		<path d="M149.557,61.533c0-6.961-10.412-11.723-10.412-23.204
			c0-10.757,8.723-19.479,19.479-19.479c10.758,0,19.479,8.721,19.479,19.479c0,11.223-10.808,14.036-10.945,23.52" style="fill:none;stroke:#CCCCDE;stroke-width:3;"></path>
		<path d="M167.172,61.533c0,0,0,3.212,0,5.877c0,4.929-4.923,6.909-8.471,6.909
			l0,0c-3.549,0-9.145-1.808-9.145-6.909c0-2.665,0-5.877,0-5.877" style="fill:none;stroke:#CCCCDE;stroke-width:3;"></path>
		<line y2="61.517" x2="167.172" y1="61.517" x1="149.529" style="fill:none;stroke:#CCCCDE;stroke-width:3;"></line>
		<line y2="2.004" x2="158.622" y1="10.469" x1="158.622" style="fill:none;stroke:#CCCCDE;stroke-width:3;"></line>
		<line y2="6.779" x2="140.802" y1="14.109" x1="145.034" style="fill:none;stroke:#CCCCDE;stroke-width:3;"></line>
		<line y2="19.825" x2="127.756" y1="24.057" x1="135.088" style="fill:none;stroke:#CCCCDE;stroke-width:3;"></line>
		<line y2="37.645" x2="122.982" y1="37.645" x1="131.445" style="fill:none;stroke:#CCCCDE;stroke-width:3;"></line>
		<line y2="55.466" x2="127.758" y1="51.233" x1="135.088" style="fill:none;stroke:#CCCCDE;stroke-width:3;"></line>
		<line y2="55.466" x2="189.488" y1="51.233" x1="182.158" style="fill:none;stroke:#CCCCDE;stroke-width:3;"></line>
		<line y2="37.645" x2="194.266" y1="37.645" x1="185.8" style="fill:none;stroke:#CCCCDE;stroke-width:3;"></line>
		<line y2="19.825" x2="189.488" y1="24.057" x1="182.158" style="fill:none;stroke:#CCCCDE;stroke-width:3;"></line>
		<line y2="6.778" x2="176.441" y1="14.109" x1="172.21" style="fill:none;stroke:#CCCCDE;stroke-width:3;"></line>
	</g>
	<g style="display:inline;">
		<path d="M20.565,51.029c-1.744,1.969-1.749,5.27-0.01,7.336l17.614,20.926
			c1.739,2.065,4.653,2.126,6.476,0.133l37.154-40.626c1.823-1.993,1.934-4.82,0.245-6.284c-1.688-1.463-4.799-1.285-6.916,0.393
			L45.179,56.673c-2.116,1.679-5.66,1.788-7.874,0.241l-9.541-6.655C25.548,48.713,22.31,49.06,20.565,51.029z" style="fill:#DFFFD9;"></path>
		<path d="M20.565,51.029c-1.744,1.969-1.749,5.27-0.01,7.336l17.614,20.926
			c1.739,2.065,4.653,2.126,6.476,0.133l37.154-40.626c1.823-1.993,1.934-4.82,0.245-6.284c-1.688-1.463-4.799-1.285-6.916,0.393
			L45.179,56.673c-2.116,1.679-5.66,1.788-7.874,0.241l-9.541-6.655C25.548,48.713,22.31,49.06,20.565,51.029z" style="fill:none;stroke:#CCCCDE;stroke-width:3;"></path>
	</g>
</g>
<g style="display:none;" id="Layer_2_1_">
	<circle r="73.213" cy="132.114" cx="123.671" style="display:inline;fill:#E0ECFF;"></circle>
	<circle r="61.155" cy="132.03" cx="123.755" style="display:inline;fill:#F2FAFF;"></circle>
	
		<line y2="92.822" x2="101.235" y1="85.229" x1="96.852" style="display:inline;fill:none;stroke:#6E6E96;stroke-width:3;stroke-linecap:round;stroke-linejoin:round;"></line>
	
		<line y2="109.362" x2="84.695" y1="104.979" x1="77.104" style="display:inline;fill:none;stroke:#6E6E96;stroke-width:3;stroke-linecap:round;stroke-linejoin:round;"></line>
	
		<line y2="154.549" x2="84.695" y1="158.934" x1="77.104" style="display:inline;fill:none;stroke:#6E6E96;stroke-width:3;stroke-linecap:round;stroke-linejoin:round;"></line>
	
		<line y2="171.089" x2="101.235" y1="178.684" x1="96.854" style="display:inline;fill:none;stroke:#6E6E96;stroke-width:3;stroke-linecap:round;stroke-linejoin:round;"></line>
	
		<line y2="171.089" x2="146.424" y1="178.682" x1="150.809" style="display:inline;fill:none;stroke:#6E6E96;stroke-width:3;stroke-linecap:round;stroke-linejoin:round;"></line>
	
		<line y2="154.549" x2="162.966" y1="158.932" x1="170.557" style="display:inline;fill:none;stroke:#6E6E96;stroke-width:3;stroke-linecap:round;stroke-linejoin:round;"></line>
	
		<line y2="109.361" x2="162.965" y1="104.977" x1="170.555" style="display:inline;fill:none;stroke:#6E6E96;stroke-width:3;stroke-linecap:round;stroke-linejoin:round;"></line>
	
		<line y2="92.821" x2="146.423" y1="85.229" x1="150.807" style="display:inline;fill:none;stroke:#6E6E96;stroke-width:3;stroke-linecap:round;stroke-linejoin:round;"></line>
	<g style="display:inline;opacity:0.39;">
		
			<line y2="80.629" x2="123.829" y1="78" x1="123.829" style="fill:none;stroke:#6E6E96;stroke-width:3;stroke-linecap:round;stroke-linejoin:round;"></line>
		
			<line y2="81.408" x2="114.917" y1="78.82" x1="114.46" style="fill:none;stroke:#6E6E96;stroke-width:3;stroke-linecap:round;stroke-linejoin:round;"></line>
		
			<line y2="83.724" x2="106.274" y1="81.254" x1="105.376" style="fill:none;stroke:#6E6E96;stroke-width:3;stroke-linecap:round;stroke-linejoin:round;"></line>
		
			<line y2="87.505" x2="98.166" y1="85.229" x1="96.853" style="fill:none;stroke:#6E6E96;stroke-width:3;stroke-linecap:round;stroke-linejoin:round;"></line>
		
			<line y2="92.638" x2="90.837" y1="90.625" x1="89.148" style="fill:none;stroke:#6E6E96;stroke-width:3;stroke-linecap:round;stroke-linejoin:round;"></line>
		
			<line y2="98.964" x2="84.51" y1="97.274" x1="82.499" style="fill:none;stroke:#6E6E96;stroke-width:3;stroke-linecap:round;stroke-linejoin:round;"></line>
		
			<line y2="106.292" x2="79.378" y1="104.978" x1="77.104" style="fill:none;stroke:#6E6E96;stroke-width:3;stroke-linecap:round;stroke-linejoin:round;"></line>
		
			<line y2="114.402" x2="75.598" y1="113.501" x1="73.129" style="fill:none;stroke:#6E6E96;stroke-width:3;stroke-linecap:round;stroke-linejoin:round;"></line>
		
			<line y2="123.044" x2="73.282" y1="122.586" x1="70.695" style="fill:none;stroke:#6E6E96;stroke-width:3;stroke-linecap:round;stroke-linejoin:round;"></line>
		
			<line y2="131.956" x2="72.502" y1="131.955" x1="69.875" style="fill:none;stroke:#6E6E96;stroke-width:3;stroke-linecap:round;stroke-linejoin:round;"></line>
		
			<line y2="140.869" x2="73.283" y1="141.325" x1="70.695" style="fill:none;stroke:#6E6E96;stroke-width:3;stroke-linecap:round;stroke-linejoin:round;"></line>
		
			<line y2="149.512" x2="75.599" y1="150.409" x1="73.129" style="fill:none;stroke:#6E6E96;stroke-width:3;stroke-linecap:round;stroke-linejoin:round;"></line>
		
			<line y2="157.619" x2="79.38" y1="158.934" x1="77.104" style="fill:none;stroke:#6E6E96;stroke-width:3;stroke-linecap:round;stroke-linejoin:round;"></line>
		
			<line y2="164.947" x2="84.512" y1="166.637" x1="82.499" style="fill:none;stroke:#6E6E96;stroke-width:3;stroke-linecap:round;stroke-linejoin:round;"></line>
		
			<line y2="171.273" x2="90.838" y1="173.288" x1="89.148" style="fill:none;stroke:#6E6E96;stroke-width:3;stroke-linecap:round;stroke-linejoin:round;"></line>
		
			<line y2="176.406" x2="98.167" y1="178.684" x1="96.853" style="fill:none;stroke:#6E6E96;stroke-width:3;stroke-linecap:round;stroke-linejoin:round;"></line>
		
			<line y2="180.188" x2="106.276" y1="182.656" x1="105.376" style="fill:none;stroke:#6E6E96;stroke-width:3;stroke-linecap:round;stroke-linejoin:round;"></line>
		
			<line y2="182.503" x2="114.918" y1="185.092" x1="114.461" style="fill:none;stroke:#6E6E96;stroke-width:3;stroke-linecap:round;stroke-linejoin:round;"></line>
		
			<line y2="183.283" x2="123.83" y1="185.91" x1="123.83" style="fill:none;stroke:#6E6E96;stroke-width:3;stroke-linecap:round;stroke-linejoin:round;"></line>
		
			<line y2="182.503" x2="132.743" y1="185.092" x1="133.199" style="fill:none;stroke:#6E6E96;stroke-width:3;stroke-linecap:round;stroke-linejoin:round;"></line>
		
			<line y2="180.186" x2="141.387" y1="182.656" x1="142.284" style="fill:none;stroke:#6E6E96;stroke-width:3;stroke-linecap:round;stroke-linejoin:round;"></line>
		
			<line y2="176.404" x2="149.494" y1="178.684" x1="150.809" style="fill:none;stroke:#6E6E96;stroke-width:3;stroke-linecap:round;stroke-linejoin:round;"></line>
		
			<line y2="171.273" x2="156.822" y1="173.288" x1="158.514" style="fill:none;stroke:#6E6E96;stroke-width:3;stroke-linecap:round;stroke-linejoin:round;"></line>
		
			<line y2="164.945" x2="163.146" y1="166.637" x1="165.163" style="fill:none;stroke:#6E6E96;stroke-width:3;stroke-linecap:round;stroke-linejoin:round;"></line>
		
			<line y2="157.618" x2="168.279" y1="158.934" x1="170.557" style="fill:none;stroke:#6E6E96;stroke-width:3;stroke-linecap:round;stroke-linejoin:round;"></line>
		
			<line y2="149.51" x2="172.062" y1="150.409" x1="174.529" style="fill:none;stroke:#6E6E96;stroke-width:3;stroke-linecap:round;stroke-linejoin:round;"></line>
		
			<line y2="140.865" x2="174.376" y1="141.325" x1="176.965" style="fill:none;stroke:#6E6E96;stroke-width:3;stroke-linecap:round;stroke-linejoin:round;"></line>
		
			<line y2="131.954" x2="175.154" y1="131.955" x1="177.784" style="fill:none;stroke:#6E6E96;stroke-width:3;stroke-linecap:round;stroke-linejoin:round;"></line>
		
			<line y2="123.042" x2="174.375" y1="122.586" x1="176.965" style="fill:none;stroke:#6E6E96;stroke-width:3;stroke-linecap:round;stroke-linejoin:round;"></line>
		
			<line y2="114.401" x2="172.061" y1="113.501" x1="174.529" style="fill:none;stroke:#6E6E96;stroke-width:3;stroke-linecap:round;stroke-linejoin:round;"></line>
		
			<line y2="106.292" x2="168.277" y1="104.978" x1="170.557" style="fill:none;stroke:#6E6E96;stroke-width:3;stroke-linecap:round;stroke-linejoin:round;"></line>
		
			<line y2="98.964" x2="163.146" y1="97.274" x1="165.163" style="fill:none;stroke:#6E6E96;stroke-width:3;stroke-linecap:round;stroke-linejoin:round;"></line>
		
			<line y2="92.639" x2="156.82" y1="90.624" x1="158.514" style="fill:none;stroke:#6E6E96;stroke-width:3;stroke-linecap:round;stroke-linejoin:round;"></line>
		
			<line y2="87.507" x2="149.491" y1="85.229" x1="150.809" style="fill:none;stroke:#6E6E96;stroke-width:3;stroke-linecap:round;stroke-linejoin:round;"></line>
		
			<line y2="83.726" x2="141.383" y1="81.254" x1="142.284" style="fill:none;stroke:#6E6E96;stroke-width:3;stroke-linecap:round;stroke-linejoin:round;"></line>
		
			<line y2="81.41" x2="132.741" y1="78.82" x1="133.199" style="fill:none;stroke:#6E6E96;stroke-width:3;stroke-linecap:round;stroke-linejoin:round;"></line>
	</g>
	
		<line y2="86.768" x2="123.829" y1="78" x1="123.829" style="display:inline;fill:none;stroke:#FF9FB0;stroke-width:3;stroke-linecap:round;stroke-linejoin:round;"></line>
	
		<line y2="131.955" x2="78.642" y1="131.956" x1="69.875" style="display:inline;fill:none;stroke:#FF9FB0;stroke-width:3;stroke-linecap:round;stroke-linejoin:round;"></line>
	
		<line y2="177.145" x2="123.829" y1="185.91" x1="123.831" style="display:inline;fill:none;stroke:#FF9FB0;stroke-width:3;stroke-linecap:round;stroke-linejoin:round;"></line>
	
		<line y2="131.954" x2="169.02" y1="131.953" x1="177.783" style="display:inline;fill:none;stroke:#FF9FB0;stroke-width:3;stroke-linecap:round;stroke-linejoin:round;"></line>
	<polyline points="144.8,111.131 123.755,132.029 150.587,158.861" style="display:inline;fill:none;stroke:#6E6E96;stroke-width:3;stroke-linecap:round;stroke-linejoin:round;"></polyline>
	
		<line y2="151.391" x2="90.458" y1="132.029" x1="123.755" style="display:inline;fill:none;stroke:#FF9FB0;stroke-linecap:round;stroke-linejoin:round;"></line>
	
		<circle r="4.095" cy="132.124" cx="123.711" style="display:inline;fill:#F0F0FF;stroke:#6E6E96;stroke-width:3;stroke-linecap:round;stroke-linejoin:round;"></circle>
	<path d="M54.03,143.293
		c-4.725-38.847,22.938-74.168,61.787-78.893c38.847-4.723,74.169,22.938,78.894,61.785c0.626,5.135,0.668,10.208,0.21,15.154
		c0.938-6.291,1.076-12.808,0.271-19.427c-4.812-39.591-40.812-67.784-80.404-62.969c-39.594,4.815-67.785,40.813-62.97,80.405
		c1.345,11.058,5.125,21.226,10.733,30.03C58.159,161.55,55.181,152.757,54.03,143.293z" style="display:inline;opacity:0.58;fill:#FFFFFF;enable-background:new    ;"></path>
	<circle r="73.213" cy="132.114" cx="123.671" style="display:inline;fill:none;stroke:#6E6E96;stroke-width:3;"></circle>
	<circle r="61.155" cy="132.03" cx="123.755" style="display:inline;fill:none;stroke:#6E6E96;stroke-width:3;"></circle>
	<path d="M188.691,102.172
		c3.412,8.301,5.307,17.388,5.307,26.919c0,39.136-31.725,70.858-70.859,70.858s-70.858-31.725-70.858-70.858
		c0-5.171,0.568-10.208,1.621-15.065c-1.693,6.131-2.615,12.581-2.615,19.251c0,39.883,32.332,72.215,72.216,72.215
		c39.886,0,72.216-32.332,72.216-72.215C195.719,122.139,193.193,111.593,188.691,102.172z" style="display:inline;opacity:0.15;fill:#6E6E96;enable-background:new    ;"></path>
	<path d="M163.564,93.552
		c-10.146-10.339-24.27-16.759-39.898-16.759c-30.875,0-55.905,25.03-55.905,55.906c0,10.729,3.028,20.751,8.271,29.263
		L163.564,93.552z" style="display:inline;opacity:0.54;fill:#FFFFFF;enable-background:new    ;"></path>
	<g style="display:inline;opacity:0.1;">
		<g>
			<path d="M139.875,72.35c22.191,8.236,38.008,29.597,38.008,54.656c0,32.188-26.094,58.284-58.283,58.284
				c-30.766,0-55.946-23.843-58.115-54.056c0.114,33.677,27.445,60.944,61.149,60.944c33.775,0,61.155-27.382,61.155-61.153
				C183.789,103.238,165.252,79.795,139.875,72.35z" style="fill:#6E6E96;"></path>
		</g>
	</g>
</g>
<g id="Layer_6">
	<path d="M196.945,109.556c0,3.668-3,6.669-6.668,6.669H66.729c-3.668,0-6.669-3.001-6.669-6.669V55.143
		c0-3.667,3-6.669,6.669-6.669h123.548c3.668,0,6.668,3.001,6.668,6.669V109.556z" style="fill:#F7F7FF;"></path>
	<path d="M190.277,117.725H66.729c-4.504,0-8.169-3.665-8.169-8.169V55.143c0-4.504,3.665-8.169,8.169-8.169
		h123.548c4.504,0,8.168,3.665,8.168,8.169v54.413C198.445,114.061,194.781,117.725,190.277,117.725z M66.729,49.974
		c-2.85,0-5.169,2.319-5.169,5.169v54.413c0,2.85,2.319,5.169,5.169,5.169h123.548c2.85,0,5.168-2.319,5.168-5.169V55.143
		c0-2.85-2.318-5.169-5.168-5.169H66.729z" style="fill:#6E6E96;"></path>
	<g>
		<rect height="132.197" width="137.526" style="fill:#DEF1FF;" y="72.287" x="60.22"></rect>
		<path d="M197.746,205.984H60.22c-0.829,0-1.5-0.672-1.5-1.5V72.287c0-0.829,0.671-1.5,1.5-1.5h137.526
			c0.828,0,1.5,0.671,1.5,1.5v132.197C199.246,205.312,198.574,205.984,197.746,205.984z M61.72,202.984h134.526V73.787H61.72
			V202.984z" style="fill:#6E6E96;"></path>
	</g>
	<g>
		<path d="M196.962,70.604l11.267,38.891c0,5.353-4.377,9.732-9.73,9.732H59.015
			c-5.353,0-7.138-4.38-7.138-9.732l8.371-38.891H196.962z" style="fill:#E8AED9;"></path>
		<path d="M198.498,120.727H59.015c-3.226,0-8.638-1.459-8.638-11.232l0.034-0.315l8.626-40.076h139.052
			l11.64,40.178v0.213C209.729,115.688,204.69,120.727,198.498,120.727z M53.377,109.652c0.054,8.075,4.252,8.075,5.638,8.075
			h139.483c4.47,0,8.119-3.583,8.228-8.028l-10.891-37.595H61.459L53.377,109.652z" style="fill:#6E6E96;"></path>
	</g>
	<g>
		<polygon points="84.443,70.604 112.862,70.604 112.862,119.228 79.775,119.228" style="fill:#FFFFFF;"></polygon>
		<path d="M114.362,120.728H78.124l4.956-51.624h31.282V120.728z M81.426,117.728h29.936V72.104H85.806
			L81.426,117.728z" style="fill:#6E6E96;"></path>
	</g>
	<g>
		<polygon points="145.299,70.604 175.512,70.604 179.682,119.228 145.299,119.228" style="fill:#FFFFFF;"></polygon>
		<path d="M181.315,120.728h-37.517V69.104h33.09L181.315,120.728z M146.799,117.728h31.249l-3.913-45.624
			h-27.336V117.728z" style="fill:#6E6E96;"></path>
	</g>
	<rect height="8.175" width="136.136" style="opacity:0.15;fill:#6E6E96;enable-background:new    ;" y="120.384" x="61.61"></rect>
	<path d="M196.945,108.662H60.06c-5.352,0-6.964-4.38-6.964-9.733
		l-2.767,11.115c0,5.354,4.378,9.734,9.73,9.734h136.886c5.354,0,9.731-4.38,9.731-9.734l-1.845-11.115
		C204.834,104.282,202.3,108.662,196.945,108.662z" style="opacity:0.15;fill:#6E6E96;enable-background:new    ;"></path>
	<circle r="4.025" cy="59.589" cx="72.61" style="fill:#FF8097;"></circle>
	<circle r="4.025" cy="59.589" cx="86.124" style="fill:#FFCB8F;"></circle>
	<circle r="4.025" cy="59.589" cx="100.596" style="fill:#9AE3B0;"></circle>
	<rect height="5.145" width="135.434" style="opacity:0.15;fill:#6E6E96;enable-background:new    ;" y="65.459" x="60.06"></rect>
	<g>
		<circle r="27.844" cy="163.744" cx="129.693" style="fill:#FFE770;"></circle>
		<path d="M129.693,193.088c-16.181,0-29.344-13.163-29.344-29.344s13.164-29.344,29.344-29.344
			s29.344,13.163,29.344,29.344S145.874,193.088,129.693,193.088z M129.693,137.4c-14.526,0-26.344,11.817-26.344,26.344
			s11.818,26.344,26.344,26.344s26.344-11.817,26.344-26.344S144.22,137.4,129.693,137.4z" style="fill:#EDA639;"></path>
	</g>
	<path d="M129.945,180.021c-0.19,0-0.381-0.004-0.572-0.012c-6.913-0.284-11.542-5.655-11.735-5.884
		c-0.536-0.632-0.457-1.578,0.175-2.114c0.631-0.535,1.576-0.457,2.112,0.172l0,0c0.04,0.046,4.01,4.613,9.597,4.83
		c3.57,0.13,7.103-1.516,10.504-4.918c0.586-0.586,1.535-0.586,2.121,0s0.586,1.535,0,2.121
		C138.293,178.071,134.19,180.021,129.945,180.021z" style="fill:#EDA639;"></path>
</g>
<g id="Layer_7">
	<path d="M95.45,237.466c0.885-2.712,3.66-6.046,6.17-7.405l0.01-0.004c2.51-1.363,2.51-3.586,0-4.944
		l-0.01-0.009c-2.51-1.357-5.427-4.422-6.481-6.81c-1.056-2.384-2.784-2.384-3.838,0c-1.054,2.388-3.972,5.45-6.481,6.81
		l-0.01,0.009c-2.51,1.358-2.51,3.581,0,4.944l0.01,0.004c2.51,1.359,5.285,4.693,6.168,7.405l0.626,1.916
		c0.883,2.716,2.329,2.716,3.212,0L95.45,237.466z" style="fill:#DEC2FF;"></path>
</g>
</svg>
