<svg xml:space="preserve" style="enable-background:new 0 0 256.5 253.117;" viewBox="0 0 256.5 253.117" height="253.117px" width="256.5px" y="0px" x="0px" xmlns:xlink="http://www.w3.org/1999/xlink" xmlns="http://www.w3.org/2000/svg" id="Layer_1" version="1.1">
<g id="Layer_1_1_">
	<path d="M253.479,119.326c0-40.701-33.074-73.693-73.871-73.693c-0.635,0-1.262,0.029-1.893,0.046
		c-12.881-21.591-36.498-36.067-63.514-36.067c-40.798,0-73.871,32.995-73.871,73.696c0,0.529,0.029,1.049,0.04,1.576
		C18.056,97.563,3,121.491,3,148.941c0,40.699,33.073,73.688,73.872,73.688c2.32,0,4.612-0.118,6.878-0.325
		c13.551,16.375,34.051,26.813,56.998,26.813c37.711,0,68.793-28.192,73.289-64.596
		C237.488,172.174,253.479,147.618,253.479,119.326z" style="fill:#D6F0FF;"></path>
	<g style="display:none;" id="Layer_3_1_">
		<g style="display:inline;">
			<g>
				<path d="M85.16,142.542c0-11.563-10.059-20.936-22.467-20.936c-0.194,0-0.385,0.009-0.576,0.014
					c-3.917-6.134-11.102-10.245-19.318-10.245c-12.409,0-22.469,9.372-22.469,20.936c0,0.149,0.009,0.297,0.012,0.446
					c-6.785,3.603-11.365,10.399-11.365,18.198c0,11.562,10.059,20.934,22.468,20.934c0.705,0,1.403-0.033,2.092-0.094
					c4.122,4.65,10.358,7.617,17.335,7.617c11.471,0,20.925-8.01,22.293-18.35C80.297,157.555,85.16,150.579,85.16,142.542z" style="fill:#D7F7E4;"></path>
				<path d="M50.872,180.912c-6.895,0-13.393-2.749-17.95-7.568c-0.499,0.03-0.993,0.045-1.477,0.045
					c-13.216,0-23.968-10.063-23.968-22.434c0-7.768,4.328-14.997,11.357-19.076c0.247-12.173,10.902-22.004,23.964-22.004
					c8.091,0,15.716,3.9,20.112,10.232c13.116,0.11,23.749,10.131,23.749,22.435c0,8.109-4.626,15.515-12.127,19.506
					C72.687,172.857,62.662,180.912,50.872,180.912z M34.159,170.234l0.501,0.565c4.006,4.52,9.916,7.112,16.212,7.112
					c10.575,0,19.52-7.328,20.806-17.046l0.105-0.796l0.72-0.354c6.882-3.385,11.157-9.966,11.157-17.175
					c0-10.717-9.406-19.436-20.967-19.436c-0.115,0-0.229,0.004-0.344,0.008l-1.041,0.027l-0.456-0.714
					c-3.763-5.892-10.68-9.552-18.054-9.552c-11.562,0-20.969,8.719-20.969,19.436l0.029,1.339l-0.814,0.433
					c-6.519,3.461-10.568,9.927-10.568,16.873c0,10.716,9.406,19.434,20.968,19.434c0.637,0,1.296-0.029,1.961-0.088L34.159,170.234
					z" style="fill:#CCCCDE;"></path>
			</g>
			<path d="M62.314,120.853c-0.193,0-0.384,0.009-0.575,0.014
				c-3.141-4.918-8.383-8.534-14.573-9.775c4.898,1.229,9.023,4.208,11.558,8.175c0.165-0.004,2.416,3.886,2.583,3.886
				c10.648,0,15.601,5.738,15.601,15.66c0,6.896-2.583,11.291-8.704,14.302c-1.173,8.875-9.287,15.748-19.129,15.748
				c-5.99,0-11.34-2.544-14.877-6.532c-0.591,0.05-1.189,0.077-1.794,0.077c-10.649,0-19.013-5.048-19.013-14.968
				c0-6.683,2.99-9.973,8.432-13.938c-0.145-0.855-0.75-8.421,1.267-10.437c4.792-4.793,6.963-8.909,11.25-11.038
				c-8.414,3.025-14.385,10.627-14.385,19.536c0,0.147,0.009,0.3,0.012,0.447c-6.787,3.604-11.366,10.396-11.366,18.195
				c0,11.562,10.059,20.938,22.468,20.938c0.707,0,1.403-0.035,2.093-0.098c4.121,4.648,10.356,7.617,17.336,7.617
				c11.469,0,20.924-8.012,22.291-18.354c7.133-3.507,11.997-10.479,11.997-18.521C84.783,130.227,74.724,120.853,62.314,120.853z" style="opacity:0.1;fill:#6E6E96;enable-background:new    ;"></path>
			<g>
				<path d="M30.336,153.865c0,0,11.635,2.277,11.635,13.662c0,0,3.132,19.342-8.976,33.026h27.96
					c-0.277-0.388-24.422-32.645,2.449-51.815C47.016,158.107,30.336,153.865,30.336,153.865z" style="fill:#EDE3DA;"></path>
				<path d="M60.955,202.054h-31.29l2.207-2.494c11.477-12.972,8.648-31.607,8.619-31.794l-0.019-0.238
					c0-9.079-8.398-11.683-10.144-12.124c-0.238-0.053-0.362-0.084-0.362-0.084l0.658-2.926c0,0,0.139,0.026,0.39,0.089
					c0.935,0.203,4.231,0.841,8.802,0.841c5.724,0,14.333-1.021,22.844-5.887l1.616,2.522c-6.628,4.729-10.564,10.705-11.7,17.761
					c-2.417,15.015,8.334,30.231,9.568,31.917l1.747,2.387L60.955,202.054z M36.13,199.054h21.997
					c-3.446-5.396-10.643-18.585-8.514-31.811c0.804-4.997,2.848-9.495,6.099-13.446c-6.069,2.011-11.71,2.526-15.896,2.526
					c-0.463,0-0.915-0.006-1.352-0.018c2.655,2.276,4.974,5.786,5.007,11.104C43.731,169.146,45.9,185.741,36.13,199.054z" style="fill:#CCCCDE;"></path>
			</g>
			<g>
				<path d="M37.703,131.025" style="fill:#D57E58;"></path>
			</g>
			<path d="M56.43,153.833c0,0-17.654,22.793-4.085,46.722h8.611
				C60.955,200.555,43.04,175.518,56.43,153.833z" style="opacity:0.11;fill:#6E6E96;enable-background:new    ;"></path>
		</g>
		<g style="display:inline;">
			<g>
				<path d="M255,141.26c0-10.828-9.42-19.604-21.04-19.604c-0.183,0-0.36,0.008-0.539,0.013
					c-3.669-5.744-10.396-9.595-18.091-9.595c-11.62,0-21.041,8.777-21.041,19.604c0,0.141,0.009,0.279,0.012,0.418
					c-6.354,3.375-10.644,9.739-10.644,17.043c0,10.825,9.421,19.604,21.04,19.604c0.66,0,1.312-0.032,1.96-0.089
					c3.858,4.354,9.698,7.134,16.233,7.134c10.737,0,19.596-7.499,20.875-17.185C250.445,155.316,255,148.786,255,141.26z" style="fill:#D7F7E4;"></path>
				<path d="M222.891,177.288c-6.467,0-12.563-2.573-16.848-7.085c-0.458,0.027-0.902,0.04-1.346,0.04
					c-12.429,0-22.54-9.468-22.54-21.104c0-7.289,4.053-14.077,10.637-17.92c0.262-11.426,10.271-20.646,22.536-20.646
					c7.59,0,14.745,3.652,18.885,9.583c12.312,0.128,22.285,9.545,22.285,21.103c0,7.612-4.335,14.567-11.367,18.328
					C243.377,169.733,233.962,177.288,222.891,177.288z M207.279,167.094l0.501,0.565c3.733,4.213,9.241,6.629,15.11,6.629
					c9.857,0,18.192-6.827,19.388-15.881l0.105-0.795l0.72-0.354c6.413-3.156,10.396-9.286,10.396-15.998
					c0-9.982-8.766-18.104-19.54-18.104c-0.117,0-0.231,0.004-0.346,0.007l-1.001,0.028l-0.456-0.715
					c-3.508-5.491-9.955-8.902-16.827-8.902c-10.775,0-19.541,8.122-19.541,18.104l0.031,1.31l-0.815,0.433
					c-6.074,3.227-9.848,9.25-9.848,15.719c0,9.982,8.766,18.104,19.54,18.104c0.591,0,1.189-0.027,1.829-0.083L207.279,167.094z" style="fill:#CCCCDE;"></path>
			</g>
			<path d="M233.605,120.949c-0.185,0-0.358,0.008-0.539,0.012
				c-2.94-4.606-7.854-7.992-13.646-9.154c4.586,1.15,8.449,3.94,10.822,7.655c0.154-0.004,2.263,3.639,2.419,3.639
				c9.971,0,14.608,5.374,14.608,14.665c0,6.459-2.42,10.573-8.148,13.396c-1.1,8.311-8.698,14.742-17.914,14.742
				c-5.607,0-10.619-2.381-13.934-6.117c-0.558,0.047-1.112,0.072-1.683,0.072c-9.975,0-17.806-4.729-17.806-14.017
				c0-6.258,2.8-9.34,7.896-13.056c-0.139-0.807-0.701-7.885,1.188-9.772c4.484-4.488,6.521-8.343,10.533-10.337
				c-7.879,2.833-13.471,9.952-13.471,18.292c0,0.14,0.006,0.275,0.012,0.418c-6.354,3.373-10.646,9.736-10.646,17.041
				c0,10.824,9.421,19.604,21.041,19.604c0.661,0,1.313-0.032,1.959-0.09c3.859,4.355,9.699,7.135,16.234,7.135
				c10.739,0,19.594-7.5,20.875-17.188c6.68-3.285,11.231-9.812,11.231-17.342C254.646,129.727,245.227,120.949,233.605,120.949z" style="opacity:0.1;fill:#6E6E96;enable-background:new    ;"></path>
			<g>
				<path d="M203.66,151.861c0,0,10.896,2.133,10.896,12.797c0,0,2.934,18.109-8.406,30.927h26.184
					c-0.26-0.358-22.87-30.565,2.294-48.521C219.279,155.836,203.66,151.861,203.66,151.861z" style="fill:#EDE3DA;"></path>
				<path d="M232.334,197.085H202.82l2.207-2.494c10.744-12.145,8.077-29.519,8.049-29.692l-0.02-0.24
					c0-8.432-7.802-10.853-9.426-11.264c-0.225-0.05-0.341-0.08-0.341-0.08l0.658-2.925c0,0,0.132,0.024,0.369,0.084
					c0.876,0.19,3.955,0.786,8.226,0.786c5.348,0,13.39-0.954,21.341-5.498l1.615,2.523c-6.195,4.421-9.87,10.006-10.924,16.602
					c-2.247,14.071,7.8,28.223,8.952,29.79l1.758,2.389L232.334,197.085z M209.273,194.085h20.232
					c-3.271-5.141-9.861-17.346-7.893-29.672c0.735-4.605,2.589-8.76,5.534-12.422c-5.576,1.803-10.748,2.269-14.604,2.269
					c-0.344,0-0.681-0.004-1.009-0.011c2.417,2.149,4.489,5.412,4.522,10.291C216.305,166.203,218.305,181.631,209.273,194.085z" style="fill:#CCCCDE;"></path>
			</g>
			<g>
				<path d="M210.561,130.477" style="fill:#D57E58;"></path>
			</g>
			<path d="M228.096,151.833c0,0-16.531,21.345-3.824,43.752h8.063
				C232.333,195.585,215.557,172.139,228.096,151.833z" style="opacity:0.11;fill:#6E6E96;enable-background:new    ;"></path>
		</g>
		<g style="display:inline;">
			<g>
				<path d="M218.298,143.02c0-16.622-14.461-30.095-32.299-30.095c-0.278,0-0.554,0.012-0.828,0.019
					c-5.632-8.817-15.959-14.729-27.771-14.729c-17.838,0-32.301,13.475-32.301,30.096c0,0.215,0.014,0.429,0.018,0.646
					c-9.755,5.182-16.339,14.945-16.339,26.156c0,16.621,14.462,30.098,32.3,30.098c1.014,0,2.018-0.05,3.008-0.139
					c5.926,6.688,14.889,10.951,24.921,10.951c16.489,0,30.081-11.515,32.048-26.379
					C211.307,164.602,218.298,154.572,218.298,143.02z" style="fill:#D7F7E4;"></path>
				<path d="M169.007,197.523c-9.839,0-19.102-3.963-25.537-10.897c-0.812,0.057-1.614,0.085-2.392,0.085
					c-18.638,0-33.8-14.175-33.8-31.598c0-11.043,6.23-21.32,16.322-27.035c0.134-17.315,15.246-31.363,33.8-31.363
					c11.535,0,22.398,5.615,28.566,14.71c0.011,0,0.021,0,0.032,0c18.637,0,33.799,14.173,33.799,31.595
					c0,11.516-6.635,22.026-17.371,27.612C199.969,186.018,185.751,197.523,169.007,197.523z M144.706,183.511l0.503,0.566
					c5.881,6.639,14.556,10.446,23.798,10.446c15.531,0,28.669-10.78,30.561-25.075l0.105-0.796l0.72-0.354
					c10.119-4.978,16.405-14.664,16.405-25.279c0-15.768-13.816-28.595-30.799-28.595c-0.179,0-0.355,0.006-0.532,0.011
					l-1.104,0.028l-0.455-0.713c-5.531-8.658-15.688-14.037-26.507-14.037c-16.983,0-30.801,12.828-30.801,28.596
					c0,0.108,0.004,0.217,0.009,0.325l0.028,1.213l-0.815,0.434c-9.587,5.092-15.543,14.606-15.543,24.831
					c0,15.769,13.817,28.598,30.8,28.598c0.926,0,1.893-0.045,2.874-0.133L144.706,183.511z" style="fill:#CCCCDE;"></path>
			</g>
			<path d="M185.456,111.841c-0.276,0-0.552,0.012-0.827,0.019
				c-4.516-7.071-12.051-12.269-20.949-14.052c7.041,1.766,12.971,6.049,16.614,11.751c0.237-0.006,3.474,5.586,3.713,5.586
				c15.308,0,22.429,8.248,22.429,22.511c0,9.914-3.715,16.231-12.513,20.562c-1.687,12.754-13.353,22.635-27.5,22.635
				c-8.61,0-16.302-3.655-21.387-9.396c-0.851,0.071-1.71,0.114-2.58,0.114c-15.31,0-27.332-7.254-27.332-21.516
				c0-9.604,4.298-14.337,12.12-20.039c-0.209-1.234-1.077-12.104,1.82-15.002c6.89-6.89,10.011-12.808,16.174-15.868
				c-12.096,4.349-20.679,15.277-20.679,28.08c0,0.215,0.011,0.429,0.017,0.646c-9.756,5.178-16.34,14.947-16.34,26.156
				c0,16.621,14.461,30.097,32.3,30.097c1.017,0,2.017-0.049,3.008-0.136c5.925,6.688,14.89,10.949,24.922,10.949
				c16.487,0,30.078-11.516,32.046-26.379c10.254-5.043,17.244-15.07,17.244-26.623
				C217.756,125.314,203.295,111.841,185.456,111.841z" style="opacity:0.1;fill:#6E6E96;enable-background:new    ;"></path>
			<g>
				<path d="M139.484,159.296c0,0,16.727,3.272,16.727,19.644c0,0,4.504,27.807-12.904,47.479h40.195
					c-0.398-0.556-35.107-46.922,3.521-74.483C163.464,165.396,139.484,159.296,139.484,159.296z" style="fill:#EDE3DA;"></path>
				<path d="M183.502,227.919h-43.525l2.207-2.494c16.743-18.922,12.591-45.975,12.547-46.245l-0.02-0.24
					c0-13.557-12.515-17.422-15.086-18.071c-0.336-0.074-0.511-0.118-0.511-0.118l0.658-2.926c0,0,0.192,0.037,0.538,0.123
					c1.35,0.295,6.158,1.228,12.813,1.228c8.306,0,20.799-1.481,33.155-8.542l1.615,2.523c-9.681,6.907-15.431,15.647-17.09,25.977
					c-3.512,21.865,12.087,43.917,13.878,46.359l1.749,2.387L183.502,227.919z M146.496,224.919h34.146
					c-4.573-6.926-15.963-26.566-12.799-46.262c1.264-7.868,4.702-14.865,10.257-20.899c-9.522,3.547-18.479,4.417-24.976,4.417
					c-1.404,0-2.727-0.039-3.958-0.104c4.314,3.1,8.506,8.287,8.545,16.75C158.048,181.028,161.4,205.691,146.496,224.919z" style="fill:#CCCCDE;"></path>
			</g>
			<g>
				<path d="M150.077,126.465" style="fill:#D57E58;"></path>
			</g>
			<path d="M176.997,159.251c0,0-25.378,32.767-5.873,67.164h12.378
				C183.502,226.415,157.748,190.423,176.997,159.251z" style="opacity:0.11;fill:#6E6E96;enable-background:new    ;"></path>
		</g>
		<g style="display:inline;">
			<g>
				<path d="M146.461,144.131c0-13.645-11.873-24.707-26.517-24.707c-0.229,0-0.454,0.01-0.68,0.016
					c-4.624-7.239-13.102-12.092-22.8-12.092c-14.644,0-26.518,11.063-26.518,24.707c0,0.178,0.012,0.354,0.015,0.529
					c-8.01,4.251-13.414,12.271-13.414,21.477c0,13.646,11.872,24.707,26.518,24.707c0.832,0,1.655-0.041,2.469-0.105
					c4.864,5.484,12.224,8.984,20.46,8.984c13.537,0,24.695-9.45,26.309-21.652C140.721,161.85,146.461,153.617,146.461,144.131z" style="fill:#D7F7E4;"></path>
				<path d="M105.994,189.146c-8.109,0-15.748-3.248-21.079-8.938c-0.651,0.039-1.262,0.059-1.85,0.059
					c-15.449,0-28.018-11.757-28.018-26.207c0-9.119,5.111-17.604,13.401-22.354c0.2-14.291,12.691-25.858,28.016-25.858
					c9.509,0,18.468,4.606,23.595,12.076c15.396,0.059,27.902,11.793,27.902,26.207c0,9.511-5.454,18.196-14.288,22.849
					C131.576,179.672,119.825,189.146,105.994,189.146z M86.161,177.107l0.496,0.56c4.779,5.389,11.828,8.479,19.338,8.479
					c12.617,0,23.288-8.748,24.821-20.349l0.105-0.795l0.72-0.354c8.216-4.045,13.32-11.907,13.32-20.518
					c0-12.797-11.223-23.207-25.017-23.207c-0.145,0-0.287,0.005-0.429,0.009l-1.059,0.028L118,120.248
					c-4.492-7.031-12.744-11.399-21.536-11.399c-13.795,0-25.018,10.411-25.018,23.207l0.03,1.423l-0.812,0.432
					c-7.783,4.13-12.617,11.852-12.617,20.151c0,12.797,11.223,23.207,25.018,23.207c0.725,0,1.494-0.033,2.351-0.101
					L86.161,177.107z" style="fill:#CCCCDE;"></path>
			</g>
			<path d="M119.498,118.535c-0.228,0-0.452,0.009-0.679,0.015
				c-3.707-5.805-9.894-10.072-17.199-11.537c5.78,1.45,10.648,4.966,13.641,9.647c0.194-0.005,2.851,4.586,3.048,4.586
				c12.567,0,18.414,6.771,18.414,18.48c0,8.139-3.05,13.325-10.271,16.881c-1.384,10.472-10.961,18.584-22.576,18.584
				c-7.069,0-13.384-3.004-17.559-7.715c-0.698,0.061-1.404,0.096-2.118,0.096c-12.568,0-22.438-5.957-22.438-17.664
				c0-7.885,3.528-11.771,9.949-16.452c-0.171-1.015-0.884-9.938,1.496-12.316c5.655-5.657,8.218-10.515,13.277-13.028
				c-9.93,3.571-16.978,12.542-16.978,23.053c0,0.177,0.01,0.353,0.015,0.528c-8.011,4.25-13.415,12.271-13.415,21.477
				c0,13.645,11.873,24.706,26.518,24.706c0.834,0,1.655-0.04,2.469-0.108c4.864,5.488,12.224,8.988,20.461,8.988
				c13.536,0,24.693-9.451,26.311-21.656c8.418-4.141,14.158-12.371,14.158-21.854C146.016,129.598,134.143,118.535,119.498,118.535
				z" style="opacity:0.1;fill:#6E6E96;enable-background:new    ;"></path>
			<g>
				<path d="M81.757,157.494c0,0,13.731,2.688,13.731,16.128c0,0,3.697,22.823-10.595,38.978h33
					c-0.328-0.455-28.824-38.521,2.89-61.151C101.443,162.502,81.757,157.494,81.757,157.494z" style="fill:#EDE3DA;"></path>
				<path d="M117.893,214.1h-36.33l2.207-2.494c13.636-15.412,10.273-37.523,10.237-37.744l-0.019-0.239
					c0-10.926-10.094-14.049-12.179-14.576c-0.278-0.062-0.422-0.098-0.422-0.098l0.658-2.926c0,0,0.161,0.03,0.451,0.103
					c1.105,0.241,5.025,1.001,10.455,1.001c6.786,0,16.995-1.211,27.088-6.98l1.615,2.523c-7.892,5.632-12.577,12.753-13.924,21.167
					c-2.861,17.866,9.887,35.854,11.351,37.847l1.753,2.388L117.893,214.1z M88.055,211.1h26.991
					c-3.932-6.047-12.823-21.844-10.278-37.738c0.989-6.177,3.596-11.703,7.777-16.517c-7.478,2.623-14.465,3.281-19.595,3.281
					c-0.833,0-1.63-0.017-2.39-0.046c3.334,2.627,6.39,6.832,6.426,13.424C97.28,175.44,99.933,195.348,88.055,211.1z" style="fill:#CCCCDE;"></path>
			</g>
			<g>
				<path d="M90.453,130.541" style="fill:#D57E58;"></path>
			</g>
			<path d="M112.553,157.458c0,0-20.835,26.899-4.821,55.142h10.162
				C117.894,212.6,96.75,183.049,112.553,157.458z" style="opacity:0.11;fill:#6E6E96;enable-background:new    ;"></path>
		</g>
		<g style="display:inline;">
			<g>
				<path d="M253.684,168.268c0-12.345-10.74-22.35-23.988-22.35c-0.201,0-0.405,0.008-0.609,0.014
					c-4.188-6.549-11.854-10.938-20.625-10.938c-13.248,0-23.984,10.007-23.984,22.35c0,0.161,0.012,0.318,0.014,0.479
					c-7.244,3.85-12.135,11.104-12.135,19.432c0,12.349,10.735,22.354,23.984,22.354c0.753,0,1.497-0.039,2.229-0.104
					c4.4,4.97,11.062,8.136,18.513,8.136c12.245,0,22.339-8.554,23.799-19.594C248.49,184.295,253.684,176.85,253.684,168.268z" style="fill:#D7F7E4;"></path>
				<path d="M217.081,209.141c-7.354,0-14.281-2.937-19.127-8.084c-0.555,0.035-1.088,0.053-1.614,0.053
					c-14.052,0-25.484-10.701-25.484-23.854c0-8.272,4.622-15.974,12.125-20.31c0.228-12.967,11.57-23.451,25.48-23.451
					c8.619,0,16.745,4.166,21.42,10.925c13.97,0.093,25.303,10.756,25.303,23.849c0,8.631-4.936,16.519-12.935,20.764
					C240.309,200.551,229.637,209.141,217.081,209.141z M199.189,197.943l0.502,0.567c4.294,4.849,10.632,7.63,17.39,7.63
					c11.341,0,20.933-7.863,22.312-18.29l0.105-0.795l0.719-0.354c7.381-3.639,11.967-10.702,11.967-18.434
					c0-11.496-10.088-20.85-22.488-20.85c-0.146,0-0.292,0.005-0.439,0.009l-0.976,0.028l-0.458-0.716
					c-4.041-6.319-11.46-10.245-19.361-10.245c-12.397,0-22.484,9.354-22.484,20.85l0.024,1.375l-0.807,0.429
					c-6.994,3.717-11.339,10.655-11.339,18.107c0,11.499,10.087,20.854,22.484,20.854c0.669,0,1.354-0.032,2.095-0.099
					L199.189,197.943z" style="fill:#CCCCDE;"></path>
			</g>
			<path d="M229.292,145.111c-0.206,0-0.409,0.011-0.614,0.016
				c-3.354-5.251-8.949-9.111-15.558-10.438c5.229,1.312,9.633,4.492,12.339,8.728c0.175-0.004,2.579,4.149,2.757,4.149
				c11.368,0,16.655,6.123,16.655,16.718c0,7.362-2.757,12.055-9.291,15.271c-1.252,9.473-9.915,16.813-20.423,16.813
				c-6.396,0-12.106-2.72-15.884-6.979c-0.631,0.055-1.271,0.086-1.916,0.086c-11.368,0-20.299-5.389-20.299-15.979
				c0-7.135,3.188-10.646,9.002-14.885c-0.156-0.918-0.805-8.987,1.353-11.142c5.116-5.116,7.435-9.514,12.011-11.784
				c-8.98,3.229-15.357,11.346-15.357,20.854c0,0.158,0.014,0.316,0.018,0.479c-7.246,3.847-12.139,11.104-12.139,19.429
				c0,12.344,10.738,22.351,23.988,22.351c0.754,0,1.496-0.034,2.231-0.101c4.401,4.967,11.06,8.133,18.509,8.133
				c12.245,0,22.338-8.554,23.799-19.593c7.615-3.742,12.812-11.19,12.812-19.771C253.279,155.118,242.541,145.111,229.292,145.111z" style="opacity:0.1;fill:#6E6E96;enable-background:new    ;"></path>
			<g>
				<path d="M195.15,180.355c0,0,12.422,2.431,12.422,14.588c0,0,3.345,20.646-9.584,35.259h29.853
					c-0.296-0.41-26.073-34.847,2.615-55.317C212.96,184.887,195.15,180.355,195.15,180.355z" style="fill:#EDE3DA;"></path>
				<path d="M227.841,231.702h-33.183l2.207-2.494c12.288-13.89,9.258-33.826,9.227-34.026l-0.02-0.238
					c0-9.771-9.034-12.57-10.906-13.045c-0.254-0.056-0.386-0.089-0.386-0.089l0.658-2.926c0,0,0.148,0.028,0.414,0.095
					c0.999,0.218,4.531,0.9,9.425,0.9c6.122,0,15.33-1.092,24.435-6.296l1.615,2.522c-7.106,5.071-11.325,11.482-12.537,19.054
					c-2.579,16.108,8.921,32.332,10.241,34.129l1.754,2.389L227.841,231.702z M201.134,228.702h23.868
					c-3.634-5.641-11.454-19.779-9.175-34.017c0.872-5.444,3.125-10.332,6.725-14.611c-6.594,2.236-12.737,2.805-17.274,2.805
					c-0.6,0-1.179-0.009-1.737-0.026c2.908,2.41,5.497,6.182,5.532,11.973C209.345,196.638,211.695,214.473,201.134,228.702z" style="fill:#CCCCDE;"></path>
			</g>
			<g>
				<path d="M203.018,155.975" style="fill:#D57E58;"></path>
			</g>
			<path d="M223.01,180.322c0,0-18.847,24.334-4.361,49.88h9.192
				C227.841,230.202,208.714,203.473,223.01,180.322z" style="opacity:0.11;fill:#6E6E96;enable-background:new    ;"></path>
		</g>
		<g style="display:inline;">
			<g>
				<path d="M89.418,166.416c0-13.111-11.408-23.738-25.479-23.738c-0.22,0-0.436,0.008-0.653,0.014
					c-4.443-6.954-12.589-11.613-21.907-11.613c-14.071,0-25.48,10.629-25.48,23.736c0,0.17,0.011,0.336,0.015,0.507
					c-7.695,4.086-12.889,11.795-12.889,20.641c0,13.106,11.407,23.736,25.479,23.736c0.8,0,1.59-0.041,2.372-0.104
					c4.674,5.271,11.745,8.639,19.659,8.639c13.007,0,23.729-9.082,25.279-20.81C83.903,183.439,89.418,175.531,89.418,166.416z" style="fill:#D7F7E4;"></path>
				<path d="M50.535,209.732c-7.796,0-15.142-3.122-20.277-8.591c-0.62,0.038-1.198,0.057-1.754,0.057
					c-14.876,0-26.979-11.321-26.979-25.236c0-8.773,4.911-16.938,12.877-21.519c0.213-13.745,12.233-24.865,26.977-24.865
					c9.146,0,17.764,4.424,22.703,11.6c14.81,0.073,26.836,11.367,26.836,25.238c0,9.149-5.242,17.508-13.734,21.992
					C75.152,200.621,63.844,209.732,50.535,209.732z M31.501,198.038l0.497,0.561c4.583,5.169,11.339,8.134,18.537,8.134
					c12.094,0,22.322-8.386,23.792-19.506l0.105-0.795l0.719-0.354c7.875-3.878,12.767-11.412,12.767-19.661
					c0-12.263-10.757-22.238-23.979-22.238c-0.162,0-0.321,0.005-0.48,0.01l-0.98,0.026l-0.457-0.715
					c-4.304-6.736-12.214-10.921-20.643-10.921c-13.223,0-23.98,9.976-23.98,22.236l0.036,1.397l-0.817,0.435
					c-7.459,3.96-12.093,11.361-12.093,19.315c0,12.261,10.757,22.236,23.979,22.236c0.689,0,1.425-0.032,2.251-0.1L31.501,198.038z" style="fill:#CCCCDE;"></path>
			</g>
			<path d="M63.511,141.822c-0.219,0-0.435,0.01-0.652,0.015
				c-3.562-5.577-9.506-9.678-16.525-11.085c5.553,1.393,10.231,4.771,13.106,9.27c0.186-0.004,2.739,4.406,2.928,4.406
				c12.076,0,17.692,6.506,17.692,17.758c0,7.82-2.929,12.806-9.87,16.222c-1.33,10.063-10.531,17.854-21.693,17.854
				c-6.792,0-12.859-2.886-16.871-7.412c-0.67,0.058-1.348,0.092-2.035,0.092c-12.076,0-21.561-5.723-21.561-16.975
				c0-7.574,3.391-11.308,9.561-15.807c-0.165-0.975-0.85-9.549,1.437-11.836c5.435-5.434,7.896-10.103,12.758-12.516
				c-9.541,3.43-16.313,12.051-16.313,22.146c0,0.17,0.01,0.338,0.014,0.508c-7.696,4.084-12.889,11.792-12.889,20.64
				c0,13.105,11.407,23.734,25.479,23.734c0.801,0,1.591-0.039,2.373-0.104c4.674,5.271,11.745,8.639,19.659,8.639
				c13.006,0,23.728-9.081,25.278-20.809c8.089-3.979,13.604-11.893,13.604-21.002C88.991,152.449,77.583,141.822,63.511,141.822z" style="opacity:0.1;fill:#6E6E96;enable-background:new    ;"></path>
			<g>
				<path d="M27.248,179.256c0,0,13.193,2.583,13.193,15.496c0,0,3.553,21.932-10.179,37.45h31.707
					c-0.314-0.437-27.694-37.015,2.777-58.759C46.163,184.066,27.248,179.256,27.248,179.256z" style="fill:#EDE3DA;"></path>
				<path d="M61.969,233.702H26.932l2.207-2.494c13.083-14.784,9.855-36.005,9.821-36.217l-0.019-0.239
					c0-10.454-9.661-13.443-11.658-13.948c-0.266-0.059-0.405-0.094-0.405-0.094l0.658-2.926c0,0,0.155,0.029,0.434,0.099
					c1.061,0.231,4.819,0.96,10.029,0.96c6.514,0,16.314-1.163,26.002-6.701l1.616,2.522c-7.567,5.4-12.06,12.228-13.353,20.293
					c-2.748,17.136,9.488,34.414,10.893,36.328l1.751,2.388L61.969,233.702z M33.418,230.702h25.708
					c-3.81-5.884-12.263-21.012-9.824-36.22c0.941-5.872,3.401-11.134,7.34-15.726c-7.116,2.464-13.756,3.086-18.643,3.086
					c-0.734,0-1.44-0.014-2.115-0.038c3.159,2.54,6.021,6.566,6.057,12.829C42.226,196.521,44.755,215.578,33.418,230.702z" style="fill:#CCCCDE;"></path>
			</g>
			<g>
				<path d="M35.603,153.357" style="fill:#D57E58;"></path>
			</g>
			<path d="M56.838,179.221c0,0-20.02,25.848-4.633,52.981h9.764
				C61.969,232.202,41.654,203.811,56.838,179.221z" style="opacity:0.11;fill:#6E6E96;enable-background:new    ;"></path>
		</g>
	</g>
	<g>
		<path d="M54.866,74.859c0-0.096,0.009-0.189,0.009-0.287c0-10.087-8.902-18.272-19.886-18.272
			c-9.45,0-17.362,6.063-19.378,14.19c-0.312-0.024-0.625-0.038-0.941-0.038c-6.535,0-11.831,4.867-11.831,10.869
			c0,1.286,0.248,2.521,0.694,3.663c-1.834,2.38-2.916,5.292-2.916,8.427c0,7.958,6.926,14.424,15.538,14.597v0.008h30.55
			c10.474,0,18.963-7.803,18.963-17.428C65.673,83.652,61.256,77.662,54.866,74.859z" style="fill:#FFFFFF;"></path>
		<path d="M46.705,109.516h-30.55c-0.066,0-0.132-0.004-0.196-0.013c-9.302-0.27-16.842-7.457-16.842-16.092
			c0-3.102,0.945-6.084,2.74-8.676c-0.344-1.109-0.519-2.254-0.519-3.414c0-6.764,5.881-12.277,13.148-12.368
			C17.151,60.561,25.403,54.8,34.989,54.8c11.55,0,20.99,8.509,21.374,19.103c6.601,3.275,10.81,9.726,10.805,16.686
			C67.168,101.025,57.988,109.516,46.705,109.516z M16.313,106.516h30.392c9.629,0,17.463-7.146,17.463-15.928
			c0.004-6.08-3.883-11.714-9.904-14.355c-0.545-0.239-0.897-0.778-0.897-1.374l0.006-0.211C53.375,65.324,45.127,57.8,34.989,57.8
			c-8.509,0-16.046,5.489-17.922,13.052c-0.176,0.712-0.841,1.188-1.573,1.134c-0.273-0.021-0.547-0.034-0.824-0.034
			c-5.697,0-10.331,4.203-10.331,9.369c0,1.064,0.199,2.112,0.591,3.117c0.191,0.49,0.112,1.044-0.209,1.461
			c-1.704,2.211-2.604,4.809-2.604,7.512c0,7.066,6.311,12.941,14.068,13.097C16.228,106.509,16.271,106.512,16.313,106.516z" style="fill:#D0D0E3;"></path>
	</g>
	<g>
		<path d="M249.159,94.116c0-0.078,0.006-0.153,0.006-0.233c0-8.184-7.222-14.825-16.133-14.825
			c-7.667,0-14.087,4.918-15.722,11.513c-0.254-0.021-0.509-0.03-0.765-0.03c-5.302,0-9.599,3.949-9.599,8.818
			c0,1.043,0.201,2.045,0.562,2.971c-1.488,1.932-2.365,4.293-2.365,6.836c0,6.456,5.619,11.703,12.605,11.843v0.006h24.786
			c8.497,0,15.385-6.331,15.385-14.14C257.926,101.249,254.343,96.39,249.159,94.116z" style="fill:#FFFFFF;"></path>
		<path d="M242.536,122.515H217.75c-0.06,0-0.118-0.003-0.177-0.01c-7.694-0.227-13.929-6.182-13.929-13.339
			c0-2.529,0.757-4.963,2.195-7.086c-0.261-0.886-0.393-1.798-0.393-2.721c0-5.579,4.788-10.138,10.744-10.312
			c2.262-6.822,9.012-11.488,16.841-11.488c9.462,0,17.207,6.936,17.616,15.604c5.364,2.727,8.777,8.013,8.772,13.715
			C259.421,115.499,251.847,122.515,242.536,122.515z M217.889,119.515h24.647c7.656,0,13.885-5.67,13.885-12.64
			c0.004-4.819-3.083-9.288-7.864-11.385c-0.545-0.239-0.897-0.778-0.897-1.374l0.004-0.172c0.002-7.408-6.562-13.386-14.631-13.386
			c-6.776,0-12.775,4.363-14.266,10.374c-0.177,0.713-0.834,1.197-1.577,1.134c-0.214-0.017-0.428-0.025-0.644-0.025
			c-4.466,0-8.099,3.283-8.099,7.318c0,0.828,0.154,1.644,0.46,2.426c0.191,0.49,0.111,1.044-0.209,1.461
			c-1.344,1.744-2.054,3.791-2.054,5.92c0,5.581,4.995,10.22,11.136,10.343C217.816,119.51,217.853,119.512,217.889,119.515z" style="fill:#D0D0E3;"></path>
	</g>
	<g>
		<circle r="75.751" cy="171.304" cx="136.207" style="fill:#B0CBFF;"></circle>
		<path d="M93.611,174.413c0,0,3.752,1.687,3.752-2.369
			c0-4.053,4.605-9.991-2.838-12.162c-7.444-2.172,4.053-3.042,2.027-8.108c-2.027-5.067-9.104-4.886-11.96-2.026
			c-2.858,2.858,0.948-9.106,8.718-6.284c7.771,2.821,2.435,11.149,10.339,9.325c7.906-1.823,0.608-10.744,7.906-10.744
			c7.3,0,5.677-9.935,10.949-9.935c5.271,0,4.053-5.676,8.717-5.676c4.664,0-3.143-11.251,2.635-7.501
			c5.777,3.749,8.735,0.811,7.299-8.921c-1.439-9.729-0.303-2.534,2.636-5.473c2.938-2.938-1.521-4.764-2.839-6.083
			c-1.317-1.318,0.111-2.746,0.111-2.746s-22.208-4.439-34.777,13.492c-12.569,17.929-27.978,24.732-26.963,35.271
			C80.335,155.016,86.817,164.821,93.611,174.413z" style="opacity:0.23;fill:#FFFFFF;enable-background:new    ;"></path>
		<path d="M102.28,239.044c0,0,1.95-15.787,0-17.737
			c-1.952-1.951-9.376-7.299-9.376-12.771s-8.667-13.835-5.777-16.725c2.889-2.889,7.451-3.648,7.451-7.449
			s1.264-12.672,12.568-12.672c11.302,0,25.747,8.414,28.636,11.305c2.889,2.89,8.513,5.777,9.883,9.884
			c1.368,4.104,1.978,4.104,5.321,4.104c3.345,0,3.648,4.41,7.754,4.41s7.146,2.888,11.1,2.888c3.952,0-3.041,10.036-6.689,13.685
			c-3.65,3.649-9.73,14.598-16.725,14.598s-10.341,8.361-15.355,8.361c-5.017,0-10.929,4.421-10.929,4.421
			S105.955,242.719,102.28,239.044z" style="opacity:0.23;fill:#FFFFFF;enable-background:new    ;"></path>
		<path d="M110.678,165.508" style="fill:#00A33E;stroke:#6E6E96;"></path>
		<g style="opacity:0.92;enable-background:new    ;">
			<path d="M166.158,112.201c1.021,0.634-0.165,1.866,1.048,1.974c0.944,0.49-2.31,7.274,0.829,8.038
				c1.354,1.09-1.604,1.125-0.574,2.105c1.336,0.998,3.434,1.384,5.04,1.789c1.878,0.141,1.276-2.596,2.851-3.098
				c1.057-0.337,3.282,0.168,4.146-0.363c2.447-1.514,1.201-4.447-0.03-6.089c-0.669-0.887-3.416-1.912-4.186-2.637
				c-3.681-3.481-7.938-4.261-12.259-5.873C161.889,110.597,164.284,111.521,166.158,112.201z" style="fill:#FFFFFF;"></path>
			<path d="M172.638,127.612L172.638,127.612c-0.08,0-0.163-0.003-0.249-0.01
				c-0.086-0.006-0.171-0.021-0.254-0.041l-0.717-0.175c-1.625-0.389-3.467-0.83-4.854-1.867c-0.048-0.036-0.094-0.074-0.137-0.115
				c-0.645-0.613-0.724-1.25-0.678-1.675c0.042-0.376,0.186-0.677,0.369-0.917c-1.52-1.589-0.879-4.697-0.5-6.535
				c0.069-0.337,0.154-0.748,0.209-1.078c-0.403-0.326-0.726-0.873-0.717-1.786c-1.308-0.495-2.954-1.255-3.608-2.793
				c-0.41-0.965-0.359-2.037,0.151-3.184c0.322-0.725,1.153-1.072,1.895-0.795c0.929,0.347,1.855,0.654,2.772,0.958
				c3.381,1.122,6.876,2.283,9.992,5.23c0.188,0.175,0.957,0.579,1.467,0.846c1.186,0.622,2.307,1.209,2.886,1.979
				c0.645,0.859,2.092,3.099,1.658,5.397c-0.226,1.193-0.93,2.186-2.036,2.87c-0.901,0.554-1.998,0.499-3.078,0.472
				c-0.221-0.006-0.44-0.011-0.652-0.011c-0.519,0-0.697,0.039-0.749,0.056c-0.052,0.066-0.204,0.468-0.295,0.708
				C175.211,125.946,174.582,127.612,172.638,127.612z M172.638,125.564v0.548l0.002-0.556L172.638,125.564z M169.59,123.754
				c0.781,0.297,1.689,0.515,2.527,0.716l0.396,0.097c0.064-0.141,0.138-0.335,0.192-0.48c0.291-0.769,0.776-2.056,2.189-2.507
				c0.435-0.138,0.932-0.197,1.661-0.197c0.236,0,0.482,0.006,0.729,0.012c0.223,0.005,0.446,0.011,0.662,0.011
				c0.596,0,0.777-0.05,0.818-0.065c0.446-0.281,0.563-0.602,0.609-0.846c0.144-0.758-0.292-1.95-1.107-3.038
				c-0.222-0.254-1.261-0.799-1.882-1.125c-0.884-0.463-1.646-0.863-2.132-1.321c-2.156-2.039-4.579-3.084-7.147-3.98
				c0.815,0.585,0.983,1.391,1.008,1.942c1.093,0.75,0.79,2.221,0.442,3.909c-0.51,2.473-0.565,3.776-0.167,3.873
				c0.215,0.052,0.414,0.151,0.586,0.289c0.815,0.657,0.949,1.352,0.917,1.818C169.868,123.219,169.75,123.513,169.59,123.754z" style="fill:#6E6E96;"></path>
		</g>
		<path d="M192.34,152.887c0,0-1.521,0.607-1.521,4.562
			s-1.822,5.473-1.822,8.817c0,3.347,0.152,11.707,3.952,15.51c3.804,3.802,3.19,13.058,9.124,13.377
			c5.932,0.322,6.63-0.725,4.674,3.811c0,0,14.562-30.914-2.508-60.995c0,0-3.698-2.993-5.817,1.845
			c-2.12,4.838-7.298,2.736-7.298,6.082C191.123,149.238,192.34,152.887,192.34,152.887z" style="opacity:0.23;fill:#FFFFFF;enable-background:new    ;"></path>
		<path d="M136.207,248.555c-42.596,0-77.251-34.654-77.251-77.251s34.655-77.251,77.251-77.251
			c42.597,0,77.251,34.654,77.251,77.251S178.804,248.555,136.207,248.555z M136.207,97.053c-40.942,0-74.251,33.309-74.251,74.251
			s33.309,74.251,74.251,74.251c40.942,0,74.251-33.309,74.251-74.251S177.149,97.053,136.207,97.053z" style="fill:#6E6E96;"></path>
		<path d="M93.309,173.706c-0.809-0.785-1.301-2.017-1.354-3.079c-0.062-1.245,1.325-3.327,1.539-4.334
			c1.002-4.748-7.508-2.775-6.065-6.045c0.839-0.753,0.529-1.721,1.137-2.542c0.485-0.657,1.762-1.347,2.451-1.78
			c1.054-0.865,1.507-3.457,0.688-3.971c-3.858-1.669-3.855,1.641-6.278,2.658c-5.42,2.277-5.497-11.514-1.624-12.217
			c1.489-2.461,1.05-3.681,4.324-3.795c2.133-0.074,4.376,0.082,6.092,1.051c0.783-0.146-0.457-1.725,0.253-1.467
			c0.872-0.113,1.651,0.088,2.408,0.455c0.104,0.183,0.021,0.404,0.071,0.604c0.512,0.442,0.498,0.147,0.907,0.899
			c0.864,0.053,1.769,0.019,2.631,0.068c1.951-0.035-1.381,10.12,2.934,9.174c1.387-0.753,1.944-2.039,2.061-4.021
			c0.083-1.432-0.998-2.688-0.673-4.283c0.542-2.677,4.833-3.021,7.039-4.008c1.981-0.889,2.115-0.912,3.105-2.981
			c0.845-1.766,2.044-3.145,3.619-4.502c1.568-1.352,2.017-1.258,4.048-1.586c1.255-0.202,0.45-1.239,1.376-2.522
			c0.498-0.54,1.096-0.745,1.749-0.782c0.002,0,0.004-0.002,0.004-0.005c0,0,6.987-0.249,3.491-3.744s-0.76-8.969,3.648-6.994
			c2.982,1.338,3.045,2.464,3.855,2.396c3.834-7.045-2.51-9.133-2.51-9.133c-2.039-0.496-3.316,0.664-4.995-1.017
			c-0.965-0.965-3.212-1.519-3.979-0.124c-0.221,0.882-0.247,1.8-0.787,2.55c-0.524,0.729-1.292,0.522-1.851,1.061
			c-0.591,0.563-0.746,1.131-1.134,1.633c-0.443,0.576-1.512,2.807-2.715,2.733c-1.111-0.067-2.15-2.108-1.809-2.963
			c0.492-1.229,3.734-1.287,1.825-2.942c-0.753-0.654-2.381-0.143-3.35-1.15c-0.618-1.853-0.953-3.855,0.864-4.471
			c0.826-0.282,2.064,0.008,2.932-0.165c0.907-0.18,1.789-0.687,2.706-0.737c2.284-0.127,3.207,0.566,4.908-0.452
			c1.033-0.617,3.229-3.042,4.976-2.669c0.825,0.529,0.937,1.545,0,1.735c-0.524-0.011-1.146,0.102-1.696,0.342
			c3.45-0.453,6.27,0.847,8.037,2.516c0.811-0.251,1.587-0.544,1.545-1.658c-0.186-1.167-2.086-0.879-2.902-1.833
			c-0.182-0.213,0.187-3.824,0.027-4.059l-1.208,0.003c-25.115,0.189-47.319,12.596-60.965,31.573
			c-0.173,1.252-0.307,2.488-0.517,3.588c-0.842,4.407-0.02,8.887,0,13.301c0.007,1.922-0.88,3.57-0.682,5.41
			c0.191,1.779,1.21,2.76,2.087,4.227c0.853,1.428,1.229,3.279,2.379,4.17c1.141,0.88,2.594,1.102,3.825,2.424
			c1.468,1.575,1.129,2.994,2.142,4.453c0.941,1.357,2.931,0.718,3.731,2.131c0.75,1.324,0.063,3.633,0.784,5.126
			c0.267,0.558,0.988,1.483,1.899,2.453C93.063,175.746,93.545,174.922,93.309,173.706z" style="fill:#BBF7B2;"></path>
		<path d="M164.521,206.727c-1.666,0.322-1.859-0.896-2.946-1.562c-1.196-0.732-2.673-0.979-4.013-1.175
			c-2.215-0.327-5.41,0.223-7.18-1.39c-0.982-3.982-7.586,0.146-7.664-2.252c0.291-0.861-1.051-1.32-0.469-2.219
			c1.23-1.267,0.312-2.087-0.021-3.333c-0.291-1.094-0.394-2.487-1.072-3.481c-1.096-1.598-3.93-2.318-5.692-2.873
			c-2.71-0.854-3.089-1.651-5.005-3.563c-0.521-0.521-1.006-0.864-1.456-1.159c-0.691-0.689-1.503-1.439-2.407-2.219
			c-0.01-0.02-0.02-0.034-0.03-0.054c-0.021-0.011-0.046-0.021-0.066-0.033c-5.087-4.356-8.46-6.324-16.39-6.324
			c-1.626,0-2.947,0.153-3.997,0.356c-1.385,0.466-2.487,0.861-3.369,1.22c-0.387,0.289-0.721,0.428-1.022,0.451
			c-2.449,1.179-2.469,2.14-2.463,4.491c0.001,0.054,0,0.103,0,0.158c0,0.064,0,0.135,0,0.207c0,0.104-0.005,0.2-0.013,0.287
			c-0.056,1.04-0.275,2.114-0.706,2.795c-0.682,1.09-2.212,1.764-3.254,2.652c-0.921,0.787-1.424,1.645-2.161,2.345
			c-0.384,1.593,1.538,1.427-0.901,4.058c-1.056,1.651-0.459,3.779-0.05,5.16c0.427,1.438,2.092,2.739,3.003,3.993
			c1.874,2.578,2.614,5.438,4.393,7.99c1.868,2.687,4.833,4.073,6.994,6.313c1.389,1.439,1.23,2.191,0.914,4.185
			c-0.251,1.604-0.414,3.563-0.414,5.461c0,3.856,0.381,10.418,0.191,14.114l6.878,2.464c0.39-0.461,2.097-2.252,2.552-2.683
			c2.27-2.162,4.979-1.381,7.931-1.529c-0.051-0.374,0.146-0.914,0.073-1.283c0.283-0.266,0.283-0.002,0.45-0.447
			c2.461-0.141,3.892-0.685,5.875-1.115c1.133-0.246,1.985,0.113,2.879-0.5c0.457-0.318,0.84-1.725,1.396-2.217
			c1.989-1.506,1.621-0.424,2.667-1.843c0.67-0.907,1.777-1.278,1.843-2.671c0.749-1.949,2.22-0.009,3.304-0.073
			c0.467-1.702,2.393-1.315,3.873-1.313c1.963,0.007,2.566-0.014,3.883-1.287c4.189-4.067,5.048-8.989,9.693-12.414
			C162.993,212.605,167.26,207.255,164.521,206.727z" style="fill:#BBF7B2;"></path>
		<path d="M91.217,155.729c1.053-0.862,1.504-3.457,0.686-3.969
			c-0.755-0.324-1.362-0.459-1.868-0.458c-0.182,0.679-0.512,1.332-0.947,1.688c-0.69,0.436-1.966,1.124-2.453,1.779
			c-0.608,0.823-0.299,1.789-1.135,2.545c-0.668,1.51,0.786,1.899,2.447,2.353c0.437-0.683,0.309-1.47,0.82-2.158
			C89.25,156.854,90.528,156.166,91.217,155.729z M83.295,162.646c0.185,0.621,0.371,1.235,0.803,1.858
			c0.484,0.696,1.247,0.867,1.979,1.06c-0.034-0.625-0.116-1.207-0.377-1.668C85.189,162.997,84.194,162.93,83.295,162.646z
			 M136.998,97.674c0.055-1.043,0.126-2.187,0.037-2.317l-1.207,0.004c-0.328,0.002-0.654,0.016-0.98,0.021
			c-0.027,0.67-0.037,1.218,0.031,1.298C135.391,97.279,136.325,97.39,136.998,97.674z M91.632,162.883
			c-0.013,0.151-0.031,0.309-0.066,0.477c-0.211,1.008-1.602,3.091-1.539,4.334c0.052,1.062,0.544,2.296,1.353,3.08
			c0.232,1.189-0.233,2.002-2.842,0.777c0.028,0.069,0.043,0.146,0.075,0.213c0.268,0.558,0.99,1.482,1.899,2.452
			c2.75,1.333,3.235,0.509,2.996-0.708c-0.809-0.785-1.301-2.016-1.353-3.081c-0.063-1.243,1.326-3.325,1.539-4.333
			C94.086,164.225,93.001,163.396,91.632,162.883z M76.632,155.299c0.401,0.922,0.812,1.799,1.499,2.327
			c0.839,0.647,1.849,0.94,2.815,1.578c-0.21-0.612-0.509-1.238-1.118-1.892C78.812,156.225,77.648,155.88,76.632,155.299z
			 M116.843,111.128c0.093,0.005,0.18-0.007,0.27-0.025c0.013-0.071,0.026-0.141,0.052-0.202c0.209-0.519,0.906-0.83,1.5-1.14
			c0.339-0.479,0.618-0.967,0.813-1.25c-0.094-0.162-0.25-0.345-0.488-0.551c-0.624-0.543-1.849-0.286-2.799-0.755
			c-0.496,0.256-0.983,0.539-1.154,0.96C114.693,109.02,115.733,111.06,116.843,111.128z M98.561,137.286
			c-0.865-0.054-1.766-0.021-2.631-0.069c-0.409-0.749-0.395-0.46-0.905-0.9c-0.052-0.2,0.034-0.424-0.071-0.604
			c-0.756-0.368-1.536-0.567-2.407-0.455c-0.71-0.26,0.528,1.318-0.253,1.466c-1.717-0.969-3.959-1.123-6.093-1.051
			c-3.275,0.114-2.833,1.334-4.322,3.794c-3.398,0.617-3.757,11.306-0.132,12.38c-1.056-3.539-0.187-9.197,2.261-9.644
			c1.489-2.461,1.047-3.681,4.321-3.795c2.134-0.074,4.376,0.082,6.094,1.051c0.783-0.147-0.457-1.726,0.253-1.468
			c0.87-0.114,1.651,0.089,2.406,0.457c0.105,0.18,0.021,0.402,0.072,0.604c0.514,0.44,0.498,0.148,0.906,0.9
			c0.384,0.021,0.777,0.025,1.168,0.029C99.279,138.457,99.229,137.273,98.561,137.286z M137.307,99.682
			c-0.289,0.232-0.672,0.366-1.07,0.49c-1.766-1.669-4.584-2.97-8.033-2.515c0.549-0.242,1.171-0.354,1.693-0.344
			c0.904-0.185,0.826-1.133,0.076-1.674c-0.5,0.042-0.998,0.084-1.495,0.134c-1.388,0.569-2.789,2.017-3.556,2.477
			c-1.7,1.019-2.626,0.325-4.908,0.451c-0.915,0.052-1.797,0.556-2.707,0.739c-0.865,0.171-2.104-0.118-2.931,0.163
			c-1.815,0.616-1.481,2.619-0.864,4.472c0.458,0.477,1.063,0.613,1.655,0.693c-0.096-1.102,0.195-2.04,1.337-2.426
			c0.826-0.282,2.063,0.008,2.932-0.165c0.908-0.179,1.79-0.687,2.707-0.738c2.284-0.128,3.206,0.566,4.908-0.452
			c1.034-0.617,3.229-3.042,4.977-2.669c0.824,0.53,0.938,1.544,0,1.735c-0.523-0.01-1.146,0.104-1.695,0.342
			c3.449-0.452,6.27,0.846,8.035,2.515c0.812-0.25,1.586-0.543,1.547-1.657C139.744,100.209,138.215,100.326,137.307,99.682z
			 M135.812,107.744c0.439,1.373,0.338,3.224-0.998,5.68c-0.811,0.07-0.869-1.056-3.854-2.394c-4.41-1.979-7.147,3.497-3.649,6.994
			c3.497,3.497-3.49,3.744-3.49,3.744c-0.002,0.002-0.004,0.003-0.006,0.005c-0.652,0.035-1.252,0.241-1.749,0.78
			c-0.926,1.285-0.12,2.322-1.376,2.523c-2.028,0.326-2.479,0.234-4.047,1.585c-1.575,1.36-2.775,2.735-3.62,4.503
			c-0.99,2.068-1.124,2.095-3.104,2.98c-2.207,0.985-6.496,1.33-7.04,4.009c-0.323,1.596,0.758,2.854,0.675,4.282
			c-0.116,1.982-0.676,3.269-2.062,4.021c-0.066,0.018-0.13,0.02-0.194,0.03c0.123,1.747,0.638,3.075,2.323,2.706
			c1.386-0.754,1.943-2.04,2.061-4.023c0.085-1.43-0.998-2.688-0.674-4.283c0.542-2.677,4.833-3.021,7.039-4.009
			c1.982-0.888,2.116-0.912,3.105-2.979c0.845-1.767,2.044-3.145,3.619-4.504c1.567-1.352,2.018-1.257,4.048-1.584
			c1.257-0.203,0.451-1.24,1.377-2.523c0.497-0.539,1.096-0.744,1.749-0.779c0.001-0.002,0.003-0.004,0.004-0.006
			c0,0,6.985-0.249,3.489-3.744c-3.496-3.497-0.757-8.969,3.648-6.994c2.984,1.338,3.047,2.464,3.855,2.396
			C139.566,111.341,137.426,108.842,135.812,107.744z" style="opacity:0.77;fill:#A8DEA0;enable-background:new    ;"></path>
		<path d="M164.059,206.929c-1.664,0.326-1.859-0.894-2.944-1.559c-1.196-0.734-2.673-0.979-4.013-1.177
			c-2.218-0.327-5.408,0.224-7.179-1.389c-0.983-3.982-7.586,0.147-7.665-2.252c0.006-0.017,0.006-0.027,0.014-0.044
			c-0.1,0.211-0.252,0.429-0.481,0.662c-0.58,0.901,0.76,1.361,0.47,2.22c0.079,2.4,6.682-1.73,7.665,2.254
			c1.771,1.609,4.961,1.058,7.179,1.387c1.336,0.201,2.815,0.441,4.013,1.177c1.088,0.668,1.282,1.885,2.944,1.562
			c0.088,0.018,0.164,0.035,0.233,0.061C165.102,208.395,165.299,207.17,164.059,206.929z M106.794,241.527l0.053,0.02
			c0-0.404-0.004-0.824-0.012-1.249C106.825,240.729,106.814,241.146,106.794,241.527z M107.016,221.952
			c-0.251,1.603-0.414,3.563-0.414,5.459c0,0.552,0.01,1.161,0.02,1.805c0.047-1.559,0.186-3.11,0.393-4.426
			c0.211-1.325,0.347-2.103,0.009-2.897C107.021,221.913,107.019,221.932,107.016,221.952z M92.645,193.207
			c-0.195,0.306-0.475,0.664-0.883,1.104c-0.74,1.162-0.667,2.555-0.414,3.761c0.095-0.318,0.227-0.63,0.414-0.925
			C94.14,194.586,92.385,194.671,92.645,193.207z M141.891,198.218c1.069-1.202,0.203-2.013-0.123-3.22
			c-0.291-1.093-0.393-2.486-1.074-3.48c-1.094-1.598-3.928-2.319-5.69-2.875c-2.71-0.854-3.09-1.651-5.006-3.562
			c-0.521-0.521-1.004-0.863-1.457-1.16c-0.691-0.689-1.502-1.439-2.405-2.219c-0.01-0.02-0.02-0.033-0.03-0.055
			c-0.021-0.011-0.047-0.02-0.066-0.031c-5.087-4.357-8.46-6.324-16.39-6.324c-1.626,0-2.946,0.152-3.998,0.354
			c-1.385,0.468-2.487,0.864-3.369,1.223c-0.386,0.29-0.72,0.428-1.021,0.449c-2.45,1.182-2.468,2.142-2.463,4.492
			c0.001,0.054,0,0.103,0,0.157c0,0.067,0,0.134,0,0.206c0,0.105-0.005,0.204-0.013,0.289c-0.055,1.04-0.275,2.115-0.706,2.796
			c-0.682,1.091-2.212,1.765-3.254,2.653c-0.921,0.783-1.423,1.643-2.161,2.344c-0.303,1.248,0.815,1.421,0.124,2.71
			c0.669-0.674,1.168-1.477,2.036-2.217c1.042-0.888,2.572-1.562,3.254-2.651c0.431-0.683,0.651-1.757,0.706-2.797
			c0.007-0.09,0.013-0.183,0.013-0.288c0-0.071,0-0.137,0-0.207c0-0.056,0-0.104,0-0.157c-0.004-2.351,0.014-3.312,2.463-4.491
			c0.302-0.022,0.635-0.159,1.021-0.45c0.882-0.36,1.984-0.754,3.369-1.221c1.052-0.203,2.372-0.355,3.998-0.355
			c7.929,0,11.304,1.969,16.39,6.324c0.02,0.012,0.045,0.021,0.064,0.033c0.012,0.02,0.022,0.033,0.032,0.054
			c0.902,0.778,1.715,1.526,2.405,2.218c0.453,0.293,0.936,0.637,1.457,1.16c1.915,1.911,2.294,2.711,5.006,3.562
			c1.764,0.558,4.598,1.277,5.691,2.877c0.682,0.992,0.781,2.39,1.072,3.479C141.803,197.968,141.846,198.094,141.891,198.218z" style="fill:#D0F7CB;"></path>
		<path d="M208.004,195.477c2.264-7.188,4.318-14.521,4.318-22.459c0-10.311-1.939-20.562-5.674-29.521
			c-0.229,0.284-0.596,1.025-0.863,1.368c-1.446-0.827-1.378-2.57-2.758-3.358c-1.801-1.029-3.256,0.971-4.047,2.393
			c-2.984,0.09-3.123,0.701-3.117,3.646c0.003,1.938,0.053,4.267,0.673,5.862l0.229,0.224c0.424,1.842-0.76,1.892-1.633,3.106
			c-0.921,1.287-0.766,2.166-0.851,3.883c-0.15,2.974-1.704,4.32-1.546,7.404c0.365,2.151,0.199,5.039,0.138,7.688
			c0.545,1.569,1.521,3.091,3.211,4.239c5.674,3.854,1.317,11.974,5.826,11.974c1.723-0.419,0.711-5.938,6.153-6.018
			c0.063,0.009,0.556,0.019,0.604,0.007c1.842,0.405,0.826,2.909,0.686,4.465L208.004,195.477z" style="fill:#BBF7B2;"></path>
		<path d="M164.551,206.636c-0.203,0.038-0.384,0.056-0.55,0.054
			c-1.019,1.402-2.385,2.809-3.424,3.573c-4.646,3.425-5.504,8.35-9.693,12.413c-1.315,1.277-1.919,1.295-3.885,1.289
			c-1.481-0.003-3.405-0.389-3.872,1.315c-1.083,0.062-2.554-1.88-3.305,0.071c-0.064,1.393-1.172,1.763-1.842,2.67
			c-1.045,1.42-0.676,0.338-2.668,1.843c-0.554,0.493-0.935,1.899-1.394,2.217c-0.894,0.616-1.746,0.254-2.879,0.501
			c-1.983,0.43-3.413,0.975-5.873,1.115c-0.169,0.445-0.17,0.182-0.452,0.447c0.075,0.365-0.123,0.905-0.07,1.282
			c-2.952,0.149-5.662-0.633-7.931,1.53c-0.453,0.43-2.162,2.22-2.553,2.681l-6.836-2.444c0.021,1.509,0.019,2.906-0.04,4.039
			l6.876,2.463c0.39-0.461,2.099-2.254,2.553-2.683c2.271-2.163,4.979-1.381,7.931-1.53c-0.052-0.373,0.145-0.914,0.07-1.28
			c0.284-0.267,0.284-0.004,0.452-0.45c2.46-0.141,3.89-0.686,5.873-1.115c1.134-0.246,1.985,0.115,2.879-0.501
			c0.459-0.317,0.84-1.724,1.394-2.216c1.989-1.505,1.623-0.423,2.668-1.843c0.67-0.907,1.776-1.278,1.842-2.67
			c0.75-1.949,2.222-0.009,3.305-0.07c0.467-1.705,2.391-1.317,3.872-1.315c1.966,0.006,2.567-0.017,3.885-1.289
			c4.191-4.065,5.05-8.989,9.693-12.414C163.023,212.514,167.289,207.164,164.551,206.636z M142.259,194.703
			c-0.036-0.139-0.071-0.285-0.102-0.43c-0.068,0.287,0.056,0.533,0.213,0.773C142.33,194.938,142.29,194.823,142.259,194.703z
			 M142.775,196.085c-0.006,0.038-0.016,0.077-0.024,0.117c0.007,0.198,0.06,0.347,0.147,0.463
			C142.889,196.471,142.843,196.279,142.775,196.085z M107.508,217.602c0.315-1.992,0.473-2.744-0.914-4.185
			c-2.162-2.242-5.125-3.627-6.994-6.313c-1.779-2.553-2.518-5.412-4.391-7.989c-0.913-1.255-2.579-2.554-3.006-3.995
			c-0.059-0.206-0.124-0.428-0.186-0.658c-0.71,1.574-0.186,3.451,0.186,4.71c0.426,1.443,2.093,2.742,3.006,3.995
			c1.871,2.579,2.612,5.439,4.391,7.99c1.869,2.686,4.832,4.072,6.994,6.313c0.363,0.377,0.617,0.707,0.792,1.021
			C107.426,218.189,107.464,217.885,107.508,217.602z M107.131,225.568c-0.021,0.516-0.037,1.031-0.037,1.549
			c0,2.49,0.158,6.109,0.22,9.357C107.406,233.473,107.214,229.068,107.131,225.568z" style="opacity:0.77;fill:#A8DEA0;enable-background:new    ;"></path>
		<path d="M75.063,151.491c-0.197-1.841,0.69-3.489,0.682-5.411c-0.019-4.413-0.842-8.895,0-13.301
			c0.21-1.096,0.34-2.333,0.518-3.586c13.532-18.819,35.48-31.169,60.333-31.558c0.049-0.891,0.09-1.734,0.018-1.842l-1.211,0.003
			c-25.114,0.188-47.319,12.594-60.966,31.572c-0.172,1.25-0.307,2.486-0.516,3.586c-0.842,4.407-0.018,8.888,0,13.302
			c0.007,1.922-0.88,3.57-0.682,5.408c0.192,1.78,1.21,2.761,2.087,4.229c0.852,1.428,1.228,3.279,2.379,4.168
			c0.25,0.193,0.519,0.354,0.796,0.502c-0.47-0.888-0.817-1.951-1.353-2.847C76.271,154.251,75.254,153.27,75.063,151.491z
			 M91.888,153.602c0.042-0.642-0.077-1.195-0.41-1.404c-3.857-1.67-3.855,1.641-6.277,2.66c-0.65,0.272-1.221,0.311-1.719,0.173
			c0.694,1.517,1.862,2.36,3.543,1.653C89.105,155.805,89.404,153.251,91.888,153.602z M132.012,100.768
			c0.674,0.048,1.316,0.161,1.918,0.328c-0.111-0.191-0.277-0.376-0.505-0.52C132.975,100.479,132.494,100.57,132.012,100.768z
			 M118.564,108.394c-0.429-0.372-1.141-0.366-1.853-0.479c0.088,0.382,0.201,0.772,0.327,1.154
			c0.509,0.529,1.196,0.637,1.845,0.718C119.262,109.46,119.324,109.056,118.564,108.394z M134.01,107.463
			c-2.039-0.497-3.316,0.663-4.994-1.017c-0.966-0.967-3.212-1.521-3.979-0.125c-0.221,0.881-0.247,1.799-0.786,2.55
			c-0.525,0.729-1.289,0.521-1.853,1.06c-0.589,0.563-0.743,1.13-1.133,1.632c-0.435,0.561-1.46,2.692-2.629,2.73
			c0.288,0.862,0.995,1.784,1.736,1.828c1.208,0.073,2.271-2.158,2.717-2.734c0.392-0.505,0.545-1.071,1.133-1.632
			c0.561-0.538,1.327-0.331,1.853-1.061c0.539-0.749,0.562-1.669,0.786-2.55c0.768-1.399,3.014-0.842,3.98,0.124
			c1.68,1.679,2.956,0.519,4.996,1.018c0,0,0.547,0.18,1.221,0.612C135.975,108.111,134.01,107.463,134.01,107.463z
			 M138.363,100.721c-0.018,0.508-0.012,0.895,0.047,0.958c0.252,0.297,0.611,0.476,0.99,0.611c0.059-0.172,0.094-0.364,0.086-0.602
			C139.396,101.133,138.924,100.908,138.363,100.721z M97.633,140.389C97.633,140.389,97.633,140.389,97.633,140.389
			S97.633,140.389,97.633,140.389L97.633,140.389z M102.089,142.281c-0.375-0.023-0.761-0.026-1.145-0.03
			c0.025,2.739-0.815,7.627,1.869,7.437C102.29,146.989,103.423,142.257,102.089,142.281z M82.196,161.375
			c0.721,1.232,0.656,2.385,1.476,3.562c0.34,0.49,0.818,0.721,1.325,0.881c-0.45-1.135-0.492-2.274-1.643-3.51
			C82.984,161.913,82.592,161.621,82.196,161.375z M88.914,162.632c-0.462,1.74,2.361,1.769,4.369,2.609
			C92.886,163.5,90.607,163.135,88.914,162.632z M89.228,168.895c-0.351-0.621-0.932-0.846-1.556-1.018
			c0.267,1.33-0.077,3.096,0.514,4.319c0.267,0.558,0.988,1.482,1.9,2.452c0.161,0.08,0.314,0.146,0.459,0.211
			c-0.24-0.325-0.425-0.613-0.534-0.838C89.291,172.527,89.978,170.221,89.228,168.895z" style="fill:#D0F7CB;"></path>
		<path d="M196.783,153.32c0.689-1.18,1.63-1.228,1.289-3.016
			l-0.178-0.218c-0.496-1.548-0.533-3.805-0.537-5.687c0-0.008,0-0.016,0-0.021c-1.305,0.348-1.381,1.243-1.379,3.456
			c0.004,1.906,0.056,4.188,0.648,5.78C196.678,153.52,196.725,153.422,196.783,153.32z M208.121,195.768
			c2.263-7.189,4.316-14.521,4.316-22.459c0-9.728-1.727-19.399-5.058-27.987c1.999,7.458,3.031,15.604,3.031,23.795
			c0,5.978-0.983,11.602-2.263,17.082c0.016,0,0.025-0.002,0.039-0.002c0.065,0.009,0.555,0.018,0.604,0.006
			c1.843,0.407,0.825,2.909,0.685,4.467L208.121,195.768z M207.52,181.621c-0.041,0.011-0.428,0.004-0.479-0.007
			c-4.318,0.075-3.514,5.433-4.88,5.839c-3.578,0-0.12-7.878-4.624-11.614c-1.338-1.112-2.115-2.589-2.546-4.112
			c0.046-2.567,0.179-5.367-0.109-7.455c-0.126-2.99,1.104-4.299,1.224-7.185c0.019-0.362,0.021-0.681,0.027-0.979
			c-0.283,0.25-0.6,0.521-0.883,0.918c-0.922,1.289-0.766,2.168-0.852,3.883c-0.149,2.976-1.703,4.322-1.547,7.406
			c0.367,2.151,0.2,5.039,0.141,7.686c0.543,1.57,1.519,3.093,3.209,4.242c5.675,3.853,1.318,11.972,5.826,11.972
			c1.705-0.412,0.738-5.813,5.974-6.009l0.058-0.249C208.175,184.445,208.98,182.02,207.52,181.621z" style="opacity:0.77;fill:#A8DEA0;enable-background:new    ;"></path>
		<path d="M114.132,245.29c-0.169,0-0.34-0.028-0.505-0.088l-6.878-2.464
			c-0.623-0.223-1.026-0.828-0.992-1.489c0.114-2.223,0.016-5.514-0.079-8.696c-0.059-1.978-0.114-3.845-0.114-5.341
			c0-1.89,0.153-3.911,0.432-5.692l0.023-0.145c0.285-1.793,0.302-1.9-0.535-2.767c-0.8-0.83-1.742-1.546-2.739-2.305
			c-1.556-1.184-3.165-2.407-4.407-4.194c-0.93-1.335-1.586-2.722-2.221-4.063c-0.652-1.379-1.268-2.683-2.154-3.901
			c-0.261-0.359-0.626-0.756-1.012-1.175c-0.861-0.935-1.836-1.994-2.216-3.273c-0.428-1.444-1.223-4.132,0.225-6.396
			c0.048-0.075,0.103-0.146,0.164-0.211c0.585-0.632,0.779-0.966,0.84-1.097c-0.014-0.03-0.028-0.06-0.042-0.09
			c-0.179-0.397-0.512-1.138-0.256-2.203c0.068-0.281,0.215-0.536,0.425-0.735c0.254-0.242,0.487-0.523,0.756-0.85
			c0.395-0.477,0.843-1.019,1.463-1.549c0.438-0.373,0.915-0.691,1.375-1c0.645-0.431,1.312-0.877,1.582-1.308
			c0.196-0.31,0.422-1.014,0.479-2.08c0.008-0.1,0.011-0.151,0.011-0.206v-0.207l1.5-0.158l-1.5,0.004
			c-0.006-2.634,0.15-4.324,3.313-5.847c0.166-0.08,0.345-0.129,0.529-0.144c-0.009-0.001,0.078-0.032,0.246-0.158
			c0.103-0.076,0.214-0.14,0.333-0.188c0.873-0.354,1.971-0.753,3.456-1.252c0.063-0.021,0.127-0.038,0.193-0.051
			c1.316-0.255,2.757-0.384,4.282-0.384c8.124,0,11.916,2.034,17.254,6.59c0.138,0.085,0.258,0.19,0.36,0.313
			c0.819,0.711,1.568,1.402,2.23,2.058c0.46,0.307,0.995,0.698,1.564,1.267c0.334,0.333,0.622,0.633,0.885,0.906
			c1.185,1.232,1.627,1.694,3.512,2.288l0.561,0.173c1.957,0.598,4.638,1.416,5.918,3.282c0.664,0.974,0.892,2.09,1.092,3.075
			c0.062,0.302,0.12,0.596,0.192,0.869c0.063,0.236,0.159,0.453,0.246,0.662c0.318,0.76,0.881,2.104-0.151,3.567
			c0.158,0.242,0.351,0.58,0.44,0.996c0.31-0.027,0.684-0.082,1.074-0.14c0.721-0.106,1.539-0.228,2.343-0.228
			c2.571,0,3.615,1.346,4.038,2.431c0.896,0.569,2.376,0.611,3.812,0.653c0.771,0.021,1.568,0.045,2.301,0.152
			c1.545,0.227,3.173,0.52,4.577,1.38c0.526,0.323,0.883,0.702,1.169,1.007c0.362,0.386,0.39,0.389,0.479,0.389
			c0.001,0,0.002,0,0.002,0c0.069,0,0.145-0.01,0.229-0.026c0.188-0.037,0.381-0.038,0.569,0c1.069,0.206,1.811,0.888,2.033,1.87
			c0.666,2.93-4.013,7.472-5.396,8.495c-2.315,1.707-3.627,3.88-5.017,6.181c-1.228,2.034-2.498,4.137-4.524,6.104
			c-1.603,1.55-2.636,1.712-4.612,1.712l-0.32-0.001c-0.242,0-0.498-0.01-0.759-0.021c-0.232-0.009-0.469-0.019-0.702-0.019
			c-0.762,0-0.906,0.122-0.911,0.128c-0.006,0.006-0.028,0.043-0.05,0.121c-0.17,0.62-0.716,1.062-1.357,1.101
			c-0.029,0.002-0.113,0.005-0.143,0.005c-0.712,0-1.325-0.311-1.817-0.561c-0.016-0.008-0.032-0.016-0.049-0.024
			c-0.278,1.083-0.986,1.725-1.486,2.178c-0.218,0.197-0.406,0.369-0.533,0.54c-0.649,0.882-1.048,1.205-1.772,1.441
			c-0.188,0.061-0.44,0.143-1.119,0.648c-0.084,0.113-0.267,0.485-0.378,0.712c-0.308,0.627-0.599,1.219-1.143,1.598
			c-0.935,0.642-1.814,0.654-2.521,0.664c-0.328,0.005-0.611,0.009-0.897,0.071c-0.529,0.115-1.018,0.238-1.498,0.359
			c-1.104,0.279-2.239,0.565-3.708,0.716c-0.009,0.058-0.017,0.115-0.019,0.168c0.057,0.417-0.065,0.804-0.334,1.128
			c-0.268,0.323-0.662,0.485-1.082,0.507c-0.753,0.039-1.492,0.02-2.213,0.001c-0.373-0.01-0.741-0.021-1.103-0.021
			c-1.56,0-2.658,0.187-3.656,1.137c-0.434,0.411-2.098,2.159-2.442,2.565C114.987,245.103,114.565,245.29,114.132,245.29z
			 M108.793,240.284l4.904,1.756c0.694-0.743,1.632-1.715,1.957-2.022c1.809-1.723,3.819-1.961,5.722-1.961
			c0.388,0,0.783,0.011,1.183,0.021c0.213,0.006,0.428,0.011,0.645,0.016c0.045-0.337,0.205-0.653,0.46-0.893
			c0.088-0.083,0.173-0.151,0.255-0.209c0.265-0.365,0.683-0.616,1.136-0.642c1.64-0.094,2.755-0.376,4.046-0.701
			c0.512-0.129,1.032-0.261,1.596-0.383c0.58-0.126,1.085-0.133,1.491-0.139c0.424-0.007,0.613-0.018,0.75-0.074
			c0.076-0.13,0.186-0.353,0.263-0.511c0.277-0.564,0.592-1.205,1.095-1.65c0.028-0.025,0.059-0.05,0.089-0.073
			c1.047-0.792,1.599-1.011,2.072-1.166c0.05-0.055,0.141-0.164,0.293-0.37c0.305-0.413,0.639-0.716,0.933-0.983
			c0.524-0.475,0.605-0.589,0.619-0.868c0.007-0.16,0.04-0.318,0.098-0.468c0.613-1.595,1.741-1.833,2.358-1.833
			c0.646,0,1.211,0.253,1.679,0.487c0.674-0.692,1.702-1.042,3.074-1.042c0.272,0,0.549,0.011,0.82,0.021
			c0.221,0.009,0.439,0.018,0.647,0.018l0.313,0.001c1.491,0,1.654-0.024,2.524-0.866c1.747-1.695,2.862-3.544,4.044-5.501
			c1.479-2.45,3.01-4.983,5.803-7.042c1.661-1.23,3.586-3.688,4.108-4.935c-1.261-0.084-1.957-0.825-2.428-1.326
			c-0.197-0.21-0.368-0.392-0.551-0.504c-0.921-0.563-2.155-0.78-3.446-0.969c-0.559-0.083-1.234-0.103-1.95-0.123
			c-2.042-0.059-4.356-0.125-6.022-1.643c-0.219-0.2-0.374-0.461-0.445-0.749c-0.088-0.354-0.171-0.69-1.297-0.69
			c-0.584,0-1.256,0.1-1.905,0.195c-0.654,0.097-1.273,0.188-1.844,0.188c-1.908,0-2.626-1.165-2.661-2.256
			c-0.002-0.058-0.001-0.114,0.004-0.172c-0.011-0.016-0.022-0.031-0.033-0.048c-0.289-0.421-1.056-1.541-0.199-2.863
			c0.053-0.082,0.114-0.159,0.183-0.229c0.172-0.177,0.201-0.263,0.201-0.264c-0.004-0.077-0.133-0.386-0.218-0.59
			c-0.126-0.301-0.27-0.642-0.378-1.046c-0.088-0.331-0.16-0.684-0.234-1.046c-0.15-0.741-0.307-1.508-0.628-1.979
			c-0.684-0.998-2.87-1.665-4.317-2.107l-0.586-0.181c-2.616-0.824-3.475-1.719-4.774-3.071c-0.249-0.26-0.522-0.545-0.84-0.861
			c-0.406-0.405-0.781-0.68-1.218-0.966c-0.086-0.057-0.166-0.121-0.238-0.193c-0.677-0.675-1.459-1.396-2.327-2.145
			c-0.025-0.021-0.05-0.044-0.073-0.067c-0.006-0.005-0.013-0.011-0.019-0.016c-4.733-4.054-7.797-5.964-15.415-5.964
			c-1.296,0-2.512,0.104-3.615,0.311c-1.284,0.434-2.254,0.782-3.024,1.091c-0.437,0.299-0.865,0.489-1.299,0.575
			c-1.418,0.697-1.418,0.911-1.413,3.038v0.369c0,0.152-0.007,0.294-0.019,0.422c-0.051,0.963-0.258,2.397-0.933,3.463
			c-0.606,0.969-1.587,1.624-2.453,2.203c-0.407,0.272-0.792,0.529-1.095,0.788c-0.422,0.36-0.751,0.759-1.1,1.18
			c-0.166,0.2-0.335,0.405-0.518,0.608c0.005,0.013,0.011,0.024,0.016,0.035c0.66,1.468,0.34,2.616-1.228,4.342
			c-0.623,1.112-0.121,2.807,0.182,3.83c0.181,0.611,0.907,1.398,1.546,2.094c0.427,0.464,0.869,0.943,1.232,1.443
			c1.051,1.446,1.757,2.939,2.439,4.383c0.608,1.286,1.183,2.502,1.97,3.632c0.974,1.399,2.328,2.43,3.762,3.521
			c1.043,0.794,2.122,1.614,3.082,2.609c1.875,1.942,1.65,3.359,1.338,5.32l-0.022,0.14c-0.251,1.606-0.396,3.513-0.396,5.227
			c0,1.451,0.055,3.297,0.113,5.251C108.759,235.22,108.844,238.056,108.793,240.284z M92.487,176.596L92.487,176.596
			c-0.756,0-1.655-0.267-2.83-0.838c-0.164-0.079-0.312-0.188-0.438-0.321c-0.611-0.65-1.704-1.883-2.159-2.832
			c-0.499-1.034-0.514-2.198-0.528-3.226c-0.009-0.691-0.019-1.476-0.208-1.81c-0.086-0.151-0.362-0.237-0.928-0.385
			c-0.824-0.215-1.953-0.509-2.73-1.631c-0.574-0.827-0.809-1.616-1.016-2.312c-0.222-0.746-0.397-1.336-0.991-1.973
			c-0.547-0.588-1.171-0.891-1.894-1.242c-0.575-0.28-1.17-0.569-1.75-1.017c-1.047-0.811-1.581-2.045-2.052-3.134
			c-0.229-0.529-0.444-1.028-0.699-1.454c-0.208-0.349-0.427-0.668-0.638-0.979c-0.689-1.013-1.471-2.16-1.653-3.857
			c-0.134-1.242,0.121-2.379,0.346-3.382c0.169-0.756,0.33-1.471,0.327-2.183c-0.006-1.389-0.098-2.831-0.186-4.227
			c-0.193-3.048-0.392-6.198,0.212-9.361c0.142-0.747,0.25-1.574,0.364-2.45l0.141-1.062c0.033-0.242,0.125-0.472,0.268-0.67
			c14.364-19.976,37.605-32.012,62.171-32.198l1.216-0.003c0.002,0,0.003,0,0.004,0c0.498,0,0.964,0.247,1.242,0.66
			c0.359,0.53,0.333,1.026,0.238,2.872c-0.019,0.363-0.044,0.841-0.055,1.21c0.156,0.058,0.338,0.115,0.472,0.157
			c0.772,0.241,2.209,0.689,2.459,2.259c0.01,0.059,0.016,0.119,0.018,0.179c0.087,2.315-1.865,2.92-2.601,3.148
			c-0.516,0.158-1.079,0.029-1.474-0.342c-0.869-0.821-2.756-2.198-5.63-2.198c-0.389,0-0.786,0.026-1.182,0.078
			c-0.552,0.073-1.084-0.167-1.399-0.593c-0.038,0.03-0.074,0.06-0.109,0.088c-0.447,0.365-0.833,0.68-1.197,0.897
			c-1.208,0.723-2.33,0.845-3.839,0.716c-0.493-0.042-1.048-0.093-1.755-0.054c-0.32,0.018-0.73,0.162-1.163,0.315
			c-0.398,0.141-0.85,0.3-1.334,0.396c-0.444,0.089-1.022,0.096-1.655,0.075c-0.174-0.005-0.348-0.012-0.519-0.012
			c-0.364,0-0.51,0.032-0.564,0.05c-0.166,0.056-0.636,0.215-0.067,2.134c0.216,0.083,0.534,0.122,0.865,0.162
			c0.671,0.081,1.505,0.182,2.186,0.773c0.825,0.715,1.194,1.481,1.099,2.275c-0.01,0.085-0.025,0.167-0.045,0.246
			c0.184-0.289,0.424-0.613,0.761-0.935c0.495-0.478,1.046-0.652,1.411-0.768c0.101-0.032,0.239-0.076,0.278-0.1
			c0.178-0.26,0.262-0.703,0.359-1.216c0.051-0.269,0.103-0.538,0.169-0.805c0.031-0.125,0.079-0.245,0.141-0.357
			c0.565-1.029,1.626-1.619,2.911-1.619c1.238,0,2.59,0.551,3.443,1.404c0.478,0.479,0.788,0.515,1.174,0.515
			c0.206,0,0.415-0.016,0.631-0.031c0.807-0.057,1.699-0.055,2.484,0.136c0.038,0.009,0.077,0.021,0.114,0.033
			c0.129,0.042,3.157,1.069,4.325,4.018c0.834,2.104,0.509,4.546-0.967,7.257c-0.241,0.443-0.689,0.736-1.192,0.778
			c-0.041,0.003-0.151,0.008-0.193,0.008c-0.896,0-1.438-0.499-1.875-0.9c-0.444-0.409-1.055-0.97-2.526-1.63
			c-0.424-0.19-0.827-0.287-1.196-0.287c-1.099,0-1.572,0.856-1.725,1.225c-0.362,0.874-0.331,2.348,0.947,3.626
			c1.608,1.608,1.562,2.92,1.24,3.738c-0.827,2.103-4.109,2.494-5.616,2.562c-0.059,0.007-0.119,0.011-0.18,0.011
			c-0.271,0.018-0.444,0.105-0.584,0.236c-0.145,0.231-0.175,0.445-0.219,0.752c-0.079,0.549-0.288,2.007-2.083,2.296l-0.714,0.11
			c-1.375,0.207-1.551,0.233-2.593,1.131c-1.56,1.345-2.561,2.582-3.246,4.014c-1.124,2.349-1.553,2.676-3.717,3.646l-0.127,0.057
			c-0.684,0.307-1.467,0.537-2.297,0.782c-1.719,0.506-3.667,1.08-3.885,2.155c-0.097,0.476,0.041,0.943,0.274,1.668
			c0.225,0.696,0.479,1.485,0.426,2.404c-0.097,1.646-0.497,3.979-2.843,5.253c-0.124,0.067-0.256,0.116-0.394,0.146
			c-1.205,0.264-2.259-0.022-2.999-0.795c-1.342-1.402-1.231-3.932-1.124-6.378c0.026-0.608,0.063-1.437,0.04-1.993
			c-0.163-0.003-0.321-0.004-0.479-0.006c-0.475-0.004-0.951-0.01-1.416-0.038c-0.516-0.031-0.979-0.326-1.227-0.78
			c-0.022-0.041-0.042-0.077-0.06-0.108c-0.133-0.08-0.304-0.194-0.51-0.373c-0.068-0.06-0.131-0.124-0.188-0.194
			c-0.016,0.03-0.032,0.061-0.05,0.091c-0.265,0.448-0.705,0.751-1.238,0.851c-0.349,0.062-0.707,0.004-1.013-0.168
			c-1.041-0.588-2.503-0.873-4.472-0.873c-0.278,0-0.555,0.005-0.831,0.015c-1.576,0.055-1.611,0.13-2.204,1.379
			c-0.219,0.462-0.492,1.037-0.889,1.693c-0.222,0.368-0.592,0.623-1.015,0.699c-0.659,0.12-1.713,2.711-1.422,5.94
			c0.183,2.026,0.884,3.555,1.632,3.555c0.159,0,0.349-0.046,0.564-0.137c0.525-0.221,0.917-0.675,1.371-1.199
			c0.743-0.86,1.76-2.038,3.622-2.038c0.746,0,1.552,0.191,2.463,0.585c0.07,0.03,0.137,0.065,0.201,0.106
			c0.465,0.291,1.036,0.9,1.115,2.145c0.085,1.337-0.463,3.283-1.648,4.256c-0.049,0.04-0.1,0.077-0.153,0.11l-0.45,0.275
			c-0.446,0.269-1.374,0.828-1.593,1.126c-0.079,0.107-0.125,0.293-0.191,0.588c-0.096,0.421-0.228,1.001-0.616,1.571
			c0.359,0.141,0.899,0.287,1.296,0.396c1.796,0.488,5.533,1.505,4.7,5.451c-0.12,0.562-0.405,1.168-0.734,1.871
			c-0.277,0.59-0.794,1.689-0.774,2.079c0.037,0.744,0.407,1.599,0.9,2.077c0.22,0.213,0.37,0.489,0.428,0.791
			c0.19,0.979,0.04,1.774-0.447,2.364C94.085,176.088,93.513,176.596,92.487,176.596z M92.487,174.554v0.542l0.001-0.544
			L92.487,174.554z M76.102,127.699l-0.089,0.67c-0.12,0.922-0.232,1.793-0.392,2.627c-0.533,2.79-0.354,5.616-0.165,8.609
			c0.091,1.438,0.185,2.926,0.192,4.403c0.004,1.052-0.21,2.009-0.4,2.853c-0.199,0.888-0.372,1.655-0.291,2.404
			c0.103,0.95,0.542,1.596,1.15,2.489c0.243,0.357,0.493,0.726,0.733,1.127c0.355,0.595,0.621,1.209,0.878,1.804
			c0.359,0.83,0.698,1.614,1.132,1.951c0.333,0.257,0.748,0.458,1.227,0.691c0.824,0.4,1.85,0.899,2.777,1.896
			c1.073,1.151,1.405,2.267,1.671,3.163c0.17,0.572,0.304,1.023,0.605,1.457c0.131,0.188,0.426,0.282,1.021,0.438
			c0.821,0.214,2.062,0.536,2.783,1.81c0.569,1.004,0.584,2.197,0.598,3.249c0.01,0.75,0.02,1.525,0.231,1.964
			c0.105,0.219,0.476,0.781,1.241,1.641c-0.317-0.71-0.511-1.483-0.549-2.243c-0.057-1.136,0.534-2.394,1.055-3.503
			c0.208-0.444,0.468-0.996,0.515-1.218c0.187-0.886,0.03-1.231-2.552-1.935c-1.409-0.383-2.866-0.779-3.473-2.052
			c-0.233-0.489-0.412-1.294,0.055-2.352c0.085-0.194,0.212-0.369,0.37-0.511c0.096-0.086,0.13-0.178,0.229-0.613
			c0.104-0.459,0.248-1.089,0.704-1.705c0.572-0.775,1.617-1.405,2.456-1.912l0.299-0.183c0.276-0.294,0.508-1.089,0.517-1.57
			c-0.31-0.103-0.58-0.155-0.794-0.155c-0.431,0-0.662,0.2-1.351,0.998c-0.582,0.674-1.306,1.512-2.48,2.005
			c-0.585,0.246-1.166,0.371-1.726,0.371c-2.5,0-4.271-2.409-4.62-6.286c-0.332-3.681,0.667-7.816,3.125-8.928
			c0.187-0.345,0.339-0.666,0.479-0.96c0.852-1.795,1.646-2.98,4.81-3.091c0.31-0.011,0.623-0.017,0.935-0.017
			c1.491,0,2.784,0.146,3.904,0.444c0.038-0.073,0.082-0.146,0.135-0.219c0.322-0.446,0.95-0.713,1.502-0.642
			c1.007-0.079,1.961,0.125,2.983,0.621c0.272,0.132,0.499,0.344,0.649,0.607c0.101,0.177,0.162,0.351,0.199,0.51
			c0.104,0.079,0.198,0.166,0.289,0.266c0.18,0.003,0.36,0.005,0.541,0.006c0.458,0.005,0.917,0.01,1.364,0.036l0,0
			c0.53,0.026,0.992,0.237,1.34,0.602c0.861,0.899,0.794,2.406,0.703,4.492c-0.048,1.092-0.159,3.624,0.273,4.148
			c0.592-0.388,0.999-1.048,1.095-2.681c0.021-0.357-0.121-0.799-0.286-1.31c-0.275-0.854-0.618-1.917-0.359-3.186
			c0.576-2.844,3.698-3.764,5.977-4.436c0.731-0.216,1.421-0.419,1.919-0.642l0.127-0.057c1.506-0.676,1.506-0.676,2.237-2.203
			c0.873-1.823,2.104-3.363,3.993-4.991c1.629-1.404,2.436-1.574,4.106-1.825l0.3-0.046c0.077-0.493,0.231-1.216,0.781-1.978
			c0.035-0.048,0.073-0.095,0.114-0.139c0.685-0.743,1.57-1.164,2.633-1.253c0.055-0.008,0.111-0.014,0.167-0.016
			c1.148-0.044,2.458-0.332,2.949-0.627c-0.073-0.119-0.21-0.304-0.463-0.557c-1.913-1.913-2.541-4.62-1.598-6.896
			c0.786-1.898,2.509-3.077,4.496-3.077c0.795,0,1.61,0.185,2.424,0.549c1.242,0.557,2.051,1.095,2.609,1.537
			c0.438-1.239,0.481-2.314,0.128-3.207c-0.589-1.487-2.145-2.146-2.429-2.256c-0.453-0.098-1.002-0.076-1.498-0.042
			c-0.286,0.02-0.564,0.038-0.839,0.038c-0.886,0-2.062-0.158-3.295-1.394c-0.252-0.252-0.83-0.525-1.322-0.525
			c-0.099,0-0.168,0.012-0.212,0.024c-0.021,0.105-0.041,0.209-0.061,0.314c-0.135,0.718-0.304,1.611-0.893,2.429
			c-0.58,0.807-1.333,1.046-1.784,1.189c-0.098,0.031-0.231,0.074-0.271,0.096c-0.185,0.18-0.302,0.387-0.464,0.673
			c-0.152,0.269-0.305,0.527-0.497,0.776c-0.069,0.089-0.156,0.236-0.264,0.409c-0.679,1.088-1.816,2.909-3.58,2.909
			c-0.031,0-0.12-0.003-0.15-0.005c-0.962-0.058-1.861-0.67-2.531-1.725c-0.562-0.885-1.009-2.213-0.58-3.291
			c0.253-0.631,0.727-1.056,1.215-1.372c-0.742-0.111-1.676-0.344-2.427-1.125c-0.155-0.161-0.272-0.354-0.342-0.566
			c-1.424-4.273,0.196-5.82,1.806-6.366c0.544-0.186,1.104-0.21,1.531-0.21c0.203,0,0.41,0.007,0.617,0.014
			c0.384,0.012,0.789,0.017,0.972-0.019c0.274-0.054,0.588-0.165,0.921-0.283c0.584-0.206,1.247-0.439,1.995-0.481
			c0.874-0.048,1.568,0.008,2.178,0.061c0.737,0.063,1.221,0.188,2.043-0.302c0.178-0.106,0.515-0.381,0.842-0.647
			c0.793-0.646,1.785-1.454,2.879-1.912C108.511,99.188,88.776,110.261,76.102,127.699z M118.432,111.675
			c0.071,0.25,0.254,0.585,0.423,0.78c0.35-0.33,0.835-1.108,1.014-1.393c0.099-0.158,0.189-0.3,0.27-0.421
			c-0.374,0.334-0.821,0.563-1.176,0.746C118.81,111.464,118.586,111.579,118.432,111.675z M133.973,99.256
			c0.463,0.102,0.899,0.228,1.31,0.373c-0.05-0.468-0.016-1.128,0.04-2.202c0.006-0.114,0.013-0.24,0.019-0.371
			c-0.963,0.011-1.925,0.041-2.884,0.09c0.062,0.029,0.122,0.062,0.18,0.099C133.399,97.734,133.881,98.479,133.973,99.256z" style="fill:#6E6E96;"></path>
		<path d="M208.005,196.977c-0.139,0-0.279-0.019-0.418-0.06c-0.783-0.227-1.241-1.036-1.033-1.824
			l1.319-4.985c0.04-0.352,0.111-0.741,0.188-1.143c0.08-0.427,0.22-1.163,0.2-1.551c-0.066-0.002-0.133-0.005-0.191-0.008
			c-2.349,0.04-2.876,1.221-3.541,3.142c-0.405,1.169-0.863,2.493-2.263,2.834c-0.116,0.027-0.235,0.042-0.354,0.042
			c-3.55,0-3.78-3.236-3.948-5.599c-0.176-2.473-0.357-5.029-2.721-6.634c-1.783-1.212-3.057-2.89-3.785-4.988
			c-0.059-0.169-0.087-0.348-0.083-0.527l0.036-1.299c0.063-2.185,0.129-4.443-0.152-6.103c-0.01-0.058-0.017-0.116-0.02-0.174
			c-0.101-1.966,0.397-3.36,0.837-4.59c0.335-0.937,0.651-1.821,0.709-2.968c0.014-0.276,0.021-0.532,0.027-0.771
			c0.037-1.323,0.069-2.466,1.102-3.908c0.371-0.517,0.759-0.858,1.071-1.134c0.14-0.123,0.331-0.292,0.372-0.359l0,0
			c-0.001,0,0-0.012,0-0.038c-0.091-0.115-0.165-0.244-0.219-0.383c-0.708-1.823-0.771-4.261-0.774-6.403
			c-0.006-3.159,0.38-4.78,3.737-5.097c1.169-1.811,2.489-2.727,3.931-2.727c0.597,0,1.182,0.162,1.74,0.48
			c1.023,0.585,1.506,1.452,1.885,2.168c0.326-0.287,0.77-0.421,1.203-0.36c0.524,0.075,0.97,0.42,1.174,0.908
			c3.787,9.087,5.789,19.495,5.789,30.099c0,8.285-2.168,15.86-4.388,22.909C209.233,196.566,208.643,196.977,208.005,196.977z
			 M194.381,175.466c0.527,1.376,1.362,2.438,2.547,3.243c3.566,2.423,3.833,6.168,4.027,8.903c0.127,1.787,0.257,2.438,0.476,2.676
			c0.089-0.219,0.184-0.495,0.263-0.722c0.616-1.779,1.763-5.093,6.349-5.16c0.074,0,0.152,0.004,0.229,0.015
			c-0.02-0.007,0.127-0.003,0.236-0.002l0.001,0.003c0.159-0.018,0.323-0.009,0.482,0.026c0.171,0.037,0.328,0.084,0.476,0.138
			c0.814-3.721,1.356-7.575,1.356-11.568c0-9.346-1.61-18.521-4.671-26.699c-0.367,0.091-0.763,0.046-1.111-0.152
			c-1.11-0.635-1.623-1.607-1.997-2.318c-0.292-0.554-0.471-0.874-0.76-1.039c-0.1-0.058-0.185-0.086-0.252-0.086
			c-0.235,0-0.901,0.398-1.74,1.905c-0.257,0.461-0.737,0.754-1.266,0.77c-1.221,0.037-1.515,0.167-1.575,0.205
			c-0.091,0.203-0.088,1.375-0.087,1.938c0.002,1.268,0.006,3.557,0.472,5.036c0.194,0.198,0.33,0.445,0.393,0.717
			c0.493,2.142-0.562,3.071-1.26,3.687c-0.239,0.211-0.445,0.393-0.617,0.631c-0.496,0.694-0.509,1.117-0.54,2.245
			c-0.008,0.258-0.016,0.535-0.03,0.837c-0.08,1.59-0.505,2.778-0.88,3.827c-0.388,1.083-0.723,2.021-0.67,3.346
			c0.313,1.935,0.245,4.305,0.178,6.598L194.381,175.466z" style="fill:#6E6E96;"></path>
		<path d="M166.932,113.709c0.305-1.575,0.683-2.973,0.273-3.184
			c-1.059-0.094-0.287-1.046-0.754-1.708c-1.133-0.378-2.279-0.749-3.43-1.176c-1.133,2.551,1.263,3.474,3.137,4.156
			C167.086,112.37,166.2,113.436,166.932,113.709z M180.516,117.998c-0.225,0.372-0.555,0.71-1.019,0.997
			c-0.863,0.533-3.09,0.028-4.146,0.365c-1.574,0.501-0.974,3.24-2.852,3.098c-1.607-0.404-3.703-0.791-5.04-1.789
			c-1.028-0.983,1.929-1.017,0.574-2.105c-0.632-0.154-0.999-0.553-1.2-1.093c-0.334,1.919-0.432,3.938,1.2,4.336
			c1.354,1.089-1.604,1.123-0.574,2.105c1.336,0.998,3.433,1.383,5.04,1.788c1.878,0.141,1.277-2.597,2.852-3.099
			c1.056-0.335,3.281,0.168,4.146-0.365C181.175,121.201,181.116,119.497,180.516,117.998z" style="opacity:0.15;fill:#6E6E96;enable-background:new    ;"></path>
		<path d="M180.932,121.346c-0.236,0.413-0.582,0.794-1.062,1.121
			c-0.893,0.605-3.166,0.085-4.254,0.477c-1.62,0.582-1.053,3.605-2.975,3.481c-1.64-0.422-3.783-0.812-5.134-1.896
			c-1.041-1.071,1.992-1.161,0.626-2.342c-0.643-0.16-1.017-0.596-1.21-1.188c-0.376,2.131-0.508,4.369,1.154,4.779
			c1.368,1.183-1.664,1.271-0.624,2.342c1.352,1.082,3.492,1.475,5.131,1.897c1.925,0.123,1.357-2.898,2.977-3.481
			c1.088-0.391,3.359,0.131,4.256-0.475C181.551,124.883,181.521,122.996,180.932,121.346z M167.082,116.83
			c0.339-1.75,0.752-3.302,0.333-3.531c-1.082-0.086-0.272-1.154-0.745-1.878c-1.152-0.4-2.322-0.788-3.493-1.246
			c-1.208,2.844,1.233,3.826,3.144,4.549C167.264,115.344,166.339,116.538,167.082,116.83z" style="opacity:0.15;fill:#6E6E96;enable-background:new    ;"></path>
		<path d="M158.164,98.601c27.297,10.269,46.721,36.615,46.721,67.5
			c0,39.821-32.281,72.103-72.103,72.103c-37.512,0-68.329-28.647-71.775-65.257c0.89,41.061,34.451,74.074,75.728,74.074
			c41.836,0,75.752-33.914,75.752-75.752C212.484,136.879,189.564,107.845,158.164,98.601z" style="opacity:0.15;fill:#6E6E96;enable-background:new    ;"></path>
		<ellipse ry="51.23" rx="56.767" cy="152.31" cx="126.434" style="opacity:0.15;fill:#FFFFFF;enable-background:new    ;"></ellipse>
	</g>
	<g id="Layer_5_1_">
		<rect height="5" width="10.243" style="fill:#FFFFFF;" y="20.893" x="43.188"></rect>
		<g>
			<polyline points="170.327,47.934 134.757,48.22 96.252,26.512 103.193,25.773 170.227,39.912" style="fill:#F0F3FF;"></polyline>
			<path d="M134.757,49.72c-0.258,0-0.512-0.066-0.736-0.193L95.515,27.818
				c-0.568-0.32-0.864-0.971-0.732-1.61c0.132-0.639,0.662-1.119,1.311-1.188l6.941-0.739c0.157-0.016,0.314-0.008,0.468,0.024
				l67.034,14.139c0.811,0.171,1.329,0.967,1.158,1.777c-0.172,0.812-0.974,1.326-1.777,1.158l-66.801-14.09l-2.044,0.218
				l34.073,19.209l35.171-0.283c0.004,0,0.008,0,0.012,0c0.823,0,1.493,0.664,1.5,1.488c0.007,0.829-0.659,1.505-1.488,1.512
				l-35.57,0.286C134.765,49.72,134.761,49.72,134.757,49.72z" style="fill:#6E6E96;"></path>
		</g>
		<polygon points="58.666,42.671 46.575,14.342 66.477,9.571 87.552,38.551" style="fill:#C9D8FF;"></polygon>
		<polygon points="64.191,13.694 47.529,17.688 46.758,15.109 
			66.66,10.338 87.735,39.317 80.866,39.869" style="opacity:0.18;fill:#FFFFFF;enable-background:new    ;"></polygon>
		<path d="M58.666,44.171c-0.594,0-1.141-0.353-1.379-0.911L45.196,14.931
			c-0.174-0.406-0.159-0.868,0.04-1.263c0.198-0.395,0.561-0.682,0.99-0.784l19.902-4.771c0.588-0.143,1.206,0.086,1.562,0.576
			l21.075,28.979c0.31,0.426,0.374,0.982,0.168,1.467c-0.205,0.484-0.649,0.826-1.169,0.9l-28.886,4.12
			C58.807,44.166,58.736,44.171,58.666,44.171z M48.652,15.387l10.942,25.637l25.279-3.606l-19.02-26.154L48.652,15.387z" style="fill:#6E6E96;"></path>
		<path d="M154.105,35.043c22.369-0.073,45.595-0.324,53.379,10.049c5.728,7.629,6.978,6.15,8.33,10.42
			c4.154,13.108-50.567,17.345-75.381,15.369c-20.988-1.667-56.197-10.855-77.021-18.047c-15.49-5.351-15.965-7.421-13.717-9.794
			C55.404,37.017,128.567,35.126,154.105,35.043z" style="fill:#F0F3FF;"></path>
		<path d="M128.77,35.664c73.73-2.828,73.287,6.136,73.287,6.136l-4.147-0.119
			c-4.148,0.014,1.603,5.496,1.603,5.496s-110.292-11.633-145-5.322C54.511,41.855,55.038,38.488,128.77,35.664z" style="fill:#FFFFFF;"></path>
		<path d="M50.463,42.126c1.185,0.372,2.42,0.759,3.716,1.167c22.835,7.187,55.198,16.364,78.213,18.023
			c22.806,1.65,68.645-1.073,80.209-9.712c1.168,1.093,1.813,1.801,2.481,3.909c4.153,13.108-50.567,17.345-75.38,15.369
			c-20.988-1.667-56.198-10.855-77.022-18.047c-15.491-5.351-15.966-7.42-13.717-9.794C49.262,42.725,49.776,42.421,50.463,42.126z" style="fill:#C9D8FF;"></path>
		<g>
			<path d="M214.062,52.109c0,0-9.018,2.541-13.19,0.435c-4.175-2.109-2.787-5.362-2.787-5.362l11.013-0.035" style="fill:#B0E1FF;"></path>
			<path d="M205.505,54.883c-1.937,0-3.839-0.258-5.309-1c-4.296-2.17-4.162-5.717-3.491-7.29
				c0.235-0.551,0.776-0.91,1.375-0.912l11.013-0.035c0.002,0,0.003,0,0.005,0c0.826,0,1.497,0.668,1.5,1.495
				c0.003,0.829-0.667,1.502-1.495,1.505l-9.741,0.031c0.075,0.707,0.528,1.689,2.188,2.527c2.994,1.512,9.754,0.123,12.106-0.54
				c0.801-0.221,1.627,0.24,1.851,1.037c0.226,0.797-0.239,1.626-1.036,1.851C213.805,53.74,209.579,54.883,205.505,54.883z" style="fill:#6E6E96;"></path>
		</g>
		<path d="M37.959,27.692c-0.697,0-1.321-0.488-1.467-1.197c-0.168-0.811,0.354-1.604,1.166-1.772
			l23.927-4.943c0.812-0.17,1.605,0.354,1.772,1.166c0.168,0.811-0.354,1.604-1.166,1.772l-23.927,4.943
			C38.162,27.682,38.06,27.692,37.959,27.692z" style="fill:#6E6E96;"></path>
		<path d="M63.623,39.254l-7.899-11.292l6.636-2.291
			c0,0,3.14-0.078,2.778-3.173c-0.373-3.166-2.082-1.654-2.082-1.654l-8.83,2.354l-2.776-8.32l-3.459-0.875l9.724,25.487
			L63.623,39.254z" style="opacity:0.15;fill:#6E6E96;enable-background:new    ;"></path>
		<path d="M153.697,72.842c-4.998,0-9.5-0.157-13.383-0.466c-20.251-1.608-55.252-10.478-77.392-18.124
			c-12.345-4.265-15.077-6.394-15.625-8.631c-0.434-1.774,0.832-3.11,1.308-3.613c7.391-7.797,104.517-8.462,105.495-8.465
			l1.091-0.003c1.887-0.007,3.778-0.013,5.663-0.013c20.987,0,40.438,0.816,47.83,10.665c2.593,3.454,4.204,4.95,5.381,6.042
			c1.408,1.308,2.339,2.171,3.179,4.825c0.603,1.901,0.268,3.799-0.968,5.488C209.155,70.272,172.229,72.842,153.697,72.842z
			 M160.854,36.526c-1.882,0-3.77,0.006-5.652,0.013l-1.092,0.004c-39.436,0.128-98.923,2.883-103.327,7.529
			c-0.6,0.633-0.572,0.834-0.572,0.836c0.143,0.584,1.763,2.388,13.69,6.508c21.962,7.585,56.638,16.38,76.651,17.97
			c3.75,0.298,8.295,0.457,13.145,0.457c33.812,0,56.23-5.703,60.158-11.068c0.676-0.923,0.844-1.816,0.529-2.81
			c-0.602-1.899-1.081-2.344-2.36-3.532c-1.188-1.104-2.985-2.771-5.739-6.44C199.729,37.257,180.247,36.526,160.854,36.526z" style="fill:#6E6E96;"></path>
		<g>
			<g>
				<polygon points="92.943,64.313 101.88,61.468 127.408,61.386 127.448,74.655 101.92,74.738 
					92.962,71.151" style="fill:#FFFFFF;"></polygon>
				<path d="M101.92,76.238c-0.191,0-0.38-0.037-0.558-0.107l-8.958-3.587
					c-0.568-0.228-0.941-0.777-0.942-1.388l-0.019-6.838c-0.002-0.655,0.421-1.235,1.045-1.434l8.937-2.845
					c0.146-0.046,0.297-0.07,0.45-0.071l25.528-0.082c0.001,0,0.003,0,0.005,0c0.396,0,0.776,0.157,1.057,0.436
					c0.282,0.28,0.442,0.662,0.443,1.06l0.04,13.27c0.003,0.828-0.667,1.501-1.495,1.504l-25.528,0.083
					C101.923,76.238,101.921,76.238,101.92,76.238z M94.459,70.135l7.748,3.103l23.737-0.077l-0.031-10.27l-23.797,0.076
					l-7.669,2.442L94.459,70.135z" style="fill:#6E6E96;"></path>
			</g>
			<g>
				<polygon points="92.943,64.313 92.962,71.151 101.92,74.738 101.88,61.468" style="fill:#E4BC96;"></polygon>
				<path d="M101.92,76.238c-0.188,0-0.378-0.036-0.558-0.107l-8.958-3.587
					c-0.568-0.228-0.941-0.777-0.942-1.388l-0.019-6.838c-0.002-0.655,0.421-1.235,1.045-1.434l8.937-2.845
					c0.456-0.144,0.953-0.064,1.338,0.217c0.386,0.282,0.615,0.73,0.617,1.208l0.04,13.271c0.001,0.499-0.245,0.965-0.657,1.246
					C102.51,76.15,102.216,76.238,101.92,76.238z M94.459,70.135l5.954,2.384l-0.027-9.001l-5.94,1.891L94.459,70.135z" style="fill:#6E6E96;"></path>
			</g>
			<polygon points="127.093,69.37 101.903,69.449 92.953,67.61 
				92.962,71.151 101.92,74.738 127.322,74.718" style="opacity:0.15;fill:#6E6E96;enable-background:new    ;"></polygon>
		</g>
		<path d="M49.777,42.074c2.678,1.676,2.748,3.756,12.661,7.181
			c20.826,7.191,56.035,14.847,77.021,16.512c22.803,1.814,75.271-4.705,75.271-10.823c0.037,0.105,0.072,0.2,0.107,0.312
			c4.154,13.107-50.568,17.345-75.38,15.369c-20.987-1.667-56.197-10.854-77.021-18.048c-15.491-5.351-15.966-7.42-13.717-9.794
			C48.95,42.541,49.31,42.304,49.777,42.074z" style="opacity:0.15;fill:#6E6E96;enable-background:new    ;"></path>
		<g>
			<polyline points="160.645,59.112 53.063,74.397 41.115,70.916 98.414,55.587" style="fill:#F0F3FF;"></polyline>
			<path d="M53.063,75.897c-0.142,0-0.283-0.02-0.419-0.06l-11.948-3.481
				c-0.646-0.188-1.088-0.784-1.081-1.457s0.462-1.258,1.112-1.433l57.299-15.329c0.802-0.212,1.623,0.261,1.837,1.062
				c0.214,0.8-0.261,1.623-1.062,1.837L46.689,70.978l6.483,1.889l107.261-15.239c0.815-0.121,1.579,0.454,1.696,1.274
				c0.116,0.82-0.454,1.58-1.274,1.696L53.274,75.882C53.204,75.892,53.133,75.897,53.063,75.897z" style="fill:#6E6E96;"></path>
		</g>
		<g>
			<g>
				<path d="M183.264,50.722c0,0.858,0.701,1.562,1.562,1.562h1.419c0.859,0,1.562-0.703,1.562-1.562V48.22
					c0-0.859-0.703-1.562-1.562-1.562h-1.419c-0.859,0-1.562,0.703-1.562,1.562V50.722z" style="fill:#B0DBFF;"></path>
				<path d="M186.244,53.784h-1.419c-1.688,0-3.062-1.374-3.062-3.062V48.22c0-1.688,1.373-3.062,3.062-3.062
					h1.419c1.688,0,3.062,1.374,3.062,3.062v2.502C189.307,52.411,187.933,53.784,186.244,53.784z M184.825,48.158l-0.062,2.564
					l1.48,0.062c0.031,0,0.062-0.031,0.062-0.062V48.22L184.825,48.158z" style="fill:#6E6E96;"></path>
			</g>
			<g>
				<path d="M172.79,50.722c0,0.858,0.703,1.562,1.563,1.562h1.418c0.858,0,1.562-0.703,1.562-1.562V48.22
					c0-0.859-0.703-1.562-1.562-1.562h-1.418c-0.859,0-1.563,0.703-1.563,1.562V50.722z" style="fill:#B0DBFF;"></path>
				<path d="M175.771,53.784h-1.418c-1.689,0-3.063-1.374-3.063-3.062V48.22c0-1.688,1.374-3.062,3.063-3.062
					h1.418c1.688,0,3.062,1.374,3.062,3.062v2.502C178.834,52.411,177.46,53.784,175.771,53.784z M174.354,48.158l-0.063,2.564
					l1.481,0.062c0.03,0,0.062-0.032,0.062-0.062V48.22L174.354,48.158z" style="fill:#6E6E96;"></path>
			</g>
			<g>
				<path d="M162.318,50.722c0,0.858,0.703,1.562,1.562,1.562h1.42c0.859,0,1.562-0.703,1.562-1.562V48.22
					c0-0.859-0.701-1.562-1.562-1.562h-1.42c-0.858,0-1.562,0.703-1.562,1.562V50.722z" style="fill:#B0DBFF;"></path>
				<path d="M165.3,53.784h-1.42c-1.688,0-3.062-1.374-3.062-3.062V48.22c0-1.688,1.373-3.062,3.062-3.062
					h1.42c1.688,0,3.062,1.374,3.062,3.062v2.502C168.361,52.411,166.988,53.784,165.3,53.784z M163.88,48.158l-0.062,2.564
					l1.481,0.062c0.03,0,0.062-0.031,0.062-0.062V48.22L163.88,48.158z" style="fill:#6E6E96;"></path>
			</g>
			<g>
				<path d="M151.848,50.722c0,0.858,0.702,1.562,1.562,1.562h1.419c0.858,0,1.562-0.703,1.562-1.562V48.22
					c0-0.859-0.701-1.562-1.562-1.562h-1.419c-0.859,0-1.562,0.703-1.562,1.562V50.722z" style="fill:#B0DBFF;"></path>
				<path d="M154.829,53.784h-1.419c-1.688,0-3.062-1.374-3.062-3.062V48.22c0-1.688,1.374-3.062,3.062-3.062
					h1.419c1.688,0,3.062,1.374,3.062,3.062v2.502C157.891,52.411,156.518,53.784,154.829,53.784z M153.41,48.158l-0.062,2.564
					l1.481,0.062c0.03,0,0.062-0.032,0.062-0.062V48.22L153.41,48.158z" style="fill:#6E6E96;"></path>
			</g>
			<g>
				<path d="M141.376,50.722c0,0.858,0.703,1.562,1.563,1.562h1.42c0.856,0,1.561-0.703,1.561-1.562V48.22
					c0-0.859-0.703-1.562-1.561-1.562h-1.42c-0.859,0-1.563,0.703-1.563,1.562V50.722z" style="fill:#B0DBFF;"></path>
				<path d="M144.359,53.784h-1.42c-1.689,0-3.063-1.374-3.063-3.062V48.22c0-1.688,1.374-3.062,3.063-3.062
					h1.42c1.688,0,3.061,1.374,3.061,3.062v2.502C147.42,52.411,146.047,53.784,144.359,53.784z M142.939,48.158l-0.063,2.564
					l1.483,0.062c0.026,0,0.061-0.03,0.061-0.062V48.22L142.939,48.158z" style="fill:#6E6E96;"></path>
			</g>
			<g>
				<path d="M130.904,50.722c0,0.858,0.703,1.562,1.562,1.562h1.419c0.859,0,1.562-0.703,1.562-1.562V48.22
					c0-0.859-0.702-1.562-1.562-1.562h-1.419c-0.859,0-1.562,0.703-1.562,1.562V50.722z" style="fill:#B0DBFF;"></path>
				<path d="M133.886,53.784h-1.419c-1.688,0-3.062-1.374-3.062-3.062V48.22c0-1.688,1.374-3.062,3.062-3.062
					h1.419c1.688,0,3.062,1.374,3.062,3.062v2.502C136.948,52.411,135.574,53.784,133.886,53.784z M132.467,48.158l-0.062,2.564
					l1.481,0.062c0.031,0,0.062-0.031,0.062-0.062V48.22L132.467,48.158z" style="fill:#6E6E96;"></path>
			</g>
			<g>
				<path d="M120.434,50.722c0,0.858,0.703,1.562,1.562,1.562h1.42c0.858,0,1.562-0.703,1.562-1.562V48.22
					c0-0.859-0.703-1.562-1.562-1.562h-1.42c-0.858,0-1.562,0.703-1.562,1.562V50.722z" style="fill:#B0DBFF;"></path>
				<path d="M123.416,53.784h-1.42c-1.688,0-3.062-1.374-3.062-3.062V48.22c0-1.688,1.374-3.062,3.062-3.062
					h1.42c1.688,0,3.062,1.374,3.062,3.062v2.502C126.478,52.411,125.104,53.784,123.416,53.784z M121.996,48.158l-0.062,2.564
					l1.482,0.062c0.03,0,0.062-0.032,0.062-0.062V48.22L121.996,48.158z" style="fill:#6E6E96;"></path>
			</g>
			<g>
				<path d="M109.962,50.722c0,0.858,0.703,1.562,1.562,1.562h1.42c0.858,0,1.562-0.703,1.562-1.562V48.22
					c0-0.859-0.703-1.562-1.562-1.562h-1.42c-0.858,0-1.562,0.703-1.562,1.562V50.722z" style="fill:#B0DBFF;"></path>
				<path d="M112.944,53.784h-1.42c-1.688,0-3.062-1.374-3.062-3.062V48.22c0-1.688,1.374-3.062,3.062-3.062
					h1.42c1.688,0,3.062,1.374,3.062,3.062v2.502C116.006,52.411,114.632,53.784,112.944,53.784z M111.524,48.158l-0.062,2.564
					l1.482,0.062c0.03,0,0.062-0.032,0.062-0.062V48.22L111.524,48.158z" style="fill:#6E6E96;"></path>
			</g>
			<g>
				<path d="M99.492,50.722c0,0.858,0.702,1.562,1.562,1.562h1.419c0.859,0,1.562-0.703,1.562-1.562V48.22
					c0-0.859-0.702-1.562-1.562-1.562h-1.419c-0.859,0-1.562,0.703-1.562,1.562V50.722z" style="fill:#B0DBFF;"></path>
				<path d="M102.473,53.784h-1.419c-1.688,0-3.062-1.374-3.062-3.062V48.22c0-1.688,1.374-3.062,3.062-3.062
					h1.419c1.688,0,3.062,1.374,3.062,3.062v2.502C105.535,52.411,104.162,53.784,102.473,53.784z M101.054,48.158l-0.062,2.564
					l1.481,0.062c0.031,0,0.062-0.031,0.062-0.062V48.22L101.054,48.158z" style="fill:#6E6E96;"></path>
			</g>
			<g>
				<path d="M89.02,50.722c0,0.858,0.703,1.562,1.562,1.562h1.419c0.859,0,1.562-0.703,1.562-1.562V48.22
					c0-0.859-0.703-1.562-1.562-1.562h-1.419c-0.859,0-1.562,0.703-1.562,1.562V50.722z" style="fill:#B0DBFF;"></path>
				<path d="M92.001,53.784h-1.419c-1.688,0-3.062-1.374-3.062-3.062V48.22c0-1.688,1.374-3.062,3.062-3.062
					h1.419c1.688,0,3.062,1.374,3.062,3.062v2.502C95.063,52.411,93.689,53.784,92.001,53.784z M90.582,48.158l-0.062,2.564
					l1.481,0.062c0.031,0,0.062-0.031,0.062-0.062V48.22L90.582,48.158z" style="fill:#6E6E96;"></path>
			</g>
			<g>
				<path d="M78.548,50.722c0,0.858,0.703,1.562,1.562,1.562h1.42c0.859,0,1.562-0.703,1.562-1.562V48.22
					c0-0.859-0.702-1.562-1.562-1.562h-1.42c-0.858,0-1.562,0.703-1.562,1.562V50.722z" style="fill:#B0DBFF;"></path>
				<path d="M81.53,53.784h-1.42c-1.688,0-3.062-1.374-3.062-3.062V48.22c0-1.688,1.374-3.062,3.062-3.062
					h1.42c1.688,0,3.062,1.374,3.062,3.062v2.502C84.592,52.411,83.218,53.784,81.53,53.784z M80.11,48.158l-0.062,2.564
					l1.482,0.062c0.031,0,0.062-0.031,0.062-0.062V48.22L80.11,48.158z" style="fill:#6E6E96;"></path>
			</g>
		</g>
		<path d="M124.872,64.193l1.353,1.421l5.539,0.836
			c0,0,22.875-2.664,26.498-3.724c3.624-1.06,3.448-3.616,3.448-3.616s2.927-4.528-6.097-2.739
			C146.589,58.16,54.161,71.454,54.161,71.454l-5.365-1.022H44.65l8.302,5.943L124.872,64.193z" style="opacity:0.15;fill:#6E6E96;enable-background:new    ;"></path>
		<path d="M207.11,54.813c-0.524,0-1.033-0.276-1.309-0.766l-3.455-6.149
			c-0.406-0.722-0.149-1.637,0.573-2.042c0.722-0.406,1.637-0.149,2.042,0.573l3.455,6.149c0.406,0.722,0.149,1.637-0.573,2.042
			C207.611,54.751,207.359,54.813,207.11,54.813z" style="fill:#6E6E96;"></path>
	</g>
	<g>
		<g>
			<circle r="11.62" cy="160.454" cx="132.124" style="fill:#FFFFFF;"></circle>
			<path d="M132.124,173.574c-7.234,0-13.12-5.886-13.12-13.12s5.886-13.12,13.12-13.12
				s13.12,5.886,13.12,13.12S139.358,173.574,132.124,173.574z M132.124,150.334c-5.58,0-10.12,4.54-10.12,10.12
				s4.54,10.12,10.12,10.12s10.12-4.54,10.12-10.12S137.704,150.334,132.124,150.334z" style="fill:#6E6E96;"></path>
		</g>
		<g>
			<path d="M131.594,138.781c-13.4,0-24.264,10.863-24.264,24.264c0,13.401,21.343,42.648,24.264,42.648
				c5.73,0,24.264-29.248,24.264-42.648S144.994,138.781,131.594,138.781z M132.124,168.91c-5.138,0-9.302-4.166-9.302-9.303
				c0-5.138,4.164-9.301,9.302-9.301c5.138,0,9.302,4.163,9.302,9.301C141.427,164.744,137.264,168.91,132.124,168.91z" style="fill:#FF9C9C;"></path>
			<path d="M131.594,207.193c-3.671,0-14.054-16.302-14.494-16.995c-4.209-6.635-11.27-18.985-11.27-27.153
				c0-14.206,11.558-25.764,25.764-25.764s25.764,11.558,25.764,25.764c0,9.271-7.803,23.1-10.194,27.116
				C145.471,193.006,136.764,207.193,131.594,207.193z M131.594,140.281c-12.552,0-22.764,10.212-22.764,22.764
				c0,12.063,19.255,39.146,22.928,41.136c4.449-0.678,22.6-27.695,22.6-41.136C154.357,150.493,144.146,140.281,131.594,140.281z
				 M132.124,170.41c-5.957,0-10.802-4.846-10.802-10.803c0-5.956,4.846-10.801,10.802-10.801c5.956,0,10.802,4.845,10.802,10.801
				c0.001,2.885-1.122,5.598-3.162,7.638C137.724,169.286,135.01,170.41,132.124,170.41z M132.124,151.807
				c-4.302,0-7.802,3.499-7.802,7.801c0,4.303,3.5,7.803,7.802,7.803c2.085,0,4.044-0.812,5.518-2.285s2.284-3.434,2.284-5.518
				C139.926,155.306,136.426,151.807,132.124,151.807z" style="fill:#6E6E96;"></path>
		</g>
		<path d="M150.375,153.289
			C150.381,153.467,150.264,153.152,150.375,153.289c5.809,7.131-0.117,26.732-19.443,43.928
			c-1.701,1.514-17.477-19.754-22.737-33.656c0,0.047-0.003,0.092-0.003,0.14c0,12.94,20.609,41.184,23.43,41.184
			c5.534,0,23.433-28.243,23.433-41.184C155.053,160.301,151.678,156.205,150.375,153.289z" style="opacity:0.45;fill:#E08080;enable-background:new    ;"></path>
		<path d="M133.783,141.65c5.129,0,10.619,2.604,14.291,5.633c-3.895-4.723-9.793-7.732-16.393-7.732
			c-11.729,0-23.338,10.467-23.338,22.197c0,10.975,18.459,33.141,22.655,36.062c-6.194-7.229-18.366-22.403-18.366-35.182
			C112.634,149.574,122.054,141.65,133.783,141.65z" style="fill:#FFADAD;"></path>
	</g>
	<g>
		<path d="M228.057,248.246c0.023-0.2,0.041-0.396,0.041-0.602c0-4.697-5.377-8.504-12.014-8.504
			c-0.893,0-1.758,0.072-2.594,0.204c-2.229-5.512-9.385-9.548-17.885-9.548c-6.194,0-11.664,2.149-15.049,5.442
			c-2.691-1.384-5.994-2.207-9.574-2.207c-7.869,0-14.435,3.938-15.986,9.179c-1.99-1.262-4.616-2.034-7.503-2.034
			c-6.232,0-11.285,3.574-11.285,7.983c0,0.025,0.008,0.055,0.008,0.082L228.057,248.246L228.057,248.246z" style="fill:#ADDBB3;"></path>
		<path d="M228.057,249.746L228.057,249.746l-91.841-0.004c-0.791,0-1.439-0.612-1.496-1.389
			c-0.007-0.064-0.012-0.142-0.012-0.193c0-5.229,5.735-9.483,12.785-9.483c2.392,0,4.722,0.495,6.729,1.414
			c2.519-5.116,9.106-8.559,16.761-8.559c3.312,0,6.509,0.66,9.311,1.917c3.824-3.286,9.338-5.152,15.312-5.152
			c8.476,0,15.844,3.743,18.786,9.424c0.564-0.054,1.131-0.08,1.692-0.08c7.451,0,13.514,4.487,13.514,10.004
			c0,0.265-0.021,0.518-0.051,0.776C229.458,249.177,228.817,249.746,228.057,249.746z M137.954,246.742l88.558,0.004
			c-0.664-3.439-5.087-6.105-10.428-6.105c-0.784,0-1.578,0.062-2.36,0.186c-0.682,0.112-1.362-0.271-1.624-0.919
			c-2.05-5.069-8.832-8.61-16.494-8.61c-5.539,0-10.773,1.876-14.003,5.018c-0.462,0.451-1.159,0.553-1.731,0.259
			c-2.598-1.335-5.671-2.041-8.889-2.041c-7.039,0-13.157,3.408-14.548,8.104c-0.134,0.451-0.471,0.813-0.911,0.979
			c-0.441,0.167-0.934,0.114-1.33-0.138c-1.832-1.161-4.212-1.801-6.7-1.801C142.921,241.677,138.961,243.883,137.954,246.742z" style="fill:#6E6E96;"></path>
	</g>
	<g>
		<path d="M55.198,242.216c1.728-5.241,9.046-9.18,17.812-9.18c3.991,0,7.671,0.825,10.672,2.208
			c3.77-3.293,9.871-5.443,16.773-5.443c9.475,0,17.45,4.037,19.934,9.549c0.929-0.131,1.893-0.205,2.89-0.205
			c7.394,0,13.389,3.808,13.389,8.504c0,0.201-0.028,0.4-0.044,0.603h-83.85" style="fill:#ADDBB3;"></path>
		<path d="M136.625,249.751h-83.85c-0.829,0-1.5-0.672-1.5-1.5s0.671-1.5,1.5-1.5h82.292
			c-0.774-3.392-5.857-6.106-11.788-6.106c-0.882,0-1.784,0.064-2.68,0.19c-0.665,0.091-1.303-0.262-1.577-0.869
			c-2.299-5.102-9.934-8.665-18.566-8.665c-6.248,0-12.149,1.896-15.786,5.073c-0.445,0.388-1.076,0.481-1.615,0.232
			c-2.939-1.354-6.413-2.07-10.044-2.07c-7.939,0-14.832,3.428-16.388,8.149c-0.26,0.787-1.106,1.212-1.895,0.955
			c-0.787-0.26-1.214-1.107-0.955-1.895c1.981-6.012,9.892-10.21,19.237-10.21c3.712,0,7.295,0.678,10.426,1.965
			c4.225-3.314,10.362-5.2,17.019-5.2c9.392,0,17.56,3.751,20.796,9.438c0.68-0.062,1.358-0.095,2.028-0.095
			c8.349,0,14.889,4.395,14.889,10.004c0,0.187-0.016,0.372-0.034,0.559l-0.015,0.159
			C138.061,249.147,137.408,249.751,136.625,249.751z" style="fill:#6E6E96;"></path>
	</g>
	<g>
		<path d="M120.388,239.348c0,0-3.748,0.387-5.152,3.27" style="fill:#B2D6BF;"></path>
		<path d="M115.235,244.117c-0.221,0-0.444-0.049-0.656-0.151c-0.745-0.363-1.055-1.261-0.692-2.006
			c1.75-3.591,6.16-4.085,6.347-4.104c0.816-0.077,1.561,0.514,1.646,1.338c0.084,0.822-0.511,1.558-1.332,1.646
			c-0.042,0.005-2.954,0.36-3.964,2.436C116.325,243.808,115.791,244.117,115.235,244.117z" style="fill:#6E6E96;"></path>
	</g>
	<g>
		<path d="M83.679,235.243c-0.001,0,5.059,1.469,5.059,4.446" style="fill:#B2D6BF;"></path>
		<path d="M88.738,241.189c-0.829,0-1.5-0.672-1.5-1.5c0-1.368-2.735-2.638-3.983-3.008
			c-0.794-0.235-1.248-1.069-1.013-1.864c0.235-0.794,1.068-1.246,1.864-1.012c0.627,0.186,6.131,1.93,6.131,5.884
			C90.238,240.518,89.566,241.189,88.738,241.189z" style="fill:#6E6E96;"></path>
	</g>
	<path d="M35.75,150.441h-14c-0.829,0-1.5-0.672-1.5-1.5s0.671-1.5,1.5-1.5h14c0.829,0,1.5,0.672,1.5,1.5
		S36.579,150.441,35.75,150.441z" style="fill:#6E6E96;"></path>
	<path d="M27.191,159.559H12.75c-0.829,0-1.5-0.672-1.5-1.5
		s0.671-1.5,1.5-1.5h14.441c0.829,0,1.5,0.672,1.5,1.5S28.02,159.559,27.191,159.559z" style="opacity:0.46;fill:#6E6E96;enable-background:new    ;"></path>
	<path d="M243.104,207.559H226.75c-0.828,0-1.5-0.672-1.5-1.5s0.672-1.5,1.5-1.5h16.354
		c0.828,0,1.5,0.672,1.5,1.5S243.932,207.559,243.104,207.559z" style="fill:#6E6E96;"></path>
	<path d="M250.427,218.234h-18c-0.828,0-1.5-0.672-1.5-1.5
		s0.672-1.5,1.5-1.5h18c0.828,0,1.5,0.672,1.5,1.5S251.255,218.234,250.427,218.234z" style="opacity:0.2;fill:#6E6E96;enable-background:new    ;"></path>
</g>
<g id="Layer_2">
</g>
</svg>
