<svg xmlns="http://www.w3.org/2000/svg" fill="none" viewBox="0 0 1024 1024" height="1024" width="1024">
<g clip-path="url(#clip0_2467_5319)">
<mask height="840" width="840" y="92" x="92" maskUnits="userSpaceOnUse" style="mask-type:alpha" id="mask0_2467_5319">
<path fill="white" d="M512 931.841C743.872 931.841 931.84 743.872 931.84 512.001C931.84 280.129 743.872 92.1606 512 92.1606C280.129 92.1606 92.1604 280.129 92.1604 512.001C92.1604 743.872 280.129 931.841 512 931.841Z"></path>
</mask>
<g mask="url(#mask0_2467_5319)">
<path fill="#D8D8D8" d="M512 931.841C743.872 931.841 931.84 743.872 931.84 512.001C931.84 280.129 743.872 92.1606 512 92.1606C280.129 92.1606 92.1604 280.129 92.1604 512.001C92.1604 743.872 280.129 931.841 512 931.841Z"></path>
<path fill="url(#paint0_linear_2467_5319)" d="M-46.1403 564.852H1067.67V1670.27H-46.1403V564.852Z"></path>
<path fill="url(#paint1_linear_2467_5319)" d="M1067.67 564.852L-46.1409 564.852V-306.44L1067.67 -306.44V564.852Z"></path>
<path fill="url(#paint2_linear_2467_5319)" d="M794.756 867.59L492.959 1038.74L181.571 925.601C446.945 821.751 602.959 763.785 649.611 751.701C696.263 739.618 744.645 778.247 794.756 867.59Z" clip-rule="evenodd" fill-rule="evenodd" opacity="0.579767"></path>
<path fill="url(#paint3_linear_2467_5319)" d="M363.819 758.437H42.7653V770.785H363.819V758.437Z" opacity="0.579767"></path>
<path stroke-width="12.3482" stroke="#D7DBE1" d="M494.418 662.651C441.042 752.625 380.288 783.075 312.153 754.001C244.019 724.927 172.333 730.248 97.0958 769.964"></path>
<path fill="url(#paint4_linear_2467_5319)" d="M673.76 879.978C750.823 879.978 813.295 851.783 813.295 817.002C813.295 782.222 750.823 754.026 673.76 754.026C596.697 754.026 534.225 782.222 534.225 817.002C534.225 851.783 596.697 879.978 673.76 879.978Z"></path>
<path fill="#8D97A5" d="M534.225 803.422H813.295V820.709L534.225 817.294V803.422Z"></path>
<path fill="url(#paint5_linear_2467_5319)" d="M673.76 865.162C750.823 865.162 813.295 836.967 813.295 802.186C813.295 767.405 750.823 739.21 673.76 739.21C596.697 739.21 534.225 767.405 534.225 802.186C534.225 836.967 596.697 865.162 673.76 865.162Z"></path>
<path fill="url(#paint6_linear_2467_5319)" d="M690.661 776.071L573.295 839.122L530.695 809.874L660.359 760.896L690.661 776.071Z" clip-rule="evenodd" fill-rule="evenodd" opacity="0.579767"></path>
<path fill="url(#paint7_linear_2467_5319)" d="M645.361 637.957H700.928V768.175C691.443 776.856 682.107 781.197 672.92 781.197C663.733 781.197 654.547 776.856 645.361 768.175V637.957Z" clip-rule="evenodd" fill-rule="evenodd"></path>
<path fill="url(#paint8_linear_2467_5319)" d="M976.293 242.812H368.76C352.393 242.812 339.124 256.08 339.124 272.447V657.712C339.124 674.08 352.393 687.348 368.76 687.348H976.293C992.66 687.348 1005.93 674.08 1005.93 657.712V272.447C1005.93 256.08 992.66 242.812 976.293 242.812Z"></path>
<path fill="#D7DBE1" d="M415.679 652.771H386.043C380.587 652.771 376.165 657.194 376.165 662.65C376.165 668.106 380.587 672.529 386.043 672.529H415.679C421.135 672.529 425.557 668.106 425.557 662.65C425.557 657.194 421.135 652.771 415.679 652.771Z"></path>
<path fill="#D7DBE1" d="M479.894 652.771H450.258C444.802 652.771 440.38 657.194 440.38 662.65C440.38 668.106 444.802 672.529 450.258 672.529H479.894C485.35 672.529 489.773 668.106 489.773 662.65C489.773 657.194 485.35 652.771 479.894 652.771Z"></path>
<path fill="white" d="M954.062 282.327H390.982C382.799 282.327 376.165 288.961 376.165 297.145V623.138C376.165 631.322 382.799 637.956 390.982 637.956H954.062C962.246 637.956 968.88 631.322 968.88 623.138V297.145C968.88 288.961 962.246 282.327 954.062 282.327Z"></path>
<g filter="url(#filter0_f_2467_5319)" opacity="0.70452">
<path fill="#F3F4F5" d="M954.062 282.327H390.982C382.799 282.327 376.165 288.961 376.165 297.145V623.138C376.165 631.322 382.799 637.956 390.982 637.956H954.062C962.246 637.956 968.88 631.322 968.88 623.138V297.145C968.88 288.961 962.246 282.327 954.062 282.327Z"></path>
</g>
<path fill="url(#paint9_linear_2467_5319)" d="M504.588 518.266C534.594 518.266 558.92 493.941 558.92 463.934C558.92 433.927 534.594 409.602 504.588 409.602C474.581 409.602 450.255 433.927 450.255 463.934C450.255 493.941 474.581 518.266 504.588 518.266Z"></path>
<path stroke-linecap="round" stroke-width="9.87859" stroke="white" d="M526.418 443.342L482.76 486.999"></path>
<path stroke-linecap="round" stroke-width="9.87859" stroke="white" d="M482.76 443.342L526.418 486.999"></path>
<path fill="url(#paint10_linear_2467_5319)" d="M603.768 509.122V417.922H642.895V431.668H617.513V456.613H636.059V470.431H617.513V495.377H642.895V509.122H603.768ZM674.041 417.995C681.701 417.995 687.325 420.104 690.913 424.322C694.065 428.007 695.641 433.146 695.641 439.74V452.977C695.641 459.425 693.192 464.88 688.295 469.34L698.477 509.122H683.641L675.277 474.722C674.889 474.771 674.477 474.795 674.041 474.795H666.113V509.122H652.368V417.995H674.041ZM682.259 439.958C682.259 434.674 679.641 432.031 674.404 432.031H666.113V461.195H674.404C676.586 461.195 678.428 460.419 679.931 458.868C681.483 457.316 682.259 455.449 682.259 453.268V439.958ZM731.941 417.995C739.601 417.995 745.225 420.104 748.813 424.322C751.965 428.007 753.541 433.146 753.541 439.74V452.977C753.541 459.425 751.092 464.88 746.195 469.34L756.377 509.122H741.541L733.177 474.722C732.789 474.771 732.377 474.795 731.941 474.795H724.013V509.122H710.268V417.995H731.941ZM740.159 439.958C740.159 434.674 737.541 432.031 732.304 432.031H724.013V461.195H732.304C734.486 461.195 736.328 460.419 737.831 458.868C739.383 457.316 740.159 455.449 740.159 453.268V439.958ZM787.613 416.831C793.674 416.831 798.813 418.964 803.031 423.231C807.298 427.498 809.431 432.637 809.431 438.649V488.395C809.431 494.455 807.298 499.619 803.031 503.886C798.765 508.104 793.625 510.213 787.613 510.213C781.553 510.213 776.413 508.08 772.195 503.813C767.977 499.546 765.868 494.407 765.868 488.395V438.649C765.868 432.589 768.001 427.449 772.268 423.231C776.534 418.964 781.65 416.831 787.613 416.831ZM795.104 438.358C795.104 436.177 794.328 434.334 792.777 432.831C791.274 431.28 789.431 430.504 787.25 430.504C785.068 430.504 783.201 431.28 781.65 432.831C780.098 434.334 779.322 436.177 779.322 438.358V488.249C779.322 490.431 780.098 492.298 781.65 493.849C783.201 495.352 785.068 496.104 787.25 496.104C789.431 496.104 791.274 495.352 792.777 493.849C794.328 492.298 795.104 490.431 795.104 488.249V438.358ZM843.241 417.995C850.901 417.995 856.525 420.104 860.113 424.322C863.265 428.007 864.841 433.146 864.841 439.74V452.977C864.841 459.425 862.392 464.88 857.495 469.34L867.677 509.122H852.841L844.477 474.722C844.089 474.771 843.677 474.795 843.241 474.795H835.313V509.122H821.568V417.995H843.241ZM851.459 439.958C851.459 434.674 848.841 432.031 843.604 432.031H835.313V461.195H843.604C845.786 461.195 847.628 460.419 849.131 458.868C850.683 457.316 851.459 455.449 851.459 453.268V439.958Z"></path>
</g>
</g>
<defs>
<filter color-interpolation-filters="sRGB" filterUnits="userSpaceOnUse" height="437.549" width="674.635" y="241.367" x="335.205" id="filter0_f_2467_5319">
<feFlood result="BackgroundImageFix" flood-opacity="0"></feFlood>
<feBlend result="shape" in2="BackgroundImageFix" in="SourceGraphic" mode="normal"></feBlend>
<feGaussianBlur result="effect1_foregroundBlur_2467_5319" stdDeviation="20.48"></feGaussianBlur>
</filter>
<linearGradient gradientUnits="userSpaceOnUse" y2="913.907" x2="709.402" y1="602.032" x1="93.2297" id="paint0_linear_2467_5319">
<stop stop-color="white"></stop>
<stop stop-color="#F3F4F5" offset="1"></stop>
</linearGradient>
<linearGradient gradientUnits="userSpaceOnUse" y2="148.213" x2="343.167" y1="381.651" x1="928.3" id="paint1_linear_2467_5319">
<stop stop-color="white"></stop>
<stop stop-color="#F3F4F5" offset="1"></stop>
</linearGradient>
<linearGradient gradientUnits="userSpaceOnUse" y2="945.858" x2="331.101" y1="896.002" x1="622.079" id="paint2_linear_2467_5319">
<stop stop-color="#DEE3EB"></stop>
<stop stop-color="#F9F9F9" offset="1"></stop>
</linearGradient>
<linearGradient gradientUnits="userSpaceOnUse" y2="762.884" x2="122.878" y1="762.884" x1="422.398" id="paint3_linear_2467_5319">
<stop stop-color="#A4AFBE"></stop>
<stop stop-opacity="0" stop-color="#F9F9F9" offset="1"></stop>
</linearGradient>
<linearGradient gradientUnits="userSpaceOnUse" y2="847.839" x2="538.387" y1="806.401" x1="816.638" id="paint4_linear_2467_5319">
<stop stop-color="#D7DBE1"></stop>
<stop stop-color="#8C96A4" offset="1"></stop>
</linearGradient>
<linearGradient gradientUnits="userSpaceOnUse" y2="762.066" x2="857.592" y1="803.842" x1="517.118" id="paint5_linear_2467_5319">
<stop stop-color="#D7DBE1"></stop>
<stop stop-color="#A4AFBE" offset="1"></stop>
</linearGradient>
<linearGradient gradientUnits="userSpaceOnUse" y2="851.741" x2="529.375" y1="794.789" x1="664.266" id="paint6_linear_2467_5319">
<stop stop-color="#A4AFBE"></stop>
<stop stop-opacity="0" stop-color="#E0E4E9" offset="1"></stop>
</linearGradient>
<linearGradient gradientUnits="userSpaceOnUse" y2="703.985" x2="639.698" y1="678.405" x1="701.44" id="paint7_linear_2467_5319">
<stop stop-color="#E0E4E9"></stop>
<stop stop-color="#A8AEB8" offset="1"></stop>
</linearGradient>
<linearGradient gradientUnits="userSpaceOnUse" y2="480.497" x2="179.134" y1="240.643" x1="844.799" id="paint8_linear_2467_5319">
<stop stop-color="#C6CDD7"></stop>
<stop stop-color="#8C96A4" offset="1"></stop>
</linearGradient>
<linearGradient gradientUnits="userSpaceOnUse" y2="518.266" x2="504.588" y1="409.602" x1="504.588" id="paint9_linear_2467_5319">
<stop stop-color="#8C94A4"></stop>
<stop stop-color="#D7DBE1" offset="1"></stop>
</linearGradient>
<linearGradient gradientUnits="userSpaceOnUse" y2="524.122" x2="736.041" y1="389.122" x1="736.041" id="paint10_linear_2467_5319">
<stop stop-color="#8C94A4"></stop>
<stop stop-color="#D7DBE1" offset="1"></stop>
</linearGradient>
<clipPath id="clip0_2467_5319">
<rect fill="white" height="1024" width="1024"></rect>
</clipPath>
</defs>
</svg>
