<?xml version="1.0" encoding="utf-8"?>
<!-- Generator: Adobe Illustrator 23.1.0, SVG Export Plug-In . SVG Version: 6.00 Build 0)  -->
<svg version="1.1" id="图层_1" xmlns="http://www.w3.org/2000/svg" xmlns:xlink="http://www.w3.org/1999/xlink" x="0px" y="0px"
	 viewBox="0 0 174.4 174.4" style="enable-background:new 0 0 174.4 174.4;" xml:space="preserve">
<style type="text/css">
	.st0{fill:#0969DA;}
</style>
<path class="st0" d="M152.9,144.5c13.9-15.9,21.4-36,21.4-57.3c0-23.3-9.1-45.2-25.5-61.6C132.6,9.4,111.2,0.4,88.3,0.1
	c-0.4-0.1-2-0.1-2.4,0C63.1,0.4,41.7,9.5,25.6,25.6C9.4,41.8,0.4,63.2,0.1,86.1c-0.1,0.3-0.1,1.7,0,2c0.2,23,9.3,44.5,25.5,60.8
	c16.5,16.5,38.4,25.5,61.6,25.5c23.3,0,45.2-9.1,61.6-25.5c1.2-1.2,2.4-2.4,3.5-3.7c0.1-0.1,0.2-0.2,0.3-0.3
	C152.7,144.8,152.8,144.6,152.9,144.5z M8.1,91.1h36.6c0.3,12.8,1.8,24.9,4.4,35.6c-12,3.3-19.7,7.5-23.6,10.1
	C15.3,124.1,9,108.3,8.1,91.1z M25.4,37.8C29.3,40.5,37,44.7,49.1,48c-2.5,10.6-4.1,22.4-4.3,35H8.2C9,66,15.4,50.4,25.4,37.8z
	 M166.3,83.1h-36.6c-0.3-12.6-1.8-24.5-4.3-35c12.1-3.3,19.8-7.5,23.7-10.2C159.1,50.4,165.4,66,166.3,83.1z M121.7,83.1H91.1V52.6
	c10.2-0.2,19-1.3,26.4-2.7C120,60,121.4,71.3,121.7,83.1z M91.1,44.6v-36c7.2,2,14.2,9.6,19.7,21.5c1.7,3.7,3.3,7.7,4.6,12
	C108.5,43.4,100.5,44.4,91.1,44.6z M83.1,8.7v35.9c-9.3-0.2-17.3-1.2-24-2.5c1.3-4.3,2.9-8.3,4.6-12C69.1,18.4,76,10.8,83.1,8.7z
	 M83.1,52.6v30.5l-30.3,0c0.3-11.8,1.7-23,4.1-33.2C64.3,51.3,73,52.4,83.1,52.6z M52.8,91.1h30.3v31c-10.1,0.2-18.8,1.3-26.1,2.8
	C54.5,114.5,53,103,52.8,91.1z M83.1,130.1v35.7c-7.1-2.1-14-9.7-19.5-21.4c-1.7-3.7-3.2-7.6-4.5-11.8
	C65.9,131.2,73.8,130.3,83.1,130.1z M91.1,165.9V130c9.4,0.2,17.4,1.1,24.2,2.5c-1.3,4.2-2.8,8.2-4.5,11.8
	C105.3,156.2,98.3,163.8,91.1,165.9z M91.1,122v-31h30.6c-0.3,11.9-1.7,23.4-4.2,33.7C110,123.3,101.3,122.3,91.1,122z M129.7,91.1
	h36.6c-0.8,17.2-7.2,33-17.3,45.6c-4-2.7-11.6-6.9-23.7-10.1C127.9,115.9,129.4,103.9,129.7,91.1z M143.7,31.8
	c-3.6,2.3-10.2,5.7-20.5,8.5c-3.8-12.3-9-22.5-15.2-29.5C121.7,14.6,134,21.9,143.7,31.8z M66.5,10.8C60.2,17.9,55,28,51.2,40.3
	C41,37.5,34.4,34,30.8,31.8C40.5,21.9,52.7,14.6,66.5,10.8z M30.9,142.8c3.6-2.3,10.2-5.7,20.4-8.5c3.8,12.2,9,22.3,15.2,29.3
	C52.8,159.9,40.6,152.6,30.9,142.8z M108,163.6c6.2-7,11.4-17.1,15.2-29.3c10.2,2.7,16.8,6.2,20.4,8.4
	C133.9,152.6,121.7,159.9,108,163.6z"/>
</svg>
