<?xml version="1.0" encoding="utf-8"?>
<svg version="1.1" id="_1" xmlns="http://www.w3.org/2000/svg" xmlns:xlink="http://www.w3.org/1999/xlink" x="0px" y="0px"
	 viewBox="0 0 318.3 340.7" style="enable-background:new 0 0 318.3 340.7;" xml:space="preserve">
<style type="text/css">
	.st0{fill:#383C92;}
</style>
<g>
	<path class="st0" d="M174.7,340.7h-32c-14.9,0-27.1-12.1-27.1-27.1V27.1c0-14.9,12.1-27.1,27.1-27.1h32c14.9,0,27.1,12.1,27.1,27.1
		v286.6C201.8,328.6,189.7,340.7,174.7,340.7z"/>
	<path class="st0" d="M298.7,71.2l16,27.7c7.5,12.9,3,29.5-9.9,37L56.6,279.2c-12.9,7.5-29.5,3-37-9.9l-16-27.7
		c-7.5-12.9-3-29.5,9.9-37L261.7,61.3C274.7,53.8,291.2,58.3,298.7,71.2z"/>
	<path class="st0" d="M314.7,241.6l-16,27.7c-7.5,12.9-24,17.4-37,9.9L13.5,135.8c-12.9-7.5-17.4-24-9.9-37l16-27.7
		c7.5-12.9,24-17.4,37-9.9l248.2,143.3C317.7,212.1,322.2,228.6,314.7,241.6z"/>
</g>
</svg>
